<?xml version="1.0" encoding="utf-8"?>
<!-- Generator: Adobe Illustrator 25.0.0, SVG Export Plug-In . SVG Version: 6.00 Build 0)  -->
<svg version="1.1" id="Calque_1" xmlns="http://www.w3.org/2000/svg" xmlns:xlink="http://www.w3.org/1999/xlink" x="0px" y="0px"
	 viewBox="0 0 1920 1080" style="enable-background:new 0 0 1920 1080;" xml:space="preserve">
<style type="text/css">
	.st0{fill:#30E2B7;stroke:#000000;stroke-width:9;stroke-miterlimit:10;}
	.st1{fill:#F91C9A;stroke:#000000;stroke-width:9;stroke-miterlimit:10;}
	.st2{fill:#752EE5;stroke:#000000;stroke-width:9;stroke-miterlimit:10;}
	.st3{fill:#697069;}
	.st4{fill:#262A56;}
	.st5{fill:#CD1818;stroke:#000000;stroke-width:13;stroke-miterlimit:10;}
	.st6{fill:#CD1818;}
</style>
<path class="st0" d="M-112.5,286.5"/>
<path class="st1" d="M-3265.5,651.5c66.3-13.3,484.2-98.7,584-187c15.2-13.4,20.9-25.1,21-36c0.6-58.5-158.9-104.9-243-126"/>
<path class="st1" d="M-3077.5,297.5c24.5,22.4,36.8,41.3,32,55c-24.9,70.8-511.5,7.6-514-55c-4-101.9,1271.5-265.5,1359-29
	c3,8.1,8.3,54.1,19,146c15,128.8,23,227,25,252c15.5,192.8,30.8,383.5,26,480c-15.3,305.9-286.8,749.9-714,815
	c-383,58.4-679.7-220.1-724-263"/>
<path class="st2" d="M-498.5,1595.5"/>
<path class="st3" d="M860,268"/>
<rect y="0" class="st4" width="1920" height="383"/>
<g>
	<path class="st5" d="M1430.7,176.9c-95.4,48.8-190.9,97.6-286.3,146.3c-3,1.5-6.5,1.5-9.4,0c-89.7-46.1-179.3-92.2-269-138.3
		c-7.6-3.9-7.4-14.9,0.3-18.5C959,122.7,1051.7,79,1144.4,35.3c2.7-1.3,5.8-1.3,8.6-0.1c92.4,41,184.8,82,277.2,123.1
		C1438.2,161.8,1438.5,173,1430.7,176.9z"/>
	<path d="M1411.1,172.9c-89.5,45.7-179,91.5-268.4,137.2c-1.3,0.6-2.8,0.6-4,0c-84.2-43.3-168.4-86.6-252.6-129.9
		c-3.3-1.7-3.2-6.3,0.1-7.9c86.9-41,173.8-81.9,260.7-122.9c1.2-0.5,2.5-0.6,3.7,0c86.8,38.5,173.6,77,260.3,115.6
		C1414.3,166.5,1414.4,171.3,1411.1,172.9z"/>
	<g>
		<g>
			<path class="st6" d="M959,193.5c-2.3,0.6-4.6,0.5-6.8-0.2c-2.2-0.6-4.2-1.6-5.9-2.8c-1.7-1.2-3.1-2.7-4.4-4.4
				c-2.7-3.6-4.3-7.7-4.8-12.5c-0.2-2.1-1-3.4-2.3-4c1.3-0.6,2-2,2.3-4.1c0.2-2.1,0.8-4,1.7-6c0.9-1.9,2-3.7,3.4-5.4
				c2.8-3.3,6.4-5.8,10.7-6.9c3-0.8,5.4-0.5,7.5,0.9c1.9,1.4,3,3.5,3.5,6.4c0.2,1.6,0.5,2.6,0.9,3c0.1,0.2,0.3,0.3,0.6,0.4
				c-0.9,2-1.8,2.9-2.7,2.7c-0.2,0-0.4-0.1-0.6-0.2c-0.3,1-0.8,1.8-1.3,2.4c-0.5,0.7-1.1,1-1.7,1.2c-0.6,0.1-1,0.1-1.2-0.1
				c0.4-0.8,0.6-1.8,0.6-2.9c0-0.1,0-0.3-0.1-0.6c-0.1,0-0.1,0.1-0.2,0.1c-0.1,0-0.2,0-0.3,0c-0.2,0-0.4,0-0.7-0.2
				c-0.3-0.1-0.6-0.3-0.8-0.6c-0.6-0.5-0.9-1.2-0.9-1.9c0-0.2,0-0.3,0.1-0.5c0.9,0.3,1.8-0.1,2.6-1.2c0.6-0.8,0.8-1.5,0.8-2.3
				c0-0.8-0.2-1.4-0.5-1.8c-0.3-0.5-0.7-0.8-1.2-1.1c-1.1-0.6-2.6-0.7-4.4-0.3c-4,1-6,4.3-6,9.9c0,1.5,0,3,0,4.5
				c0,2,0.8,3.5,2.4,4.3c-1.6,1-2.4,2.5-2.4,4.7c0,2.4,0,4.8,0,7.2c0,2.3,0.4,4,1.1,5.3c0.7,1.3,1.8,2.1,3.4,2.5
				c1.8,0.4,3-0.4,3.6-2.4c0.2-0.7,0.3-1.5,0.3-2.4c0-2.3,0-4.6,0-6.9c-0.3-0.4-0.7-0.6-1.2-0.7c-0.5,0-0.9,0.1-1.2,0.4
				c-0.2-0.2-0.2-0.6-0.2-1.2c0-0.6,0.2-1.2,0.6-1.7c0.4-0.5,1-0.8,1.8-0.7c0.8,0,1.5,0.3,2,1c0.7-0.6,1.5-0.8,2.3-0.8
				c0.8,0,1.6,0.4,2.2,1c0.6-0.6,1.2-0.9,1.8-0.9c0.6,0,1,0.1,1.3,0.3c0.3,0.2,0.6,0.4,0.8,0.7c0.5,0.6,0.8,1.4,0.8,2.3
				c0,0.5-0.1,0.9-0.2,1.2c-0.3-0.4-0.8-0.6-1.3-0.7c-0.5,0-1.1,0.7-1.6,2.1c0,3.5,0,7.1,0,10.6c0.3,1.4,0.9,2.2,1.9,2.4
				c0.4,0.1,0.7,0,1-0.3c0.2,0.4,0.2,0.8,0.2,1.2c0,0.9-0.3,1.6-1,2c-0.7,0.4-1.6,0.4-2.9,0.1C961,195.4,959.9,194.7,959,193.5z
				 M942.1,183c0.2-0.1,0.3-0.2,0.3-0.5c0-0.4-0.2-1-0.5-1.8c-0.3-0.8-0.6-2.2-0.9-4.2c-0.3-1.9-0.4-4.1-0.4-6.6
				c0-4,0.4-7.5,1.3-10.5c0.1-0.4,0.2-0.8,0.2-1c0-0.2-0.1-0.3-0.3-0.4c-0.7,1.1-1.2,2.2-1.5,3.1c-0.5,1.8-1,4.2-1.3,7.1
				c0,0.4-0.5,0.8-1.3,1.2c0.8,0.4,1.3,0.8,1.3,1.2c0.5,5,1.2,8.5,2,10.4C941.4,181.8,941.7,182.5,942.1,183z M957.5,187.6
				c0.9-0.6,1.3-1.8,1.3-3.7c0-0.6,0-1.2,0-1.8c0-1.8-0.4-3-1.3-3.6C957.5,181.6,957.5,184.6,957.5,187.6z"/>
			<path class="st6" d="M984.4,196.6c-1.4,2.9-3.4,3.9-6.1,3.3c-3.3-0.8-5.8-3-7.5-6.4c-0.7-1.5-1.2-3-1.5-4.7
				c-0.1-1-0.4-1.8-0.8-2.3c-0.4-0.6-0.8-1.1-1.4-1.6c1.1-0.6,1.8-1.9,2.3-4c0.5-2.2,1.3-3.7,2.5-4.7c1.2-1,2.6-1.5,4.1-1.5
				c1.5,0,2.6,0,3.3-0.1c0.7-0.1,1.4-0.2,1.9-0.4c1-0.4,1.8-1.1,2.4-2.2c0-1.9,0-3.9,0-5.8c0-2.6-0.3-4.4-0.9-5.6
				c-0.6-1.1-1.5-1.6-2.8-1.5c-1.2,0.1-2.1,0.6-2.7,1.4c-0.6,0.8-0.9,1.8-0.9,3.1c0,1.9,0.6,2.8,1.8,2.7c-0.2,1.9-0.9,2.9-1.9,2.9
				c-0.3,0-0.6-0.1-0.9-0.2c0,0,0,0.1,0,0.1c0,0.6,0.2,1,0.5,1.2c-0.4,0.9-1,1.4-1.9,1.3c-0.9,0-1.6-0.8-2.1-2.2
				c-0.2,0.1-0.5,0.1-0.8,0.1c-0.3,0-0.6-0.1-1-0.4c-0.4-0.3-0.6-0.7-0.8-1.2c0.7-0.7,1.2-1.8,1.4-3.3c0.2-1.8,1.1-3.7,2.8-5.7
				c2-2.5,4.6-4,7.7-4.3c5.2-0.6,8.3,1.8,9.5,7.5c0.4,1.9,0.6,4.2,0.6,6.8c0,1.1,0,2.2,0,3.3c0,1.3,0.2,2.4,0.6,3.3
				c0.4,0.9,1,1.6,1.9,2.2c-0.9,0.8-1.6,1.4-1.8,2c-0.4,0.9-0.6,2-0.6,3.2c0,4.1,0,8.2,0,12.2c0.4,2.1,1.1,3.3,1.9,3.4
				c0.5,0.1,0.9-0.1,1.3-0.5c0.2,0.6,0.3,1.2,0.3,2c0,0.8-0.2,1.5-0.6,2.1c-0.4,0.6-1.1,0.9-1.9,0.7c-0.9-0.2-1.7-0.8-2.4-1.8
				c-0.6,0.7-1.2,1-1.7,0.9c-0.5-0.1-0.9-0.3-1.3-0.5c-0.4-0.3-0.7-0.6-1-1C985,199.4,984.6,198.1,984.4,196.6z M974.2,194
				c0.1-0.1,0.2-0.3,0.2-0.6c0-0.4-0.1-0.9-0.3-1.6c-0.7-2.3-1.1-4.2-1.1-5.6c0-1.4,0-2.4,0.1-3c0.1-0.6,0.2-1.1,0.3-1.6
				c0.1-0.4,0.2-0.8,0.4-1.1c0.1-0.3,0.3-0.6,0.4-0.9c0.2-0.5,0.3-0.9,0.3-1.1c0-0.2-0.1-0.4-0.2-0.5c-0.6,0.4-1.1,0.9-1.3,1.5
				c-0.5,1-0.9,2.4-1.1,4.1c-0.1,0.5-0.6,1-1.6,1.6c1,0.8,1.5,1.5,1.6,2C972.2,190.1,973.1,192.4,974.2,194z M977.6,186.4
				c0,1,0.1,2.1,0.2,3.1c0.1,1,0.3,1.9,0.6,2.7c0.6,1.7,1.4,2.6,2.5,2.8c0.8,0.2,1.5-0.3,2-1.3c0.5-1,0.8-2.5,0.8-4.2
				c0-4.2,0-8.4,0-12.6c-1,0.9-2.2,1.5-3.7,1.7C978.4,178.8,977.6,181.4,977.6,186.4z M985.8,190.2c0.9-0.5,1.3-3.3,1.4-8.6
				c0-1.1,0-2.4,0-3.8c0-1.4,0-2.7,0-3.7c0-1,0-2,0-2.9c-0.1-3.3-0.2-5.3-0.5-6c-0.3-0.6-0.6-1.1-0.8-1.3
				C985.8,172.8,985.8,181.5,985.8,190.2z"/>
			<path class="st6" d="M1002,203.4c-0.7,0.8-1.5,1.1-2.4,0.9c-0.9-0.2-1.5-0.7-1.9-1.6c-0.4-0.9-0.6-1.6-0.6-2.3
				c0-0.9,0.1-1.6,0.2-2c0.3,0.5,0.8,0.9,1.3,0.9c1,0.2,1.6-0.6,1.9-2.4c0-4.5,0-9,0-13.5c0-1.3-0.1-2.2-0.4-2.8
				c-0.4-0.9-1.2-1.9-2.3-3c1.1-0.9,1.7-1.6,2-2.1c0.5-0.9,0.7-2.1,0.7-3.5c0-2.1,0-4.2,0-6.3c0-2.4-0.4-3.8-1.3-3.9
				c-0.3,0-0.6-0.1-1,0c-0.4,0-0.8,0.3-1.1,0.8c-0.2-0.5-0.3-1.1-0.3-1.7c0-0.6,0.1-1.2,0.2-2c0.2-0.7,0.4-1.4,0.7-2.1
				c0.8-1.6,1.7-2.5,2.8-2.5c1-0.1,1.9,0.1,2.6,0.7c0.8-1.9,1.7-2.9,2.7-3c1.6-0.2,2.3,1.4,2.3,4.6c0,1.2,0,2.5,0,3.7
				c1.3-4.1,3-6.9,5.3-8.5c0.7-0.5,1.5-0.8,2.3-0.9c1.8-0.2,3.3,0.6,4.4,2.3c1.2,1.7,2,4.3,2.5,7.6c1.1-5,3-8.5,5.5-10.3
				c0.8-0.6,1.8-0.9,2.8-1c1.1-0.1,2,0.3,3,1.1c0.9,0.8,1.7,2.1,2.4,3.7c1.3,3.4,2,8.2,2,14.4c0,1.1,0,2.3-0.1,3.4
				c0,1.6,0.2,2.8,0.5,3.6c0.5,1.1,1.2,2.2,2.3,3.3c-1.2,1.2-1.9,2.2-2.1,2.9c-0.4,1-0.6,2.3-0.6,3.8c0,5.3,0,10.7,0,16
				c0.3,2.2,0.9,3.3,1.9,3.4c0.4,0,0.7-0.2,1-0.8c0.1,0.3,0.2,0.6,0.3,0.8c0.1,0.3,0.2,0.8,0.2,1.7c0,0.9-0.2,1.8-0.6,2.6
				c-0.4,0.9-1,1.3-1.9,1.2c-0.9-0.1-1.7-0.8-2.4-2c-0.7,1-1.4,1.4-2.3,1.3c-0.8-0.1-1.6-0.7-2.2-1.8c-0.6,0.9-1.3,1.3-2,1.2
				c-0.7-0.1-1.3-0.6-1.8-1.5c-0.4-0.9-0.7-2.1-0.7-3.7c0-0.7,0.1-1.3,0.3-1.7c0.3,0.6,0.7,1,1,1c0.7,0.1,1.1-0.7,1.4-2.3
				c0-9.9,0-19.9,0-29.8c0-7.8-1.3-11.7-3.9-11.6c-0.7,0-1.5,1-2.2,2.9c-0.7,1.8-1.2,4-1.4,6.6c0,10.3,0,20.6-0.1,30.9
				c0.3,1.6,0.8,2.5,1.4,2.6c0.3,0,0.7-0.2,1-0.7c0.2,0.5,0.3,1.2,0.3,2.4c0,1.1-0.2,2.1-0.7,2.8c-0.4,0.7-1,1.1-1.8,0.9
				c-0.7-0.1-1.4-0.7-2-1.8c-0.7,0.9-1.4,1.2-2.2,1.1c-0.8-0.1-1.6-0.7-2.2-1.8c-0.6,0.8-1.2,1.2-2,1.1c-0.7-0.1-1.3-0.6-1.8-1.5
				c-0.4-0.8-0.7-2-0.7-3.4c0-0.7,0.1-1.2,0.3-1.6c0.3,0.6,0.7,0.9,1,1c0.7,0.1,1.1-0.6,1.4-2.1c0-9.3,0-18.6,0-27.9
				c0-5.8-0.7-9.3-2.1-10.3c-0.4-0.4-0.9-0.5-1.4-0.5c-1,0-1.9,1-2.6,2.8c-0.7,1.7-1.1,3.7-1.3,6.2c0,9.6,0,19.1,0,28.7
				c0.3,1.5,0.8,2.3,1.4,2.4c0.3,0.1,0.7-0.2,1-0.7c0.3,0.5,0.4,1.3,0.4,2.3c0,1-0.2,1.9-0.7,2.6c-0.5,0.7-1.1,0.9-1.8,0.8
				c-0.7-0.1-1.4-0.7-2-1.7c-0.6,0.8-1.3,1-2.1,0.9C1003.5,205.1,1002.7,204.5,1002,203.4z M1002.7,192.5c0.7-0.8,1.1-2.6,1.2-5.4
				c0.1-2.1,0.1-4,0.1-5.7c0-1.9,0-3.7,0-5.6c0-4.3-0.1-7.1-0.2-8.4c-0.2-2.1-0.6-3.5-1.1-4.1c0,0.9,0,1.9,0,2.8
				c0,4.9-0.1,7.8-0.2,8.7c-0.1,0.9-0.3,1.5-0.5,1.9c-0.2,0.4-0.6,0.8-1.1,1.1c0.9,0.6,1.4,1.4,1.5,2.3c0.2,1.4,0.3,4.6,0.3,9.5
				C1002.7,190.6,1002.7,191.5,1002.7,192.5z M1017.1,162.8c0.5,2.3,0.7,6.8,0.7,13.5c0,6,0,12,0,18c0.8-0.5,1.2-2.5,1.2-6.1
				c0.1-3.5,0.1-6.7,0.1-9.4c0-2.7,0-5-0.1-6.9c-0.1-1.8-0.2-3.4-0.4-4.6C1018.4,165.1,1017.8,163.6,1017.1,162.8z M1032.2,162.4
				c0.5,2.4,0.7,7.2,0.7,14.3c0,6.4,0,12.8,0,19.2c0.8-0.6,1.2-2.7,1.3-6.5c0.1-3.8,0.1-7.1,0.1-10c0-2.9,0-5.4-0.1-7.3
				c-0.1-2-0.2-3.6-0.4-4.9C1033.5,164.8,1032.9,163.2,1032.2,162.4z"/>
			<path class="st6" d="M1063.9,196.5c0.3-1.5,1-2.3,1.8-2.2c0.6,0,1.1,0.7,1.4,1.9c0.3,1,0.4,2.2,0.4,3.6c0,1.4-0.1,2.8-0.4,4.2
				c-0.3,1.4-0.7,2.6-1.2,3.8c-0.5,1.1-1.1,2.1-1.7,2.9c-0.6,0.8-1.3,1.5-2.1,2c-1.5,1.1-3.1,1.5-4.7,1.3c-1.6-0.2-3.2-1-4.6-2.5
				c-1.4-1.4-2.6-3.4-3.7-5.8c-2-4.7-3.2-10.9-3.6-18.7c-0.1-1.7-0.3-3-0.5-3.7c-0.5-1.3-1.2-2.6-2.3-3.8c1.3-1.3,2.2-3.5,2.5-6.5
				c0.1-0.8,0.2-1.7,0.2-2.5c0.4-6.2,1.7-11.5,4.1-16c2.2-4.4,4.8-6.7,7.5-6.9c2.9-0.2,5.4,2.1,7.5,7c2.2,5,3.3,11.4,3.3,18.9
				c0,0.3,0,0.5,0,0.8c0,0.3,0,0.5,0,0.7c0,0.5,0.2,0.8,0.4,0.8c0.3,0.9,0.4,1.8,0.4,2.8c0,2.2-0.5,3.6-1.5,3.9
				c-0.2,0.1-0.6,0.2-1.1,0.4c-4.3,1.5-8.6,3-12.9,4.4c0,1.7,0,3.5,0,5.2c0,4.2,0.5,7.5,1.6,10.1c1,2.4,2.3,3.8,3.8,3.9
				c1.6,0.2,2.9-0.5,3.9-2.1c0.9-1.5,1.4-3.5,1.4-6C1064,197.9,1064,197.3,1063.9,196.5z M1049.6,197.5c0.2-0.4,0.3-0.8,0.3-1.3
				c0-0.8-0.1-1.8-0.2-3c-0.6-5.6-0.9-9.5-0.9-11.7c0-2.2,0-3.9,0.1-5.1c0.1-1.2,0.1-2.5,0.3-3.7c0.2-2.4,0.4-4.6,0.6-6.4
				c0.1-1.2,0.2-2,0.2-2.5c0-0.9-0.1-1.5-0.3-1.9c-0.6,1.8-1.1,4.2-1.5,7.2c-0.3,3-0.6,5.6-0.8,7.8c-0.1,1-0.5,1.9-1.3,2.7
				c0.8,0.9,1.3,1.8,1.3,2.7c0.6,6,1,9.8,1.4,11.5C1049.1,195.5,1049.4,196.7,1049.6,197.5z M1059.9,178.5c0-5.1,0-10.3,0-15.4
				c0-2.4-0.2-4.2-0.6-5.3c-0.7-1.9-1.4-2.9-2.1-2.8c-0.7,0-1.3,0.3-1.7,0.8c-0.5,0.5-0.9,1.3-1.2,2.3c-0.7,2.2-1,5.7-1,10.3
				c0,4.2,0,8.3,0,12.5C1055.5,180.1,1057.7,179.3,1059.9,178.5z M1063.3,177.2c0-0.6,0-1.1,0-1.7c0-6.9-0.2-11-0.7-12.5
				c-0.2-0.6-0.5-1.1-0.7-1.4c0,5.4,0,10.7,0,16.1C1062.4,177.5,1062.8,177.3,1063.3,177.2z"/>
			<path class="st6" d="M1076.4,213.2c-1,2.4-2,3.5-3,3.4c-0.5-0.1-0.9-0.6-1.1-1.6c0.4-0.8,0.5-1.7,0.5-2.6c0-0.9-0.1-1.5-0.2-2
				c-0.1-0.4-0.2-0.9-0.3-1.3c0.1,0.6,0.2,1.2,0.4,1.7c-0.4-0.4-0.6-1.2-0.8-2.2c-0.2-1-0.3-2.2-0.3-3.6s0.3-3,1-4.8
				c-0.3-1.1-0.5-2.3-0.5-3.5c0-1.3,0.1-2.3,0.3-3.2c0.2-0.8,0.4-1.6,0.7-2.3c0.6-1.4,1.3-2.1,1.9-2.1c0.5,0,0.8,0.4,1,1.2
				c-0.4,1.1-0.6,2.8-0.6,5.2c0,2.4,0.2,4.4,0.5,6.1c0.3,1.7,0.8,3.2,1.3,4.4c1.2,2.6,2.7,4,4.4,4.1c1.9,0.1,3.3-1.6,4-5.1
				c0.2-1.1,0.3-2.2,0.3-3.3c0-1.1-0.1-2.1-0.3-3c-0.2-0.9-0.5-1.7-0.8-2.6c-0.5-1.3-1.4-2.9-2.4-4.6c-1.1-1.9-2.3-2.9-3.7-3
				c-0.9,0-1.6,0.1-1.9,0.5c0.2-1.1,0.3-2.3,0.3-3.4c0-1.1-0.3-2.4-0.9-3.8c-0.6-1.4-1.2-2.7-1.6-4.1c-0.5-1.4-0.9-2.7-1.2-4.1
				c-0.6-2.6-0.9-5.3-0.9-8.2c0-2.9,0.2-5.4,0.7-7.6c0.5-2.2,1.2-4.2,2-5.8c1.8-3.4,4.1-5.3,7-5.4c1.4-0.1,2.3,0.1,2.8,0.3
				c0.5,0.3,0.9,0.6,1.2,0.8c0.4,0.4,0.9,0.5,1.5,0.5c0.6,0,1-0.4,1.2-1c0.2-0.7,0.4-1.3,0.4-1.9c0-0.6,0-1-0.1-1.3
				c0.1-0.1,0.2-0.1,0.4-0.1c0.2,0,0.4,0.1,0.6,0.4c0.2,0.3,0.4,0.6,0.6,1.1c0.4,1,0.6,2.2,0.5,3.4c0,1.2-0.1,2.1-0.3,2.7
				c0.4,1,0.6,2.4,0.6,4.3c0,1.9-0.3,3.5-0.9,4.8c0.1,0.7,0.2,1.6,0.2,2.6c0,1-0.2,2-0.6,2.9c-0.4,0.9-0.8,1.4-1.2,1.4
				c-0.7,0-1.1-0.2-1.3-0.6c0.2-1.2,0.3-2.6,0.3-4.1c0-1.5-0.2-2.9-0.5-4.2c-0.3-1.3-0.7-2.4-1.2-3.2c-0.9-1.5-1.9-2.3-3.2-2.2
				c-1.5,0-2.6,1.3-3.1,3.8c-0.2,0.8-0.3,1.6-0.3,2.5c0,0.9,0,1.7,0.1,2.5c0.1,0.7,0.3,1.5,0.5,2.3c0.4,1.5,1.1,2.9,1.9,4.3
				c1.1,1.7,1.8,2.6,2.2,2.6c0.9,0,1.7-0.5,2.3-1.6c-0.2,1.9-0.3,3.2-0.3,3.9c0,1.1,0.4,2.4,1.1,3.9c2,3.5,3.3,6.7,4,9.6
				c0.7,2.8,1,6,1,9.4c0,3.5-0.3,6.4-0.9,8.8c-0.6,2.4-1.4,4.5-2.4,6.2c-2.1,3.5-4.7,5.1-7.7,4.8
				C1080,216.3,1078.1,215.2,1076.4,213.2z M1075.6,160.8c-0.4,0.5-0.7,2-0.7,4.4c0,2.4,0.3,4.7,0.9,6.9c0.6,2.2,1.6,4.7,3,7.5
				c0.3,0.6,0.5,1.2,0.5,1.8c0,0.9,0,1.6-0.1,2.1c0.2-0.1,0.5-0.2,1-0.3c1.1-0.2,2.5,1.1,4.1,4c2.6,4.2,3.9,8.6,3.9,13.1
				c0,1.7-0.1,3-0.3,3.8c0.5-0.2,1-1.4,1.3-3.5c0.1-0.6,0.1-1.3,0.1-1.9c0-3.2-0.7-6.4-2-9.7c-1.3-3.3-3.3-6.5-5.8-9.5
				C1077.5,174.2,1075.5,168,1075.6,160.8z"/>
			<path class="st6" d="M1110.4,201c-0.6-3.5-0.9-6.6-1-9.1c-0.1-2.5-0.2-4.2-0.3-4.9c-0.1-0.7-0.2-1.4-0.4-2
				c-0.4-1.3-1.1-2.7-2.2-4c1.3-1.5,2.2-4,2.5-7.5c0.1-1,0.2-1.9,0.3-2.9c0.4-7.2,1.7-13.2,4-18.1c2.2-4.9,4.9-7.4,7.9-7.4
				c3.1-0.1,5.8,2.4,8,7.3c2.2,4.8,3.5,10.9,3.9,18.2c0.1,2.6,0.3,4.4,0.6,5.6c0.5,2.2,1.2,3.8,2.2,5c-1,1.3-1.7,2.5-2,3.5
				c-0.4,1.4-0.7,3.1-0.8,5.1c-0.5,9.6-1.7,16.9-3.8,21.8c-2,4.9-4.7,7.4-8.1,7.3c-3.6-0.1-6.4-3-8.5-8.6
				C1111.8,207.6,1111,204.6,1110.4,201z M1113.5,201c0.2-0.4,0.3-0.9,0.3-1.5c0-0.9-0.1-2-0.2-3.4c-0.6-6.3-0.9-10.7-0.9-13.2
				c0-2.5,0-4.4,0.1-5.8c0.1-1.4,0.1-2.8,0.2-4.2c0.2-2.7,0.4-5.1,0.6-7.2c0.1-1.4,0.2-2.3,0.2-2.8c0-1-0.1-1.7-0.3-2.1
				c-0.6,2-1.1,4.7-1.5,8.1c-0.3,3.4-0.6,6.3-0.8,8.9c-0.1,1.1-0.5,2.1-1.4,3.1c0.8,1,1.3,2,1.4,3c0.6,6.8,1,11.1,1.4,13
				C1113,198.8,1113.3,200.2,1113.5,201z M1121.2,153.6c-2.6,0-3.9,5.1-3.9,15.2c0,8.9,0,17.9,0,26.8c0,9.7,1.3,14.6,3.9,14.6
				c2.6,0.1,3.9-4.8,3.9-14.5c0-9,0-18,0-27C1125.1,158.7,1123.8,153.6,1121.2,153.6z M1127.3,201.3c0.8-0.8,1.2-3.4,1.3-8
				c0.1-4.5,0.1-7.9,0.1-10.1c0-2.2,0-4.1,0-5.5c0-1.5,0-3,0-4.6c-0.1-5.9-0.2-9.4-0.5-10.4c-0.3-1-0.6-1.6-0.8-1.9
				C1127.3,174.3,1127.3,187.8,1127.3,201.3z"/>
			<path class="st6" d="M1143.4,216.9c-0.7,1.3-1.5,2-2.4,1.9c-0.9,0-1.6-0.5-2-1.6c-0.4-1.1-0.7-2.1-0.7-3.1c0-1.3,0.1-2.4,0.3-3.2
				c0.3,0.7,0.8,1,1.3,1c0.9,0,1.5-1.4,1.9-4.1c0-6.3,0-12.6,0-18.8c0-1.8-0.1-3.1-0.4-3.9c-0.4-1.2-1.2-2.6-2.4-4.1
				c1.1-1.3,1.8-2.4,2.1-3.2c0.5-1.3,0.7-3,0.7-5c0-11.5,0-23,0-34.6c0-4.6-0.7-7-2.1-7c-0.5,0-0.9,0.4-1.3,1
				c-0.2-0.8-0.3-1.6-0.3-2.4c0-0.8,0.1-1.6,0.2-2.4c0.2-0.8,0.4-1.5,0.7-2.1c0.7-1.4,1.6-2.1,2.7-2.1c1.1,0,2,0.2,2.6,0.5
				c0.8-2.8,1.8-4.2,2.8-4.2c1.5,0,2.3,2.2,2.3,6.6c0,15.5,0,31.1,0,46.6c0,2,0.2,3.4,0.5,4.2c0.5,1.3,1.2,2.6,2.3,3.9
				c-1.1,1.5-1.9,2.7-2.2,3.4c-0.4,1.3-0.6,2.8-0.6,4.6c0,6.3,0,12.6,0,18.8c0.4,2.7,1,4.1,1.9,4.1c0.5,0,0.9-0.4,1.3-1.1
				c0.2,0.8,0.3,1.7,0.3,2.9c0,1.2-0.2,2.3-0.7,3.3c-0.4,1.1-1.1,1.6-2,1.6c-0.9,0-1.7-0.6-2.4-1.9c-0.6,1.3-1.4,2-2.2,2
				C1144.9,218.9,1144.1,218.3,1143.4,216.9z M1144.1,201.4c0.7-1.2,1.1-3.8,1.2-7.8c0-1.8,0.1-3.7,0.1-5.9c0-2.2,0-3.7,0-4.6
				c0-0.9,0-1.6,0-2c0-1.8,0-3.7,0-5.5c0-1.5,0-3.2,0-5.1c0-2,0-4,0-6c0-10.8-0.1-16.8-0.2-18c-0.2-2.6-0.6-4.3-1.1-5.2
				c0,6.9,0,13.7,0,20.6c0,8.4,0,13.1-0.1,14.1c-0.1,1-0.1,1.7-0.2,2.1c-0.1,1.3-0.7,2.3-1.6,3.1c0.9,0.9,1.4,1.9,1.6,3.1
				c0.2,2,0.3,6.4,0.3,13.2C1144.1,198.8,1144.1,200.1,1144.1,201.4z"/>
			<path class="st6" d="M1177.3,218.2c-1.6,0.1-2.8-2.1-3.6-6.5c-1.1,3.3-2.5,5.6-4.4,6.7c-0.5,0.3-1.1,0.5-1.6,0.5
				c-3.2,0.1-5.7-2.5-7.5-7.9c-1.6-5-2.5-12-2.7-21.2c0-1.8-0.2-3.2-0.5-4.1c-0.5-1.5-1.2-3-2.3-4.5c1.8-2.2,2.7-5.6,2.8-10.1
				c0.1-4.6,0.4-8.5,0.9-11.7c0.5-3.2,1.2-5.9,2.1-7.9c1.7-3.9,4.1-5.8,7.1-5.8c1.7,0,3.1,1.2,4.3,3.5c0.4,0.8,0.8,1.7,1.1,2.7
				c0-4.3,0-8.7,0-13c0-4.6-0.7-6.9-2.1-7c-0.5,0-0.9,0.3-1.3,1c-0.2-0.8-0.3-1.6-0.3-2.4c0-0.8,0.1-1.6,0.2-2.4
				c0.2-0.8,0.4-1.5,0.7-2.1c0.7-1.4,1.6-2,2.7-2c1.1,0,2,0.3,2.6,0.6c0.8-2.7,1.8-4.1,2.8-4c1.6,0.1,2.4,2.3,2.4,6.6
				c0,15.3,0,30.6,0,45.8c0,3,0.9,5.7,2.8,7.9c-1.9,2.2-2.8,4.9-2.8,7.9c0,6,0,12,0,18c0.4,3,1.1,4.5,1.9,4.4c0.5,0,0.9-0.4,1.3-1.1
				c0.2,0.7,0.3,1.7,0.3,2.8c0,1.1-0.2,2.2-0.7,3.3c-0.4,1.1-1.1,1.6-2,1.7c-0.9,0-1.7-0.6-2.4-1.8
				C1178.6,217.5,1177.9,218.2,1177.3,218.2z M1161.5,201.3c0.2-0.4,0.3-1,0.3-1.5c0-0.9-0.1-2-0.2-3.4c-0.6-6.4-0.9-10.8-0.9-13.2
				c0-2.5,0-4.4,0.1-5.8c0.1-1.4,0.1-2.8,0.3-4.2c0.2-2.9,0.4-5.4,0.6-7.4c0.1-1.4,0.2-2.3,0.2-2.8c0-1-0.1-1.7-0.3-2.1
				c-0.6,2-1.1,4.8-1.5,8.2c-0.3,3.5-0.6,6.5-0.8,9.1c-0.1,1.1-0.5,2.1-1.4,3.1c0.8,1,1.3,2,1.4,3.1c0.6,6.9,1,11.2,1.4,13
				C1161,199.2,1161.3,200.5,1161.5,201.3z M1168.9,154.5c-2.4,0-3.7,4.7-3.7,14.3c0,8.9,0,17.8,0,26.6c0,7.4,0.9,12,2.8,13.7
				c0.5,0.5,1,0.8,1.5,0.7c0.5,0,1-0.3,1.4-0.9c0.4-0.6,0.8-1.3,1.1-2.2c0.7-2,1-4.4,1-7.1c0-10.3,0-20.7,0-31
				c0-7.4-0.9-11.9-2.6-13.5C1170,154.8,1169.5,154.5,1168.9,154.5z M1175.2,201.1c0.8-0.8,1.2-3.2,1.2-7.2c0-0.9,0-2.1,0-3.4
				c0-1.3,0-2.8,0-4.5c0-1.6,0-3.3,0-5c0-1.6,0-3.2,0-4.8c0-1.6,0-2.9,0-4.1c0-1.2,0-2.1,0-2.8c0-0.3,0-0.6,0-0.9c0-0.1,0-0.7,0-1.7
				c0-1,0-2.3,0-3.8c0-1.5,0-3.1,0-4.9c0-1.7,0-3.4,0-5.1c0-3.7-0.1-6.1-0.2-7.1c-0.1-2-0.5-3.4-1.1-4.2
				C1175.2,161.4,1175.2,181.2,1175.2,201.1z"/>
			<path class="st6" d="M1203.2,214c-1,2.6-2,4-3,4c-0.5,0-0.9-0.4-1.1-1.4c0.4-0.9,0.5-1.8,0.5-2.7c0-0.9-0.1-1.6-0.2-2
				c-0.1-0.4-0.2-0.9-0.3-1.3c0.1,0.6,0.2,1.2,0.4,1.7c-0.4-0.4-0.6-1.1-0.8-2.1c-0.2-1-0.3-2.2-0.3-3.7c0-1.5,0.3-3.2,1-5.1
				c-0.3-1.1-0.5-2.3-0.5-3.6c0-1.3,0.1-2.4,0.3-3.3c0.2-0.9,0.4-1.7,0.7-2.4c0.6-1.5,1.3-2.3,1.9-2.3c0.5,0,0.8,0.4,1,1.2
				c-0.4,1.1-0.6,2.9-0.6,5.4c0,2.4,0.2,4.5,0.5,6.2c0.3,1.7,0.8,3.1,1.3,4.3c1.2,2.5,2.7,3.7,4.4,3.5c1.9-0.1,3.3-2,4-5.6
				c0.2-1.1,0.3-2.2,0.3-3.3c0-1.1-0.1-2.1-0.3-2.9c-0.2-0.8-0.5-1.7-0.8-2.5c-0.5-1.3-1.3-2.7-2.4-4.4c-1.1-1.8-2.3-2.7-3.7-2.7
				c-0.9,0-1.6,0.2-1.9,0.6c0.2-1.2,0.3-2.3,0.3-3.5c0-1.2-0.3-2.4-0.9-3.8c-0.6-1.4-1.2-2.7-1.6-4.1c-0.5-1.4-0.9-2.8-1.2-4.2
				c-0.6-2.7-0.9-5.5-0.9-8.4c0-3,0.2-5.6,0.7-7.9c0.5-2.3,1.2-4.2,2-5.8c1.8-3.4,4.1-5,7-4.9c1.4,0.1,2.3,0.3,2.8,0.6
				c0.5,0.3,0.9,0.6,1.2,0.9c0.4,0.4,0.9,0.6,1.5,0.6c0.6,0,1-0.3,1.2-0.9c0.2-0.6,0.4-1.2,0.4-1.8c0-0.5,0-1-0.1-1.3
				c0.1-0.1,0.2-0.1,0.4-0.1c0.2,0,0.4,0.2,0.6,0.4c0.2,0.3,0.4,0.6,0.6,1.1c0.4,1,0.5,2.1,0.5,3.3c0,1.2-0.1,2-0.3,2.6
				c0.4,1,0.6,2.4,0.6,4.2c0,1.8-0.3,3.3-0.9,4.6c0.1,0.7,0.2,1.5,0.2,2.5c0,1-0.2,1.9-0.6,2.8c-0.4,0.9-0.8,1.4-1.2,1.4
				c-0.7,0-1.1-0.2-1.3-0.6c0.2-1.2,0.3-2.5,0.3-4c0-1.4-0.2-2.8-0.5-4.1c-0.3-1.3-0.7-2.4-1.2-3.2c-0.9-1.5-1.9-2.4-3.2-2.4
				c-1.5,0-2.6,1.2-3.1,3.6c-0.2,0.8-0.3,1.6-0.3,2.5c0,0.9,0,1.7,0.1,2.5c0.1,0.8,0.3,1.5,0.5,2.3c0.4,1.5,1.1,2.9,1.9,4.3
				c1.1,1.7,1.8,2.6,2.2,2.6c0.9,0,1.7-0.5,2.3-1.6c-0.2,1.8-0.3,3.1-0.3,3.8c0,1.1,0.4,2.4,1.1,3.8c2,3.4,3.3,6.4,4,9.1
				c0.7,2.7,1,5.7,1,9c0,3.3-0.3,6.2-0.9,8.6c-0.6,2.4-1.4,4.5-2.4,6.3c-2.1,3.7-4.7,5.7-7.7,6
				C1206.8,216.6,1204.9,215.8,1203.2,214z M1202.4,160.6c-0.4,0.5-0.7,2-0.7,4.5c0,2.5,0.3,4.8,0.9,7.1c0.6,2.2,1.6,4.7,3,7.5
				c0.3,0.6,0.5,1.2,0.5,1.8c0,0.9,0,1.6-0.1,2.1c0.2-0.1,0.5-0.2,1-0.4c1.1-0.3,2.5,1,4.1,3.8c2.6,4,3.9,8.1,3.9,12.6
				c0,1.7-0.1,2.9-0.3,3.8c0.5-0.3,1-1.5,1.3-3.6c0.1-0.6,0.1-1.2,0.1-1.9c0-3.1-0.7-6.1-2-9.3c-1.3-3.1-3.2-6.2-5.7-9.1
				C1204.3,174.4,1202.3,168,1202.4,160.6z"/>
			<path class="st6" d="M1241.9,195.4c0.3-1.5,0.9-2.3,1.8-2.4c0.6,0,1.1,0.5,1.4,1.6c0.3,0.9,0.4,2,0.4,3.3c0,1.3-0.1,2.6-0.4,4
				c-0.3,1.4-0.7,2.6-1.1,3.8c-0.5,1.1-1,2.2-1.6,3.1c-0.6,0.9-1.3,1.7-2,2.4c-1.4,1.4-2.9,2.1-4.4,2.3c-1.5,0.2-3-0.3-4.4-1.4
				c-1.4-1.1-2.5-2.8-3.5-5.1c-2-4.6-3.2-10.9-3.6-19c-0.1-1.8-0.3-3.1-0.5-3.9c-0.5-1.4-1.2-2.7-2.3-3.9c1.6-1.8,2.5-5.1,2.8-9.7
				c0.4-7.1,1.7-12.7,3.9-16.7c2.1-3.9,4.7-5.7,7.7-5.5c2.6,0.2,4.8,2.2,6.6,5.9c1.7,3.5,2.5,7.5,2.5,12.1c0,2.6,0.4,4.2,1.2,4.9
				c-0.5,1.7-1.1,2.6-1.9,2.6c-0.3,0-0.6-0.1-0.8-0.2c-0.5,1.8-1.3,3-2.3,3.7c-0.3,0.2-0.6,0.3-0.9,0.3c-0.3,0-0.6-0.1-1-0.4
				c-0.4-0.3-0.7-0.6-0.8-1.1c0.4-0.4,0.7-1.5,0.8-3.2c-0.1,0-0.2,0.1-0.3,0.1c-0.1,0-0.1,0-0.2,0c-1,0-1.7-1.4-1.9-4.2
				c1.1,0,1.9-1,2.5-3c0.2-0.7,0.3-1.6,0.3-2.6c0-2.3-0.3-4.1-0.9-5.4c-0.6-1.3-1.5-2-2.6-2.1c-2.6-0.1-3.9,3.8-3.9,11.8
				c0,8.9,0,17.7,0,26.6c0,6.2,1,10,3,11.5c0.6,0.4,1.2,0.6,2,0.6c0.7-0.1,1.4-0.4,2-0.9c0.6-0.5,1.1-1.1,1.5-1.9
				c0.8-1.6,1.3-3.6,1.3-5.9C1242,196.6,1241.9,195.9,1241.9,195.4z M1228.5,198.4c0.2-0.4,0.3-0.9,0.3-1.4c0-0.8-0.1-1.8-0.2-3.1
				c-0.6-5.7-0.9-9.8-0.9-12c0-2.3,0-4,0.1-5.3c0.1-1.3,0.1-2.6,0.3-3.8c0.2-2.5,0.4-4.7,0.6-6.6c0.1-1.2,0.2-2.1,0.2-2.5
				c0-0.9-0.1-1.5-0.3-1.9c-0.6,1.8-1.1,4.3-1.5,7.4c-0.3,3.1-0.6,5.8-0.8,8.2c-0.1,1-0.5,1.9-1.3,2.9c0.8,0.9,1.3,1.8,1.3,2.8
				c0.6,6.2,1,10.2,1.4,11.9C1228,196.4,1228.2,197.6,1228.5,198.4z"/>
			<path class="st6" d="M1252.7,209.3c-0.7,1.2-1.5,1.9-2.4,2c-0.9,0.1-1.5-0.2-2-1.1c-0.4-0.8-0.6-1.7-0.6-2.5
				c0-1.1,0.1-2.1,0.3-2.7c0.3,0.6,0.8,0.8,1.3,0.7c0.9-0.1,1.5-1.3,1.9-3.7c0-5.3,0-10.6,0-15.9c0-1.7-0.1-2.9-0.4-3.5
				c-0.3-0.8-1.1-1.9-2.3-3.2c1.1-1.1,1.7-2,2-2.7c0.5-1.1,0.8-2.5,0.8-4.2c0-9.7,0-19.4,0-29.2c0-3.9-0.7-6-2.1-6.1
				c-0.5-0.1-0.9,0.2-1.3,0.7c-0.2-0.7-0.3-1.4-0.3-2.1c0-0.7,0.1-1.4,0.2-2c0.2-0.6,0.4-1.2,0.7-1.7c0.7-1.1,1.6-1.5,2.7-1.4
				c1.1,0.2,1.9,0.4,2.5,0.8c0.8-2.2,1.8-3.2,2.8-3.1c1.6,0.3,2.3,2.2,2.3,5.8c0,8.2,0,16.5,0,24.7c1.5-6,3.9-8.8,7.2-8.5
				c3.8,0.3,6.2,4.1,7.3,11.1c0.3,2.2,0.5,4.8,0.5,7.6c0,1,0,2.1,0,3.1c0,1.5,0.2,2.5,0.5,3.2c0.5,1,1.2,1.9,2.3,2.9
				c-1.1,1.2-1.9,2.1-2.1,2.8c-0.4,1-0.6,2.2-0.6,3.6c0,4.9,0,9.8,0,14.7c0.3,1.9,0.9,2.8,1.9,2.6c0.5-0.1,0.9-0.4,1.3-1
				c0.2,0.4,0.3,1.1,0.2,2c0,0.9-0.2,1.8-0.6,2.7c-0.4,0.9-1,1.5-1.9,1.6c-0.9,0.2-1.7-0.2-2.4-1.1c-0.7,1.1-1.4,1.8-2.3,1.9
				c-0.9,0.1-1.6-0.2-2.2-1.1c-0.6,1.1-1.3,1.7-2,1.8c-0.7,0.1-1.3-0.2-1.8-0.9c-0.4-0.7-0.7-1.9-0.7-3.4c0-0.7,0.1-1.3,0.3-1.8
				c0.3,0.5,0.7,0.8,1,0.7c0.7-0.1,1.1-1,1.4-2.6c0-9.6,0-19.3,0-28.9c0-6.3-0.7-10-2.2-11c-0.5-0.3-0.9-0.5-1.5-0.5
				c-1.6-0.1-2.7,1.7-3.3,5.4c-0.2,1.1-0.3,2.4-0.4,3.7c0,10.8,0,21.6,0,32.4c0.3,1.6,0.8,2.4,1.4,2.3c0.3,0,0.7-0.4,1-1
				c0.2,0.4,0.3,1.2,0.3,2.3c0,1.1-0.2,2.2-0.7,3c-0.4,0.9-1,1.4-1.8,1.5c-0.7,0.1-1.4-0.3-2-1.2c-0.6,1.1-1.4,1.7-2.2,1.8
				C1254.2,210.7,1253.4,210.3,1252.7,209.3z M1253.3,196.2c0.7-1.1,1.1-3.2,1.2-6.6c0-1.5,0.1-3.1,0.1-4.9c0-1.8,0-3.1,0-3.8
				c0-0.8,0-1.3,0-1.7c0-1.5,0-3.1,0-4.6c0-1.3,0-2.7,0-4.3c0-1.7,0-3.3,0-5c0-9-0.1-14-0.2-15c-0.2-2.2-0.6-3.6-1.1-4.4
				c0,5.7,0,11.5,0,17.2c0,7.1,0,11-0.1,11.8c-0.1,0.8-0.1,1.4-0.2,1.8c-0.1,1.1-0.7,1.9-1.5,2.7c0.9,0.7,1.4,1.5,1.5,2.5
				c0.2,1.6,0.3,5.3,0.3,11C1253.3,194,1253.3,195.1,1253.3,196.2z M1268.3,194.7c0.8-0.7,1.2-2.8,1.3-6.4c0.1-3.6,0.1-6.9,0.1-9.8
				c0-3,0-5.4-0.1-7.3c-0.1-1.9-0.2-3.4-0.4-4.5c-0.2-1.1-0.5-1.9-0.8-2.5c-0.3-0.6-0.7-1.1-1.2-1.6c0.6,2.9,0.9,5.6,1,7.9
				c0.1,2.4,0.1,4.7,0.1,6.9C1268.3,183.2,1268.3,189,1268.3,194.7z"/>
			<path class="st6" d="M1282.7,193.1c-0.6-2.6-0.9-4.8-1-6.7c-0.1-1.9-0.2-3.1-0.3-3.6c-0.1-0.5-0.2-1-0.4-1.5
				c-0.4-1-1.1-1.9-2.1-2.9c1.3-1.2,2.1-3.2,2.5-5.8c0.1-0.7,0.2-1.4,0.2-2.2c0.4-5.4,1.7-9.9,3.9-13.2c2.2-3.4,4.8-4.8,7.7-4.5
				c3.1,0.3,5.7,2.3,7.9,5.8c2.1,3.4,3.4,7.3,3.8,12c0.1,1.6,0.3,2.8,0.6,3.6c0.5,1.4,1.2,2.4,2.1,3c-1,0.9-1.7,1.7-2,2.4
				c-0.4,0.9-0.7,2-0.8,3.3c-0.5,6.2-1.7,11.1-3.7,14.7c-2,3.6-4.6,5.9-7.9,6.6c-3.5,0.7-6.3-0.7-8.4-4.4
				C1284,197.8,1283.2,195.7,1282.7,193.1z M1285.7,192.7c0.2-0.3,0.3-0.7,0.3-1.1c0-0.6-0.1-1.5-0.2-2.4c-0.6-4.6-0.9-7.8-0.9-9.6
				c0-1.8,0-3.2,0.1-4.3c0.1-1,0.1-2,0.2-3.1c0.2-2,0.4-3.8,0.6-5.3c0.1-1,0.2-1.7,0.2-2c0-0.7-0.1-1.2-0.3-1.6
				c-0.6,1.4-1.1,3.4-1.4,5.9c-0.3,2.5-0.6,4.7-0.8,6.6c-0.1,0.8-0.5,1.6-1.3,2.4c0.8,0.7,1.3,1.4,1.3,2.2c0.6,5,1,8.1,1.4,9.5
				C1285.2,191.1,1285.5,192.1,1285.7,192.7z M1293.3,158.6c-2.6-0.2-3.8,3.3-3.8,10.5c0,6.4,0,12.8,0,19.1c0,6.9,1.3,10.2,3.8,9.7
				c2.6-0.5,3.9-4,3.9-10.6c0-6.1,0-12.2,0-18.3C1297.1,162.3,1295.8,158.8,1293.3,158.6z M1299.3,190.9c0.8-0.6,1.2-2.4,1.2-5.5
				c0.1-3,0.1-5.3,0.1-6.7c0-1.5,0-2.7,0-3.7c0-1,0-2,0-3c-0.1-3.9-0.2-6.2-0.5-6.9c-0.3-0.7-0.6-1.1-0.8-1.3
				C1299.3,172.9,1299.3,181.9,1299.3,190.9z"/>
			<path class="st6" d="M1313.7,188.8c-0.5-2.1-0.9-3.9-1-5.4c-0.1-1.5-0.2-2.5-0.3-3c-0.1-0.4-0.2-0.8-0.4-1.2
				c-0.4-0.8-1.1-1.6-2.1-2.4c1.3-1.1,2.1-2.6,2.5-4.8c0.1-0.6,0.2-1.2,0.2-1.8c0.4-4.4,1.7-8,3.9-10.7c2.2-2.7,4.8-3.7,7.7-3.3
				c3,0.4,5.7,2.1,7.8,4.8c2.1,2.7,3.4,5.7,3.8,9.2c0.1,1.2,0.3,2.1,0.6,2.7c0.5,1,1.2,1.8,2.1,2.2c-1,0.7-1.7,1.3-2,1.8
				c-0.4,0.7-0.7,1.6-0.8,2.5c-0.5,4.7-1.7,8.5-3.7,11.4c-2,3-4.6,5-7.9,5.8c-3.5,0.9-6.3,0-8.3-2.9
				C1314.9,192.6,1314.2,190.9,1313.7,188.8z M1316.7,188.3c0.2-0.3,0.3-0.6,0.3-0.9c0-0.5-0.1-1.2-0.2-2c-0.6-3.7-0.9-6.3-0.9-7.7
				c0-1.5,0-2.6,0.1-3.4c0.1-0.8,0.1-1.7,0.2-2.5c0.2-1.6,0.4-3.1,0.6-4.3c0.1-0.8,0.2-1.3,0.2-1.6c0-0.6-0.1-1-0.3-1.3
				c-0.6,1.2-1.1,2.8-1.4,4.8c-0.3,2-0.6,3.8-0.8,5.4c-0.1,0.7-0.5,1.3-1.3,2c0.8,0.6,1.2,1.1,1.3,1.7c0.6,4.1,1,6.6,1.4,7.6
				C1316.2,187.1,1316.5,187.9,1316.7,188.3z M1324.2,161c-2.5-0.2-3.8,2.5-3.8,8.3c0,5.1,0,10.2,0,15.3c0,5.5,1.3,8.1,3.8,7.5
				c2.6-0.6,3.8-3.4,3.8-8.5c0-4.7,0-9.5,0-14.2C1328,164,1326.7,161.2,1324.2,161z M1330.1,186.2c0.7-0.5,1.2-1.9,1.2-4.3
				c0.1-2.3,0.1-4.1,0.1-5.2c0-1.1,0-2.1,0-2.8c0-0.8,0-1.5,0-2.3c-0.1-3-0.2-4.8-0.5-5.3c-0.3-0.5-0.6-0.9-0.8-1
				C1330.1,172.2,1330.1,179.2,1330.1,186.2z"/>
			<path class="st6" d="M1345.8,190c-0.7,0.7-1.5,1.2-2.3,1.5c-0.9,0.2-1.5,0.2-1.9-0.2c-0.4-0.4-0.6-0.8-0.6-1.2
				c0-0.6,0.1-1.1,0.3-1.5c0.3,0.2,0.7,0.3,1.2,0.2c0.9-0.2,1.5-1,1.8-2.2c0-2.7,0-5.5,0-8.2c0-0.8-0.1-1.3-0.4-1.7
				c-0.4-0.5-1.2-1-2.3-1.6c1-0.7,1.7-1.2,2-1.5c0.5-0.6,0.7-1.3,0.7-2.2c0-5,0-10,0-15c0-2-0.7-3.2-2.1-3.5c-0.5-0.1-0.9,0-1.2,0.2
				c-0.2-0.4-0.3-0.8-0.3-1.2c0-0.4,0.1-0.7,0.2-1c0.2-0.3,0.4-0.6,0.7-0.8c0.7-0.4,1.6-0.5,2.6-0.2c1.1,0.3,1.9,0.6,2.5,0.9
				c0.8-1,1.7-1.3,2.8-1c1.5,0.4,2.2,1.5,2.2,3.3c0,6.1,0,12.2,0,18.2c0,0.8,0.2,1.3,0.5,1.6c0.5,0.5,1.2,1,2.2,1.4
				c-1.1,0.6-1.8,1.1-2.1,1.5c-0.4,0.5-0.6,1.1-0.6,1.8c0,2.5,0,4.9,0,7.4c0.4,1,1,1.4,1.8,1.1c0.5-0.1,0.9-0.4,1.2-0.7
				c0.2,0.2,0.3,0.6,0.3,1c0,0.4-0.2,0.9-0.6,1.4c-0.4,0.5-1.1,0.9-1.9,1.2c-0.8,0.2-1.6,0.2-2.4-0.1c-0.6,0.7-1.3,1.2-2.2,1.4
				C1347.2,190.4,1346.5,190.4,1345.8,190z M1346.4,183.3c0.7-0.6,1.1-1.8,1.2-3.4c0-0.7,0.1-1.6,0.1-2.5c0-0.9,0-1.5,0-1.9
				c0-0.4,0-0.7,0-0.9c0-0.8,0-1.5,0-2.3c0-0.6,0-1.3,0-2.1c0-0.8,0-1.7,0-2.5c0-4.5-0.1-7-0.2-7.5c-0.2-1.1-0.6-1.9-1.1-2.3
				c0,2.9,0,5.8,0,8.7c0,3.6,0,5.6-0.1,6c-0.1,0.4-0.1,0.7-0.2,0.9c-0.1,0.5-0.6,1-1.5,1.4c0.9,0.3,1.4,0.7,1.5,1.2
				c0.2,0.8,0.3,2.7,0.3,5.6C1346.4,182.1,1346.4,182.7,1346.4,183.3z"/>
		</g>
	</g>
</g>
</svg>
