<?xml version="1.0" encoding="utf-8"?>
<!-- Generator: Adobe Illustrator 25.0.0, SVG Export Plug-In . SVG Version: 6.00 Build 0)  -->
<svg version="1.1" id="Calque_1" xmlns="http://www.w3.org/2000/svg" xmlns:xlink="http://www.w3.org/1999/xlink" x="0px" y="0px"
	 viewBox="0 0 151.5 191.7" style="enable-background:new 0 0 151.5 191.7;" xml:space="preserve">
<style type="text/css">
	.st0{fill:#FAE6B1;}
	.st1{fill:none;}
	.st2{fill:#FFFF00;}
	.st3{fill:#F7931E;}
</style>
<path class="st0" d="M1346.1-60.2"/>
<path class="st0" d="M434.1,1023.8"/>
<path class="st1" d="M-442.9-211.2c15.3-0.7,30.7-1.3,46-2c14.7-0.7,29.3-1.3,44-2"/>
<path class="st2" d="M44.5,131.7c-1.9-5.6,3-9.4,10.5-8.6c1.8,0.2,3.6,0.3,5.4,0.4c6.2,0.2,12.2-0.6,18.2-2.4c2.5-0.8,5.2-1,7.9-1
	c10.5,0,17.2,8.1,15.4,18.6c-0.3,1.6-0.7,3.2-1.2,4.6c-3.4,10-11.8,14.8-25.9,14.8c-8.1,0.3-15.3-2.2-21.8-7
	C46.5,146.1,46.8,138.3,44.5,131.7z M69.6,101.6c2,0.2,4,0.4,7.4,0.8c-2,1.4-2.7,2.2-3.4,2.4c-1.3,0.3-2.7,0.2-4,0.1
	c-8.2-0.6-16.1-2.5-24.8-0.2c-7.4,2-14.6-1.5-19.6-8.1c-3-4-5.8-3.9-9,0c-7.7,9.4-8.1,20.5-7.1,31.8c1.7,21.5,14.3,34.7,35.2,40
	c21.6,5.5,43.2,5.4,64.2-2.9c16.9-6.7,25.6-18.5,24.6-34.3c-0.9-14.9-8.6-25.6-22-32.1c-1.6-0.8-4.1-0.1-6.1,0.2
	c-2.7,0.5-5.4,1.2-8,1.9c-0.2-0.7-0.5-1.4-0.7-2.1c6-3.1,14.2-2.7,16.8-11.1c-4.3-2.2-7.3-5.8-5.8-10.9c0.8-2.7,2.9-5.9,5.3-7.1
	c7.3-3.9,9.8-9.3,6.3-17c-5.1-11.2-13.9-18.7-25.3-22.8c-10-3.6-20.3-5.1-30.8-1.4c-0.9,0.3-2-0.1-3.4-1.2c1-0.7,2.1-1.2,2.8-2.1
	c1.1-1.3,2.4-2.8,2.7-4.4c0.2-1.1-1.1-2.5-1.7-3.8c-1.6,1-4.2,1.5-4.7,2.9c-3.9,11.1-12.6,19.7-17.6,30.2c-6,12.7-5.1,26,2.5,38.2
	C49.4,98.1,59.1,100.7,69.6,101.6z M104,59.6c-4.2-1.7-7-8.6-5.3-12.7c0.9-2.1,3-3.7,4.1-4.8c5.9,0.6,8.2,3.4,9.7,7.1
	c1.4,3.6,1.8,7.5-1.4,10C109.5,60.5,106.1,60.5,104,59.6z"/>
<path class="st3" d="M27,166.7c12.4,7.7,26.2,9.3,40.3,9.9c16.1,0.7,32-0.7,46.7-8.3c13.9-7.2,24-17.4,24-34
	c0-15.9-7.1-28.5-20.4-37.4c-0.8-0.5-1.7-1-2.5-1.5c-0.1-0.5-0.2-1.1-0.2-1.6c1.8-0.4,3.7-1.3,5.5-1.2c4.5,0.3,8.9,1.4,13.3,1.7
	c4.8,0.3,9.4-0.6,11.6-5.9c2.1-5.1-0.3-8.6-3.6-10.5c2.8-3.3,6.2-6.1,7.9-9.7c1.6-3.3,2.4-7.8,1.5-11.2c-1.4-5.6-5.3-6.2-10.5-3.7
	c-2.9,1.4-6.2,2.4-9.4,2.7c-3.8,0.4-6.6-1.2-8.4-5.4c-7.3-16.5-21-24.8-38.3-27.7c-4.4-0.7-8.9-0.9-13.5-1.4
	c-0.1-0.2-0.4-0.4-0.5-0.7c-1.4-3.7-2.2-8.1-7.2-8.6c-5-0.5-7.7,3.3-9.5,7C49.4,28.5,43.7,37,38.2,45.6c-10,15.7-7.2,39.9,7.9,53.5
	c-4,2-10.4,1-14.4-2.4c-0.6-0.5-1.2-1.1-1.8-1.7c-8-8.2-14.2-7.5-20.5,2.5C-3.9,118.5,4.8,152.8,27,166.7z M108.4,165.6
	c-21,8.3-42.6,8.4-64.2,2.9c-20.8-5.3-33.5-18.5-35.2-40c-0.9-11.3-0.5-22.4,7.1-31.8c3.2-3.9,5.9-4,9,0c5.1,6.6,12.2,10.1,19.6,8.1
	c8.6-2.3,16.5-0.5,24.8,0.2c1.3,0.1,2.7,0.2,4-0.1c0.8-0.2,1.4-0.9,3.4-2.4c-3.4-0.4-5.4-0.7-7.4-0.8c-10.5-0.8-20.2-3.4-26.2-13
	c-7.6-12.2-8.4-25.5-2.5-38.2c5-10.5,13.7-19.1,17.8-30.3c0.5-1.4,3.1-2,4.7-2.9c0.6,1.3,1.9,2.7,1.7,3.8c-0.3,1.6-1.6,3.1-2.7,4.4
	c-0.7,0.9-1.9,1.4-2.8,2.1c1.4,1.1,2.5,1.5,3.4,1.2c10.5-3.6,20.8-2.2,30.8,1.4c11.4,4.1,20.2,11.6,25.3,22.8c3.5,7.7,1,13.1-6.3,17
	c-2.4,1.3-4.5,4.4-5.3,7.1c-1.6,5.1,1.5,8.7,5.8,10.9c-2.6,8.4-10.9,8-16.8,11.1c0.2,0.7,0.5,1.4,0.7,2.1c2.7-0.6,5.3-1.4,8-1.9
	c2-0.3,4.4-1,6.1-0.2c13.4,6.5,21.1,17.2,22,32.1C134,147,125.3,158.9,108.4,165.6z"/>
<g>
	<path class="st2" d="M62.7,159.2c10-0.6,18.7-4.4,25.6-11.9c4.1-4.5,5.5-9.9,4.5-15.3c-0.5-2.2-1.3-4.4-2.5-6.4
		c-4-6.7-12.9-8.2-19-3.3c-3.4,2.8-6.4,6.4-10,9c-2.9,2-6.1,3.7-9.2,5.3c-1.6,1-3.4,2-4.9,3.1c-2.1,1.5-3.3,4.4-5,6.6
		c2.8,1.4,5.5,3.1,8.5,4.2c1.1,0.4,2.5-0.1,3.8-0.2c0.2,0.5,0.3,0.9,0.4,1.4c-1.4,0.8-2.7,1.6-4.4,2.6
		C54,158.1,58.2,159.6,62.7,159.2z"/>
	<path class="st3" d="M65.3,123.3c-4.2,4.7-9.1,8.3-14.5,11.2l1.2,2.1c3.1-1.7,6.3-3.3,9.2-5.3c3.6-2.6,6.6-6.2,10-9
		c6.2-5.1,15.1-3.5,19,3.3c1.2,2.1,2.1,4.2,2.5,6.4l2.8-0.7c-0.3-1.5-0.7-3-1.3-4.6c-3.7-10-13.6-13.6-22.7-8.3
		C69.3,119.8,67.1,121.4,65.3,123.3z"/>
	<path class="st3" d="M80.6,157.1c12.2-7.1,16.9-15.4,14.9-25.8l-2.8,0.7c1.1,5.4-0.4,10.8-4.5,15.3c-6.8,7.6-15.5,11.3-25.6,11.9
		c-4.6,0.3-8.8-1.1-12.4-4.9c1.6-1,3-1.8,4.4-2.6c-0.2-0.5-0.3-0.9-0.4-1.4c-1.3,0.1-2.7,0.7-3.8,0.2c-2.9-1.2-5.6-2.7-8.5-4.2
		c1.6-2.2,2.9-5,5-6.6c1.5-1.1,3.2-2.1,4.9-3.1l-1.2-2.1c-1.6,0.9-3.2,1.6-4.9,2.4c-6.9,3.1-9.3,8.9-4.7,12.7
		c5.3,4.5,9,11.4,17.2,12.3C66.4,163,73.8,161.5,80.6,157.1z"/>
</g>
<path d="M101,47.5c2-1.3,3.2-2.7,4.3-2.7c0.8,0,2.5,2,2.3,2.8c-0.2,1.2-1.6,2.9-2.8,3.1C104,50.9,102.8,49.1,101,47.5z M112.4,49.3
	c-1.5-3.7-3.8-6.5-9.7-7.1c-1,1.2-3.2,2.7-4.1,4.8c-1.7,4.1,1.1,11,5.3,12.7c2,0.8,5.5,0.8,7.1-0.4
	C114.2,56.9,113.8,52.9,112.4,49.3z"/>
</svg>
