<?xml version="1.0" encoding="utf-8"?>
<!-- Generator: Adobe Illustrator 25.0.0, SVG Export Plug-In . SVG Version: 6.00 Build 0)  -->
<svg version="1.1" id="Calque_1" xmlns="http://www.w3.org/2000/svg" xmlns:xlink="http://www.w3.org/1999/xlink" x="0px" y="0px"
	 viewBox="0 0 151.5 191.7" style="enable-background:new 0 0 151.5 191.7;" xml:space="preserve">
<style type="text/css">
	.st0{fill:#FAE6B1;}
	.st1{fill:none;}
	.st2{fill:#FFFF00;}
	.st3{fill:#F7931E;}
</style>
<path class="st0" d="M1346.1-60.2"/>
<path class="st0" d="M434.1,1023.8"/>
<path class="st1" d="M-442.9-211.2c15.3-0.7,30.7-1.3,46-2c14.7-0.7,29.3-1.3,44-2"/>
<g>
	<g id="XMLID_1_">
		<g>
			<path class="st2" d="M42.9,140.8c-1.9-5.6,3-9.4,10.5-8.6c1.8,0.2,3.6,0.3,5.4,0.4c6.2,0.2,12.2-0.6,18.2-2.4
				c2.5-0.8,5.2-1,7.9-1c10.5,0,17.2,8.1,15.4,18.6c-0.3,1.6-0.7,3.2-1.2,4.6c-3.4,10-11.8,14.8-25.9,14.8c-8.1,0.3-15.3-2.2-21.8-7
				C44.9,155.2,45.2,147.4,42.9,140.8z M68,110.7c2,0.2,4,0.4,7.4,0.8c-2,1.4-2.7,2.2-3.4,2.4c-1.3,0.3-2.7,0.2-4,0.1
				c-8.2-0.6-16.1-2.5-24.8-0.2c-7.4,2-14.6-1.5-19.6-8.1c-3-4-5.8-3.9-9,0c-7.7,9.4-8.1,20.5-7.1,31.8c1.7,21.5,14.3,34.7,35.2,40
				c21.6,5.5,43.2,5.4,64.2-2.9c16.9-6.7,25.6-18.5,24.6-34.3c-0.9-14.9-8.6-25.6-22-32.1c-1.6-0.8-4.1-0.1-6.1,0.2
				c-2.7,0.5-5.4,1.2-8,1.9c-0.2-0.7-0.5-1.4-0.7-2.1c6-3.1,14.2-2.7,16.8-11.1c-4.3-2.2-7.3-5.8-5.8-10.9c0.8-2.7,2.9-5.9,5.3-7.1
				c7.3-3.9,9.8-9.3,6.3-17c-5.1-11.2-13.9-18.7-25.3-22.8c-10-3.6-20.3-5.1-30.8-1.4c-0.9,0.3-2-0.1-3.4-1.2c1-0.7,2.1-1.2,2.8-2.1
				c1.1-1.3,2.4-2.8,2.7-4.4c0.2-1.1-1.1-2.5-1.7-3.8c-1.6,1-4.2,1.5-4.7,2.9C53,40.4,44.3,49,39.3,59.5c-6,12.7-5.1,26,2.5,38.2
				C47.8,107.2,57.5,109.8,68,110.7z M102.4,68.7c-4.2-1.7-7-8.6-5.3-12.7c0.9-2.1,3-3.7,4.1-4.8c5.9,0.6,8.2,3.4,9.7,7.1
				c1.4,3.6,1.8,7.5-1.4,10C107.9,69.6,104.5,69.6,102.4,68.7z"/>
			<path class="st2" d="M56.8,159.9c9,4.5,18.4,5.6,28.1,2.6c5.8-1.8,9.8-5.8,11.6-11c0.7-2.1,1.1-4.4,1.1-6.8
				c-0.1-7.8-7-13.6-14.8-12.4c-4.4,0.7-8.7,2.3-13.2,2.7c-3.5,0.3-7.1,0.1-10.6,0c-1.9,0-3.9,0-5.8,0.2c-2.6,0.2-5.1,2.1-7.7,3.2
				c1.7,2.6,3.2,5.4,5.2,7.9c0.7,0.9,2.2,1.2,3.4,1.8c-0.1,0.5-0.2,0.9-0.3,1.4c-1.6,0-3.1,0-5.1,0
				C49.8,154.5,52.7,157.9,56.8,159.9z"/>
			<path class="st3" d="M25.5,175.7c12.4,7.7,26.2,9.3,40.3,9.9c16.1,0.7,32-0.7,46.7-8.3c13.9-7.2,24-17.4,24-34
				c0-15.9-7.1-28.5-20.4-37.4c-0.8-0.5-1.7-1-2.5-1.5c-0.1-0.5-0.2-1.1-0.2-1.6c1.8-0.4,3.7-1.3,5.5-1.2c4.5,0.3,8.9,1.4,13.3,1.7
				c4.8,0.3,9.4-0.6,11.6-5.9c2.1-5.1-0.3-8.6-3.6-10.5c2.8-3.3,6.2-6.1,7.9-9.7c1.6-3.3,2.4-7.8,1.5-11.2
				c-1.4-5.6-5.3-6.2-10.5-3.7c-2.9,1.4-6.2,2.4-9.4,2.7c-3.8,0.4-6.6-1.2-8.4-5.4c-7.3-16.5-21-24.8-38.3-27.7
				c-4.4-0.7-8.9-0.9-13.5-1.4c-0.1-0.2-0.4-0.4-0.5-0.7c-1.4-3.7-2.2-8.1-7.2-8.6c-5-0.5-7.7,3.3-9.5,7
				c-4.4,9.3-10.1,17.8-15.6,26.4c-10,15.7-7.2,39.9,7.9,53.5c-4,2-10.4,1-14.4-2.4c-0.6-0.5-1.2-1.1-1.8-1.7
				c-8-8.2-14.2-7.5-20.5,2.5C-5.4,127.5,3.3,161.8,25.5,175.7z M106.9,174.6c-21,8.3-42.6,8.4-64.2,2.9
				c-20.8-5.3-33.5-18.5-35.2-40c-0.9-11.3-0.5-22.4,7.1-31.8c3.2-3.9,5.9-4,9,0c5.1,6.6,12.2,10.1,19.6,8.1
				c8.6-2.3,16.5-0.5,24.8,0.2c1.3,0.1,2.7,0.2,4-0.1c0.8-0.2,1.4-0.9,3.4-2.4c-3.4-0.4-5.4-0.7-7.4-0.8c-10.5-0.8-20.2-3.4-26.2-13
				c-7.6-12.2-8.4-25.5-2.5-38.2C44.3,49,53,40.4,57.1,29.2c0.5-1.4,3.1-2,4.7-2.9c0.6,1.3,1.9,2.7,1.7,3.8
				c-0.3,1.6-1.6,3.1-2.7,4.4c-0.7,0.9-1.9,1.4-2.8,2.1c1.4,1.1,2.5,1.5,3.4,1.2c10.5-3.6,20.8-2.2,30.8,1.4
				c11.4,4.1,20.2,11.6,25.3,22.8c3.5,7.7,1,13.1-6.3,17c-2.4,1.3-4.5,4.4-5.3,7.1c-1.6,5.1,1.5,8.7,5.8,10.9
				c-2.6,8.4-10.9,8-16.8,11.1c0.2,0.7,0.5,1.4,0.7,2.1c2.7-0.6,5.3-1.4,8-1.9c2-0.3,4.4-1,6.1-0.2c13.4,6.5,21.1,17.2,22,32.1
				C132.5,156,123.8,167.9,106.9,174.6z"/>
			<path class="st3" d="M77.1,130.2c-6,1.9-12,2.6-18.2,2.4l0,2.4c3.5,0.1,7.1,0.3,10.6,0c4.4-0.4,8.8-2,13.2-2.7
				c7.9-1.3,14.8,4.6,14.8,12.4c0,2.4-0.3,4.7-1.1,6.8l2.8,0.8c0.5-1.4,0.9-3,1.2-4.6c1.8-10.5-4.9-18.6-15.4-18.6
				C82.3,129.2,79.6,129.4,77.1,130.2z"/>
			<path class="st3" d="M73.3,167.1c14.1,0,22.4-4.8,25.9-14.8l-2.8-0.8c-1.8,5.2-5.8,9.1-11.6,11c-9.7,3.1-19.1,1.9-28.1-2.6
				c-4.1-2.1-7-5.4-8.2-10.5c1.9,0,3.5,0,5.1,0c0.1-0.5,0.2-0.9,0.3-1.4c-1.2-0.6-2.7-0.8-3.4-1.8c-1.9-2.5-3.5-5.2-5.2-7.9
				c2.5-1.1,5-2.9,7.7-3.2c1.9-0.2,3.8-0.2,5.8-0.2l0-2.4c-1.8,0-3.6-0.2-5.4-0.4c-7.5-0.8-12.5,3-10.5,8.6c2.3,6.6,2,14.4,8.6,19.3
				C58,165,65.2,167.5,73.3,167.1z"/>
			<path d="M99.5,56.5c2-1.3,3.2-2.7,4.3-2.7c0.8,0,2.5,2,2.3,2.8c-0.2,1.2-1.6,2.9-2.8,3.1C102.5,59.9,101.3,58.1,99.5,56.5z
				 M110.9,58.3c-1.5-3.7-3.8-6.5-9.7-7.1c-1,1.2-3.2,2.7-4.1,4.8c-1.7,4.1,1.1,11,5.3,12.7c2,0.8,5.5,0.8,7.1-0.4
				C112.7,65.9,112.3,61.9,110.9,58.3z"/>
		</g>
		<g>
		</g>
	</g>
</g>
</svg>
