<?xml version="1.0" encoding="utf-8"?>
<!-- Generator: Adobe Illustrator 25.0.0, SVG Export Plug-In . SVG Version: 6.00 Build 0)  -->
<svg version="1.1" id="Calque_1" xmlns="http://www.w3.org/2000/svg" xmlns:xlink="http://www.w3.org/1999/xlink" x="0px" y="0px"
	 viewBox="0 0 1920 1080" style="enable-background:new 0 0 1920 1080;" xml:space="preserve">
<style type="text/css">
	.st0{fill:#262A56;}
	.st1{fill:#3E4351;}
	.st2{fill:#EBECED;}
	.st3{fill:#EBEBEC;}
	.st4{fill:#EEEFEF;}
	.st5{fill:#E3E3E5;}
	.st6{fill:#E8E9EA;}
	.st7{fill:#4B505D;}
	.st8{fill:#464C58;}
	.st9{fill:#545965;}
</style>
<rect x="0.3" y="348.8" class="st0" width="1920" height="383"/>
<g>
	<path class="st1" d="M1794.9,537.3c4.7,4,9.2,7.8,13.7,11.7c0.5,0.5,1.4,1,1.8,1.5c0.5,1,1.2,2.2,1,2.9c-0.3,0.7-1.8,1.4-2.7,1.4
		c-4.9,0.1-9.9,0.1-14.7,0c-2.9-0.1-3.7,1-3.6,3.7c0.1,4.4,0.1,8.9,0,13.3c-0.1,5.8-3.2,9.8-8.8,11.1c-2.1,0.5-2.9,1.4-2.7,3.4
		c0.1,1.4,0,2.7,0,4.1c0,4.7-1.5,7.1-5.6,8.8c-22.3,8.7-44.6,17.4-67,26c-2.1,0.8-4.8,0.8-6.9,0.1c-22.5-8.5-44.9-17.3-67.3-26.1
		c-3.7-1.5-5.8-4-5.6-8.1c0-1-0.1-2.1,0-3c0.3-2.9,0-4.8-3.7-5.5c-4.5-0.8-7.6-5.5-7.7-10.2c-0.1-4.8-0.3-9.6,0-14.4
		c0.1-2.6-0.8-3.3-3.3-3.3c-5.1,0.1-10,0.1-15.1,0c-1.1,0-2.3-1-3.4-1.4c0.5-1.1,0.8-2.6,1.8-3.4c4.3-3.8,8.7-7.4,13.1-11.1
		c1.4-1.2,1.8-1.8,0-3.2c-4.5-3.6-8.8-7.3-13.1-11.1c-1-0.8-1.2-2.2-1.8-3.4c1.1-0.5,2.3-1.4,3.4-1.5c8.5-0.1,17.2-0.1,25.7,0
		c3.2,0.1,4.4-0.7,4.3-4.1c-0.3-10.6-0.1-21-0.1-31.6c0-8.4,0.5-9.3,8.5-12.4c2.7-1,3.7-2.2,3.4-5.1c-0.4-5.5-0.3-11-0.5-16.5
		c-0.1-2.7,0.8-4.3,3.4-5.2c12-4.3,23.9-9.1,36.1-13.3c2.5-0.8,5.6-0.5,8.4-0.1c20.9,2.9,41.6,5.8,62.4,8.8c4.1,0.5,5.6,2.1,6,6.2
		c0.7,5.6,0.8,11.4,1.6,17c0.1,1.2,1.4,2.7,2.5,3.3c4.4,2.1,8.9,4,13.6,5.6c5.2,1.8,7.3,5.1,7.1,10.6c-0.3,11.1,0,22.3-0.1,33.2
		c0,2.9,0.8,3.6,3.7,3.6c8-0.1,16.1-0.1,24,0c1.6,0,3.4,1,5.1,1.5c-1,1.4-1.6,3-3,4.3C1804.2,529.5,1799.5,533.3,1794.9,537.3z
		 M1737.2,504.8c-0.1,0-0.1,0-0.3,0.1v0.1C1737,504.9,1737.2,504.8,1737.2,504.8c0.3-0.1,0.7-0.1,1-0.3c4.7-3,9.3-6,14.7-9.5
		c-2.3-0.7-3.4-1.1-4.9-1.5c2.6-2.2,4.9-4.3,7.1-6.3c0.5-0.5,1-2.3,0.7-2.5c-1.2-0.8-2.1-3.3-4.1-1.1c-3.3,3.7-6.7,7.4-10,11.3
		c-0.4,0.4-0.4,1.8-0.3,1.8c3.2,1.4,0.8,2.5-0.1,3.6c-1.1,1.2-2.2,2.5-3.4,3.8C1737.6,504.2,1737.4,504.5,1737.2,504.8z M1705.7,524
		c0.3-0.3,0.4-0.5,0.7-0.8c0.8-0.4,2.1-0.7,2.3-1.2c3.3-6.5,5.6-13.3,4-20.7c-0.1-0.8-0.3-2.1,0.1-2.5c1.6-1.6,7.6,0.5,8,2.9
		c1.4,7.7,2.6,15.2,4,22.9c0.4,2.6-0.4,3.8-3.2,3.8c-3.7-0.1-7.4-0.1-11.1,0c-0.8,0-1.8,0.7-2.6,1.1c0.8,0.4,1.6,1.1,2.5,1.1
		c4.5,0.1,9.2,0,13.7,0c3,0,4.4-1.4,3.8-4.5c-1.5-8.4-2.9-16.9-4.1-25.4c-0.4-3.2-1.6-4.7-4.9-4.8c-9.2-0.4-18.5-1-27.7-1.5
		c-4.4-0.3-8.9-0.7-13.3-0.5c-1.2,0-3.6,1.5-3.6,2.5c0,3.4,0.7,7,1.1,10.6c0.3,0,0.7,0,1-0.1c-0.1-2.2-0.3-4.4-0.4-6.7
		c-0.1-2.9,1.1-3.8,4-3.3c-0.5,1.2-1.4,2.3-1.4,3.3c0.1,1.6,0.3,4,1.4,4.8s3.8,0.7,4.9-0.1c1.6-1.2,3.2-3.3,3.7-5.4
		c0.5-1.8,0.8-2.5,2.7-2.3c4.1,0.4,8.2,0.4,12.4,0.7c4.7,0.3,4.9,1,4.7,5.8c-0.5,9.6-17.6,25.8-27.7,23.4c-0.5-0.1-1.4,0.4-1.9,0.5
		c0.3,0.7,0.4,1.6,0.8,2.1c0.5,0.5,1.4,0.8,2.2,0.8c4.4,0.1,8.9,0.1,13.3,0.3c1.6,0,2.6-0.3,1.8-2.5s-0.3-4.3,1.5-5.1
		c1.2,1.2,2.2,2.7,3.3,3c1,0.1,2.2-1.2,3.2-1.9c0.1,0,0.3-0.1,0.5-0.1c1.4,1.6,1.9,3.2,0.3,4.9c-0.4,0.3-0.8,0.5-1.4,1
		c0.7-0.1,1.4-0.1,2.1-0.3C1707.6,527.7,1708.2,525.8,1705.7,524z M1701.4,579.5c7.8,0,15.8,0,23.6,0c17.6,0,35.2-0.1,52.8-0.3
		c5.8,0,8.1-2.6,8.2-8.5c0-5.8,0-11.7,0-17.4c0-1.5-0.4-1.9-1.9-1.6c-2.5,0.4-4.9,0.7-7.4,0.7c-49.9,0-99.7,0-149.6,0
		c-1.9,0-3.8-0.1-5.8-0.7c-1.9-0.5-2.5-0.1-2.5,1.8c0.1,6.3,0,12.6,0.1,18.8c0.1,3.6,2.5,6.2,6,6.9c1.6,0.3,3.4,0.3,5.1,0.3
		C1653.9,579.5,1677.7,579.5,1701.4,579.5z M1688.8,548.6c0.1-0.3,0.3-0.5,0.4-1c-4.7-3-9.5-5.9-14-9.1c-1.2-0.8-2.3-2.5-2.5-4
		c-2.2-15.1-4.4-30.2-6.3-45.5c-0.3-2.2,0.4-5.1,1.8-6.9c3.6-4.9,7.8-9.5,11.5-14.4c1.2-1.5,1.9-4,1.9-5.9
		c-0.4-7.8-1.4-15.7-2.1-23.6c-0.3-2.6-1.2-2.9-3.6-1.9c-10,3.8-19.9,7.7-29.8,11.3c-3,1.1-4,2.5-3.8,5.6
		c0.8,30.8,1.5,61.5,2.1,92.3c0,2.3,0.8,3,3,3c5.9-0.1,12,0,17.9,0C1673.1,548.6,1681,548.6,1688.8,548.6z M1744.3,468.4
		c6.3,0.3,6.9-0.1,6.6-5.2c-0.3-4.9-1-9.8-1.2-14.7c-0.1-2.9-1.4-4-4.1-4.4c-12.4-1.5-24.9-3.4-37.2-5.2c-6.6-1-13.1-1.9-19.6-2.7
		c-4.1-0.5-5.9,0.7-5.6,3.8c0.5,6,1.2,12.1,1.8,18.1c0.3,3,1.8,4,4.7,4.3c5.1,0.4,10.2,1.1,15.4,1.6
		C1718.3,465.5,1731.9,467,1744.3,468.4z M1722.3,488.7c0.5-0.1,1.9-0.5,2.9-1.2c5.1-3.6,10-7.1,15-10.9c0.8-0.7,1.4-1.6,2.1-2.5
		c-1-0.4-1.9-1-3-1.1c-17.3-1.9-34.5-3.8-51.8-5.6c-1.2-0.1-3,0.1-3.7,1c-3.8,4.3-7.7,8.8-11.3,13.3c-1.2,1.5-1.4,2.9,1.4,3
		C1689.8,486.1,1705.6,487.3,1722.3,488.7z M1774.5,588.3c-0.7-1.8-1.6-5.1-1.9-4.9c-3.2,0.7-1.6,3.4-1.6,5.4c0,2.2-0.5,3.4-2.7,4.3
		c-21.2,8.1-42.3,16.5-63.5,24.6c-1.4,0.5-3.2,0.4-4.5,0c-19.9-7.7-39.7-15.5-59.6-23.1c-4.5-1.6-7.7-3.4-6.5-8.9
		c0.1-0.5,0-1.5-0.1-1.6c-0.8-0.3-1.6-0.1-2.5-0.1c-0.1,3-0.5,5.9-0.1,8.8c0.1,1.1,2.3,2.3,3.7,2.9c21.2,8.4,42.4,16.6,63.7,24.7
		c2.2,0.8,5.2,0.8,7.4,0c21-8,41.9-16.2,62.8-24.3C1772.9,594.5,1774.9,592.6,1774.5,588.3z M1750.6,548c0-0.4,0.1-1,0.1-1.4
		c-5.4-2.9-10.6-5.8-15.9-8.7c-1.1-0.5-2.5-0.7-3.7-0.7c-7.6,0-15.1,0.1-22.7,0.3c-1.2,0-2.3,0.8-3.4,1.1c0.8,1,1.5,1.9,2.3,2.9
		c0.5,0.7,1.5,1.4,1.5,2.1s-1,1.6-1.6,1.8c-2.7,0.4-5.5,0.8-8.4,0.5c-1.2,0-2.3-1.4-3.6-2.1c1-1,1.9-1.8,2.9-2.9
		c0.5-0.7,1.2-1.5,1.1-2.1c0-0.5-1.2-1.2-1.8-1.2c-5.9-0.1-11.8,0-17.7,0c4,3.6,8.1,6.5,12.5,8.9c1.9,1.1,4.4,1.9,6.7,1.9
		c11.5,0,23.1-0.3,34.6-0.4C1739.2,547.9,1745,548,1750.6,548z M1601.4,523.9c-0.1,0.3-0.3,0.5-0.3,0.8c2.9,2.3,5.6,4.8,8.4,7.1
		c6.9,6.2,7.6,4.5-0.1,11.1c-2.7,2.3-5.5,4.8-8.2,7.3c3.7,0.7,7,0.5,10.3,0.8c2.9,0.3,3.7-0.8,3.6-3.6c-0.1-6.2,1.9-8.7,8.1-9.8
		c0.5-0.1,1.2,0,1.6-0.3c0.7-0.4,1.6-1.2,1.6-1.8c0.1-3.2,0.1-6.5,0-9.6c0-0.7-1.1-1.8-1.6-1.8
		C1617.1,523.9,1609.3,523.9,1601.4,523.9z M1803.2,524.7c-0.1-0.3-0.1-0.5-0.3-0.8c-7.6,0-15.2,0-22.8,0.1c-0.5,0-1.5,1.2-1.5,1.9
		c-0.1,3-0.3,5.9,0,8.9c0,0.8,1.1,2.2,1.9,2.3c8.4,2.1,9.2,3,9.8,11.4c0,0.8,0.8,2.2,1.2,2.2c3.8,0.1,7.8,0.1,11.7,0.1
		c-3.7-4.1-7.6-7.6-11.5-10.7c-2.3-1.9-2.5-3.4,0-5.4C1795.5,531.4,1799.2,528,1803.2,524.7z M1774,513.6c0-10.6,0-21,0-31.6
		c0-1.4-0.4-3.4-1.4-3.8c-5.4-2.6-10.9-4.8-16.3-6.9c-0.5-0.3-1.6,0.8-2.5,1.2c0.5,0.5,1,1.2,1.5,1.4c4.1,1.8,8.4,3.7,12.6,5.2
		c2.2,0.8,2.9,1.8,2.9,4.1c-0.1,20.6-0.1,41.2,0,61.7c0,1.1,1.1,2.2,1.6,3.4c0.4-1.1,1.4-2.2,1.4-3.4
		C1774.1,534.7,1774,524.1,1774,513.6z M1631.1,513.6c0,7,0,14,0,20.9c0,4,0,8,0.1,12c0,0.7,0.8,1.2,1.4,1.9
		c0.5-0.5,1.2-1.1,1.5-1.8c0.3-0.7,0-1.5,0-2.3c0-19.4,0-38.7,0-58c0-3-1.1-6.6,3.6-7.6c0.4-0.1,0.8-1.2,0.8-1.9
		c0-0.3-1-0.8-1.5-0.8c-4,0.4-6,2.7-6,6.7C1631.1,493.1,1631.1,503.3,1631.1,513.6z M1674,488.2L1674,488.2c-0.7,0-1.4-0.1-2.1,0
		c-1,0.1-1.9,0.7-2.7,1c1,0.7,1.8,1.6,2.7,1.8c2.6,0.4,5.2,0.3,7.8,0.5c14.1,1,28.2,2.1,42.3,3c0.8,0,1.8-0.5,2.7-1
		c-0.8-0.7-1.8-1.8-2.6-1.8C1706,490.5,1690,489.3,1674,488.2z M1752.5,510.5c3.2-0.5,5.8-1,8.5-1.4c1.2-0.1,2.7-0.1,1.9-2.1
		c-0.5-1.4-0.5-3.3-3.2-2.5c-3.6,1.2-7.3,1.8-10.9,3.2c-1.1,0.4-5.8-0.7-2.7,3.4c-0.7,0.4-1.2,0.8-1.9,1.1c-2.2,0.5-4.4,1.1-7.6,1.8
		c6.7,0,12.4,0,18.4,0C1754.3,512.6,1753.6,511.8,1752.5,510.5z M1751.2,532.2c-0.5-3.4,0.5-3.8,2.7-2.6c1.1,0.7,2.5,1.2,3.7,1.6
		c1,0.3,2.2,1.9,2.9-0.4c0.5-1.6,0.7-3-1.5-3.6c-3.3-1-6.6-2.1-9.8-3.3c-2.1-0.8-3.6-1-3.4,1.8c-2.5-0.7-4.5-1.4-6.7-2.1
		c0,0.1-0.1,0.4-0.1,0.5C1742.8,526.9,1746.6,529.4,1751.2,532.2z M1727.8,594.6c0.4,0.5,0.7,1.6,1.4,2.2c0.5,0.3,1.6-0.3,2.5-0.4
		c-1.4-2.2,0-4,0.4-6c0.1-0.7-0.7-2.2-1.4-2.5c-1.8-0.5-3.8-0.7-5.6-0.4c-0.4,0-0.7,2.3-0.8,3.6c-0.1,1-0.1,2.1,0,3
		c0.3,1.1,0.8,2.1,1.1,3.2C1726.2,596.4,1727,595.6,1727.8,594.6z M1706.2,592.6L1706.2,592.6c0-1,0.1-1.8,0-2.7
		c-0.1-0.8-0.4-1.6-0.7-2.5c-0.8,0.3-1.6,0.7-2.6,1c-0.5,0.1-1.2-0.1-1.6-0.4c-1.4-1-2.6-1.2-2.7,1c-0.1,2.3-0.5,4.7,0,6.9
		c1,4,5.1-2.6,6.3,1.5c0.4-0.5,1.2-1,1.4-1.6C1706.4,594.6,1706.2,593.7,1706.2,592.6z M1713.8,594.6c1.2-1.5,4.7-2.3,1-3.7
		c0.1-0.4,0.3-1.2,0.5-1.4c0.8-0.3,1.8,0,2.7-0.3c0.4-0.1,0.8-0.7,1.2-1c-0.4-0.4-0.8-1.1-1.4-1.1c-5.2-1.2-6.7-0.1-6.7,5.1
		c0,0.7,0.1,1.4,0,2.1c-0.3,2.2,0.8,2.9,2.7,2.9c1,0,2.1,0.1,3,0c0.8-0.1,1.5-0.7,2.2-1c-0.7-0.4-1.2-1-2.1-1.2
		C1716.3,594.8,1715.3,594.8,1713.8,594.6z M1672.6,592.3c0,4.3,2.3,6.3,5.8,4.7c1-0.5,1.4-2.5,1.9-3.7c-0.8-0.4-1.5-1.1-2.3-1.1
		c-2.2-0.1-2.6,0.7-1,2.3c-0.3,0.1-0.5,0.3-0.8,0.4c-0.1-1.4-0.4-2.7-0.4-4.1c0-0.1,1.4-0.3,2.1-0.4c0.8-0.1,1.6-0.1,2.5-0.3
		c-0.5-0.8-1.1-2.1-1.9-2.5C1674.8,586,1672.6,587.9,1672.6,592.3z M1693.2,596.1c-0.7-2.7-1.2-5.2-2.1-7.7
		c-0.1-0.5-1.1-1.4-1.6-1.2c-0.7,0.1-1.6,0.8-1.8,1.4c-0.8,2.2-1.4,4.5-1.8,6.9c-0.1,0.4,0.4,1.5,0.7,1.5c1.9,0.1,3.8,0.1,5.6,0
		C1692.6,597.2,1692.9,596.4,1693.2,596.1z M1780.8,540.4c-2.6,0.8-2.5,0.8-2.5,5.4c0,1.9,0.4,3,2.6,2.9c2.6-0.1,5.8-2.6,4.8-4.1
		C1784.8,542.7,1782.6,541.7,1780.8,540.4z M1627.1,545.7c-1-2.2,0.8-4.9-2.6-4.5c-2.3,0.3-4.8,0.5-5.4,3.3c-0.4,1.9,2.9,4.5,5.5,4
		C1625.6,548.2,1626.4,546.5,1627.1,545.7z M1706.2,606.3c-1.2-1-2.6-1.9-3.7-2.7c-1.1,0.8-2.3,1.8-3.6,2.7c0.4,1.4,1,3,1.2,4.1
		c1.8,0.1,3.3,0.1,4.5,0.3C1705.1,609.2,1705.7,607.7,1706.2,606.3z M1704.2,537.6c-0.7-1.6-1.4-3.2-1.9-4.7
		c-0.4,1.5-1.2,3.2-1.2,4.7c0,1.4,0.8,2.9,1.4,4.3C1703,540.6,1703.5,539.3,1704.2,537.6z M1684.3,506c-1.1,1-1.6,1.6-2.3,2.2
		c0.7,0.5,1.4,1.8,2.1,1.6c0.7,0,1.6-1,1.9-1.8C1685.9,507.8,1685,507,1684.3,506z"/>
	<path class="st2" d="M1704.3,524.1c-1.1,0.7-2.3,2.1-3.2,1.9c-1.1-0.3-2.1-1.8-3.3-3c-1.8,0.8-2.3,2.9-1.5,5.1
		c0.8,2.2-0.1,2.5-1.8,2.5c-4.4,0-8.9-0.1-13.3-0.3c-0.7,0-1.6-0.3-2.2-0.8c-0.5-0.5-0.5-1.4-0.8-2.1c0.7-0.3,1.4-0.7,1.9-0.5
		c10.2,2.3,27.2-13.7,27.7-23.4c0.3-4.7,0-5.5-4.7-5.8c-4.1-0.3-8.2-0.4-12.4-0.7c-1.9-0.1-2.2,0.4-2.7,2.3
		c-0.5,2.1-2.1,4.1-3.7,5.4c-1.1,0.8-3.8,1-4.9,0.1c-1.1-0.8-1.2-3.2-1.4-4.8c0-1,0.8-2.1,1.4-3.3c-2.7-0.5-4.1,0.4-4,3.3
		c0.1,2.2,0.3,4.4,0.4,6.7c-0.3,0-0.7,0-1,0.1c-0.4-3.6-1.1-7-1.1-10.6c0-0.8,2.3-2.3,3.6-2.5c4.4-0.1,8.9,0.3,13.3,0.5
		c9.2,0.5,18.5,1.1,27.7,1.5c3.3,0.1,4.5,1.5,4.9,4.8c1.2,8.5,2.6,16.9,4.1,25.4c0.5,3.2-0.7,4.5-3.8,4.5c-4.5,0-9.2,0-13.7,0
		c-0.8,0-1.6-0.7-2.5-1.1c0.8-0.4,1.8-1.1,2.6-1.1c3.7-0.1,7.4-0.1,11.1,0c2.7,0.1,3.7-1.2,3.2-3.8c-1.4-7.7-2.6-15.2-4-22.9
		c-0.4-2.3-6.3-4.5-8-2.9c-0.4,0.4-0.3,1.6-0.1,2.5c1.5,7.6-0.7,14.3-4,20.7c-0.3,0.7-1.5,0.8-2.3,1.2c-0.4-0.3-1-0.5-1.4-0.8
		C1704.7,522.9,1704.5,523.6,1704.3,524.1z M1700.8,521.9c-0.4,0.1-1,0.3-1.4,0.3c0.4,0.1,1,0.3,1.4,0.4c0.5,0,1-0.1,1.5-0.1
		c0-0.1,0-0.3,0-0.4C1701.9,522.1,1701.3,521.9,1700.8,521.9z"/>
	<path class="st3" d="M1774.5,588.3c0.3,4.3-1.6,6.2-5.4,7.6c-21,8-41.9,16.3-62.8,24.3c-2.2,0.8-5.2,1-7.4,0
		c-21.3-8.1-42.6-16.3-63.7-24.7c-1.5-0.5-3.6-1.8-3.7-2.9c-0.4-2.9,0-5.9,0.1-8.8c0.8,0,1.8,0,2.5,0.1c0.1,0,0.3,1.1,0.1,1.6
		c-1.2,5.5,1.9,7.3,6.5,8.9c19.9,7.4,39.7,15.4,59.6,23.1c1.4,0.5,3.2,0.5,4.5,0c21.2-8.1,42.3-16.5,63.5-24.6
		c2.2-0.8,2.7-2.1,2.7-4.3c0-1.9-1.5-4.7,1.6-5.4C1772.9,583.2,1773.8,586.5,1774.5,588.3z"/>
	<path class="st4" d="M1750.6,548c-5.6,0-11.3,0-17,0c-11.5,0.1-23.1,0.4-34.6,0.4c-2.2,0-4.7-0.8-6.7-1.9
		c-4.4-2.5-8.5-5.5-12.5-8.9c5.9,0,11.8,0,17.7,0c0.7,0,1.8,0.8,1.8,1.2c0,0.7-0.7,1.5-1.1,2.1c-0.8,1-1.9,1.9-2.9,2.9
		c1.2,0.7,2.3,2.1,3.6,2.1c2.7,0.1,5.6-0.3,8.4-0.5c0.7-0.1,1.6-1.1,1.6-1.8c0-0.7-1-1.4-1.5-2.1c-0.8-1-1.5-1.9-2.3-2.9
		c1.1-0.4,2.3-1.1,3.4-1.1c7.6-0.1,15.1-0.3,22.7-0.3c1.2,0,2.6,0.1,3.7,0.7c5.4,2.7,10.6,5.8,15.9,8.7
		C1750.8,547.1,1750.6,547.5,1750.6,548z M1733.3,540.2c-2.6,1.1-5.5,0.1-5.5,3.6c0,2.7,2.3,3,4.5,2.9c2.2-0.1,5.2,0.4,4.8-3
		C1737,542.3,1734.7,541.3,1733.3,540.2z M1719.4,546.8c1.1-0.3,2.5-0.3,3.3-0.8c0.8-0.7,1.1-1.9,1.6-3c-1.4-0.7-2.7-1.9-4.1-1.9
		c-1.8,0-3.6,1.1-5.4,1.6c0.4,1.1,0.7,2.3,1.4,3C1717.1,546.5,1718.3,546.5,1719.4,546.8z"/>
	<path class="st5" d="M1774,513.6c0,10.6,0,21,0,31.6c0,1.1-0.8,2.2-1.4,3.4c-0.5-1.1-1.6-2.2-1.6-3.4c-0.1-20.6-0.1-41.2,0-61.7
		c0-2.3-0.7-3.4-2.9-4.1c-4.3-1.5-8.5-3.4-12.6-5.2c-0.5-0.3-1-1-1.5-1.4c0.8-0.4,1.8-1.5,2.5-1.2c5.5,2.2,11,4.4,16.3,6.9
		c0.8,0.4,1.4,2.6,1.4,3.8C1774.1,492.5,1774,503.1,1774,513.6z"/>
	<path class="st6" d="M1674,488.2c16.1,1.1,32.1,2.3,48.1,3.6c1,0.1,1.8,1.2,2.6,1.8c-1,0.3-1.9,1-2.7,1c-14.1-1-28.2-1.9-42.3-3
		c-2.6-0.1-5.2-0.1-7.8-0.5c-1-0.1-1.8-1.2-2.7-1.8c1-0.3,1.8-0.8,2.7-1C1672.6,488,1673.3,488.2,1674,488.2L1674,488.2z"/>
	<path class="st4" d="M1737.8,504c1.1-1.2,2.3-2.5,3.4-3.8c1-1.1,3.3-2.2,0.1-3.6c-0.1,0,0-1.4,0.3-1.8c3.3-3.7,6.6-7.4,10-11.3
		c1.9-2.2,2.9,0.3,4.1,1.1c0.3,0.1-0.1,1.9-0.7,2.5c-2.2,2.2-4.5,4.1-7.1,6.3c1.5,0.4,2.6,0.8,4.9,1.5c-5.4,3.4-10,6.5-14.7,9.5
		C1738.1,504.4,1738,504.2,1737.8,504z"/>
	<path class="st2" d="M1752.5,510.5c1.1,1.2,1.8,2.2,2.9,3.4c-6.2,0-11.8,0-18.4,0c3.2-0.7,5.4-1.2,7.6-1.8c0.7-0.1,1.2-0.7,1.9-1.1
		c-3-4.1,1.6-3,2.7-3.4c3.4-1.4,7.3-1.9,10.9-3.2c2.6-0.8,2.6,1.1,3.2,2.5c0.8,2.1-0.8,1.9-1.9,2.1
		C1758.4,509.6,1755.7,510,1752.5,510.5z"/>
	<path class="st3" d="M1751.2,532.2c-4.5-2.9-8.4-5.4-12.2-7.8c0-0.1,0.1-0.4,0.1-0.5c2.2,0.7,4.3,1.2,6.7,2.1
		c-0.1-2.7,1.4-2.6,3.4-1.8c3.2,1.2,6.5,2.3,9.8,3.3c2.2,0.7,2.1,1.9,1.5,3.6c-0.7,2.2-1.9,0.7-2.9,0.4c-1.2-0.4-2.6-1-3.7-1.6
		C1751.7,528.3,1750.6,528.7,1751.2,532.2z"/>
	<path class="st5" d="M1727.8,594.6c-0.8,1-1.5,1.8-2.3,2.6c-0.4-1.1-1-2.1-1.1-3.2c-0.1-1-0.1-2.1,0-3c0.1-1.2,0.4-3.4,0.8-3.6
		c1.8-0.3,3.8,0,5.6,0.4c0.7,0.1,1.5,1.6,1.4,2.5c-0.4,2.1-1.8,3.8-0.4,6c-0.8,0.1-1.9,0.7-2.5,0.4
		C1728.5,596.3,1728.1,595.2,1727.8,594.6z"/>
	<path class="st3" d="M1706.2,592.6c0,1,0.1,2.1,0,3c-0.1,0.5-0.8,1.1-1.4,1.6c-1.2-4.1-5.4,2.3-6.3-1.5c-0.5-2.2-0.1-4.5,0-6.9
		c0.1-2.2,1.4-1.9,2.7-1c0.4,0.3,1.1,0.5,1.6,0.4c0.8-0.1,1.8-0.5,2.6-1c0.3,0.8,0.5,1.6,0.7,2.5
		C1706.4,590.8,1706.2,591.6,1706.2,592.6L1706.2,592.6z"/>
	<path class="st5" d="M1713.8,594.6c1.6,0.1,2.5,0,3.4,0.3c0.7,0.3,1.4,0.8,2.1,1.2c-0.7,0.4-1.5,0.8-2.2,1c-1,0.1-2.1,0.1-3,0
		c-1.8,0-3-0.7-2.7-2.9c0.1-0.7,0-1.4,0-2.1c0-5.2,1.5-6.3,6.7-5.1c0.5,0.1,1,0.8,1.4,1.1c-0.4,0.3-0.8,0.8-1.2,1
		c-0.8,0.1-1.8,0-2.7,0.3c-0.3,0.1-0.4,0.8-0.5,1.4C1718.5,592.3,1715,593.1,1713.8,594.6z"/>
	<path class="st6" d="M1672.6,592.3c0-4.3,2.3-6.3,5.8-4.8c0.8,0.4,1.2,1.6,1.9,2.5c-0.8,0.1-1.6,0.1-2.5,0.3
		c-0.7,0.1-2.1,0.3-2.1,0.4c0,1.4,0.3,2.7,0.4,4.1c0.3-0.1,0.5-0.3,0.8-0.4c-1.5-1.6-1.1-2.5,1-2.3c0.8,0,1.6,0.7,2.3,1.1
		c-0.7,1.2-1,3.3-1.9,3.7C1674.9,598.6,1672.6,596.5,1672.6,592.3z"/>
	<path class="st5" d="M1693.2,596.1c-0.3,0.3-0.5,1-1,1c-1.9,0.1-3.8,0.1-5.6,0c-0.3,0-0.8-1.1-0.7-1.5c0.5-2.3,1.1-4.7,1.8-6.9
		c0.3-0.7,1.1-1.4,1.8-1.4c0.4-0.1,1.4,0.7,1.6,1.2C1691.8,590.9,1692.4,593.4,1693.2,596.1z"/>
	<path class="st4" d="M1780.8,540.4c1.6,1.4,4,2.5,4.9,4.1c0.8,1.5-2.3,4-4.8,4.1c-2.2,0.1-2.6-0.8-2.6-2.9
		C1778.4,541.2,1778.2,541.2,1780.8,540.4z"/>
	<path class="st4" d="M1627.1,545.7c-0.7,0.8-1.5,2.5-2.5,2.7c-2.5,0.5-5.9-2.2-5.5-4c0.5-2.7,3-3,5.4-3.3
		C1627.9,540.8,1626.2,543.5,1627.1,545.7z"/>
	<path class="st6" d="M1706.2,606.3c-0.4,1.4-1,2.9-1.5,4.4c-1.1,0-2.7-0.1-4.5-0.3c-0.3-1.1-0.8-2.7-1.2-4.1c1.2-1,2.5-1.9,3.6-2.7
		C1703.6,604.4,1705,605.3,1706.2,606.3z"/>
	<path class="st5" d="M1704.2,537.6c-0.7,1.6-1.2,2.9-1.8,4.3c-0.5-1.4-1.4-2.7-1.4-4.3c0-1.5,0.8-3.2,1.2-4.7
		C1702.8,534.4,1703.5,536,1704.2,537.6z"/>
	<path class="st5" d="M1684.3,506c0.7,1,1.6,1.8,1.5,2.1c-0.3,0.8-1.2,1.8-1.9,1.8c-0.7,0-1.4-1.1-2.1-1.6
		C1682.5,507.5,1683.2,507,1684.3,506z"/>
	<path class="st5" d="M1705,529c1.6-1.8,1.2-3.4-0.3-4.9c0.3,0,0.5,0,0.8,0c2.5,1.8,1.9,3.7,0.1,5.6
		C1705.6,529.5,1705.3,529.2,1705,529z"/>
	<path class="st6" d="M1705.7,524c-0.3,0-0.5,0-0.8,0c-0.1,0-0.3,0.1-0.5,0.1c0.3-0.5,0.4-1.2,0.7-1.8c0.4,0.3,1,0.5,1.4,0.8
		C1706.1,523.5,1705.8,523.7,1705.7,524z"/>
	<path class="st5" d="M1705.7,529.6c-0.7,0.1-1.4,0.1-2.1,0.3c0.4-0.3,0.8-0.5,1.4-1C1705.3,529.2,1705.6,529.5,1705.7,529.6z"/>
	<path class="st4" d="M1737.2,504.6c0,0.1-0.1,0.3-0.1,0.4v-0.1C1737,504.8,1737.2,504.8,1737.2,504.6L1737.2,504.6z"/>
	<path class="st4" d="M1737.2,504.8c0.1-0.3,0.4-0.5,0.5-0.8c0.1,0.1,0.3,0.4,0.4,0.5C1737.8,504.6,1737.6,504.6,1737.2,504.8
		C1737.2,504.6,1737.2,504.8,1737.2,504.8z"/>
	<path class="st7" d="M1717.1,565.9c0-1.6-0.1-3.4,0.1-5.1c0.1-0.8,1.1-1.5,1.8-2.2c0.7,0.7,1.5,1.5,2.2,2.2c0.1,0.1,0,0.4,0,0.7
		c0.1,1.2-0.5,2.9,1.8,2.9c2.6,0,1.5-1.9,1.8-3.2c0.3-1,0.8-1.8,1.2-2.6c0.8,0.7,2.5,1.4,2.5,2.2c0.3,3.6,0.3,7.1,0,10.6
		c0,0.7-1.2,1.4-1.9,2.1c-0.7-0.7-1.5-1.2-1.9-2.1c-0.3-0.5,0.1-1.4-0.1-2.1c-0.3-0.7-1.1-1.6-1.5-1.5c-0.7,0.1-1.6,0.8-1.9,1.6
		c-0.3,0.8,0.1,1.9-0.3,2.6c-0.3,0.5-1.2,1.2-1.9,1.2c-0.7,0-1.8-0.7-1.8-1.2C1717.1,570,1717.2,568,1717.1,565.9L1717.1,565.9z"/>
	<path class="st7" d="M1661.1,565.9c0-0.3,0-0.7,0-1c0-6.5,1.6-7.8,8.1-6.2c2.2,0.5,3.8,1.8,3.7,4.5c-0.1,1.9-0.1,3.8,0,5.8
		c0.1,2.7-1.6,3.7-3.8,4.4c-0.3,0-0.4,0-0.7,0C1659.5,573.3,1661.2,574.6,1661.1,565.9z M1664.9,565.9L1664.9,565.9
		c0,0.5-0.1,1.2,0,1.6c0.4,1.1,1,2.7,1.6,2.9c2.1,0.4,2.6-1.1,2.6-3c-0.1-1.5,0.3-3-0.1-4.4c-0.3-0.7-1.5-1.4-2.5-1.5
		c-0.4-0.1-1.2,1-1.5,1.6C1664.8,564,1664.9,564.9,1664.9,565.9z"/>
	<path class="st7" d="M1693.2,564.4c2.5,0.8,4.4,2.5,3.4,5.4c-0.4,1.5-2.1,3.2-3.4,3.6c-2.6,0.7-5.5,0.7-7.4-1.9
		c-0.4-0.5-0.7-1.9-0.4-2.2c0.7-0.4,1.6-0.7,2.5-0.5c0.8,0.1,1.5,1,2.2,1.2c0.7,0.1,1.5,0,2.2-0.1c0.1,0,0.4-0.8,0.3-0.8
		c-0.5-0.4-1.2-1-1.9-1.1c-4.3-0.8-5.8-2.1-5.6-4.9c0.1-2.9,2.3-3.7,4.5-4.1c2.7-0.5,5.9-0.3,6.9,2.9c1,2.9-1.8,2.1-3.3,2.1
		c-1.1-0.5-2.2-1.1-3.3-1.5c0,0-0.4,0.8-0.7,1.4c1.1,0.4,2.2,0.8,3.2,1.1C1692.8,564.5,1693.1,564.4,1693.2,564.4z"/>
	<path class="st8" d="M1748.8,565.8c0-6,1.4-7.6,6.6-7.1c3.4,0.3,4.8,1.6,4.9,5.2c0,1.4,0,2.7,0,4.1c0,4.3-1.4,5.6-5.8,5.6
		c-4.4,0-5.8-1.2-5.8-5.6C1748.8,567.1,1748.8,566.5,1748.8,565.8z M1756.7,566L1756.7,566c0-0.5,0.3-1.2,0-1.6
		c-0.5-1.1-1.1-2.6-1.9-2.9c-1.8-0.4-2.6,0.8-2.5,2.7c0.1,1.5-0.3,3,0.1,4.4c0.3,0.8,1.4,1.6,2.2,1.8c0.5,0.1,1.5-1,1.9-1.8
		C1756.9,568,1756.7,567,1756.7,566z"/>
	<path class="st7" d="M1643.2,566.2c0,6-1.5,7.7-6.7,7.4c-3.2-0.1-4.8-1.9-4.9-5.2c0-1.1,0-2.3,0-3.4c0-5.2,3.2-7.6,8.1-6.2
		C1642.5,559.4,1643.2,560.8,1643.2,566.2z M1639.6,566.3L1639.6,566.3c0-1,0.4-1.9,0-2.7c-0.5-0.8-1.5-1.5-2.3-2.2
		c-0.7,0.7-1.8,1.4-1.9,2.2c-0.3,1.8-0.1,3.6,0.3,5.4c0.1,0.5,1.2,1.5,1.8,1.4c0.8-0.1,1.8-0.8,2.2-1.5
		C1639.9,568.2,1639.6,567.3,1639.6,566.3z"/>
	<path class="st8" d="M1733,565.8c0-6.3,2.5-8.4,8.2-6.9c2.2,0.7,3.6,1.9,3.3,4.4c-0.1,1.5,0,3,0,4.4c0,4.3-1.5,5.6-5.8,5.6
		c-4.4,0-5.8-1.2-5.8-5.6C1733,567.1,1733,566.5,1733,565.8z M1736.5,565.9c0,0.7-0.3,1.5,0,2.1c0.5,1,1.4,1.8,2.2,2.7
		c0.7-1,1.8-1.8,2.1-2.7c0.4-1.4,0.3-3,0-4.4c-0.1-0.8-1.4-1.9-2.1-1.9c-0.8,0-1.6,1.1-2.1,1.9
		C1736.2,564.1,1736.5,565.1,1736.5,565.9z"/>
	<path class="st9" d="M1701,565.1c-0.1-1.9-0.5-5.1,2.7-5.9c2.3-0.5,4.9,0.1,7.4,0.7c0.7,0.1,0.8,1.9,1.4,3c-1.2,0-2.5,0.1-3.6,0
		c-1-0.1-1.8-0.5-2.7-1c-0.3,1-0.7,1.8-0.8,2.7c-0.1,1,0,2.1,0,3c0,2.7,1.2,2.6,3.3,1.8c1.2-0.4,2.7-0.3,4.1-0.3
		c-0.8,1.2-1.4,3-2.5,3.6C1705,575.8,1701,572.6,1701,565.1z"/>
	<path class="st9" d="M1647.5,565.9c0-1.5-0.3-3,0.1-4.4c0.3-1.1,1.1-2.6,1.9-2.7c2.3-0.5,2.1,1.4,2.1,2.9c0,1.9,0.1,3.8,0,5.8
		c-0.1,1.9,0.4,2.9,2.6,2.9c1,0,1.9,1.2,2.7,1.8c-1,0.4-1.9,1.4-2.9,1.4C1646.5,573.3,1647.5,574.7,1647.5,565.9z"/>
	<path class="st8" d="M1764.6,565.8c0-1.6-0.1-3.4,0.1-5.1c0.1-0.8,1.2-1.9,1.8-1.9c0.8,0.1,2.1,1.1,2.1,1.8
		c0.3,2.3,0.3,4.8,0.1,7.1c-0.1,1.9,0.5,2.6,2.5,2.6c1,0,1.9,1,2.7,1.5c-0.8,0.5-1.8,1.5-2.6,1.6
		C1763.3,573.3,1764.8,574.4,1764.6,565.8z"/>
	<path class="st5" d="M1693.2,564.4c-0.3,0-0.4,0.1-0.7,0c-1.1-0.4-2.2-0.7-3.2-1.1c0.3-0.4,0.7-1.4,0.7-1.4c1.1,0.4,2.2,1,3.3,1.5
		C1693.3,563.8,1693.3,564.1,1693.2,564.4z"/>
	<path class="st9" d="M1647,455.2c-1-1.6-1.9-2.3-1.8-3c0.1-0.8,1-1.5,1.5-2.3c0.5,0.7,1.5,1.4,1.8,2.2
		C1648.7,452.7,1647.9,453.5,1647,455.2z"/>
	<path class="st9" d="M1676,443c-1.1,1-1.9,1.5-2.6,2.1c-0.5-0.7-1.5-1.4-1.5-2.2c0-0.7,1-1.8,1.6-1.9
		C1674.2,441,1674.9,442,1676,443z"/>
	<path class="st8" d="M1697.6,451.6c-0.3-1.4-1.4-3.3,1.2-3.2c1.9,0,5.1-1.1,4.8,2.9c0,1,0,1.8,0.4,2.9c0.8-2.3,1.6-4.8,2.7-7.1
		c0.4-1.1,1.5-2.5,2.5-2.5c1.6-0.1,3.6,0.1,4.1,2.6c0.5,2.5,1.5,4.7,2.5,7c0.1,0.4,0.8,0.7,1.2,1c0,1,0,1.9,0.1,2.9
		c-2.5,0.1-5.2,1-6-2.6c0-0.1-1.9,0.1-2.9,0.4c-0.8,0.3-1.4,1.4-2.1,1.4c-3.4-0.3-7-0.4-10.3-1.2c-2.9-0.7-5.1-2.5-5.5-5.9
		c-0.3-2.5,0.3-4.5,2.6-5.8c2.9-1.6,5.9-1.4,8.9,0c0.4,0.3,1,1.5,0.7,1.9c-0.3,0.5-1.2,1-1.9,1.2c-0.4,0.1-1-0.3-1.4-0.3
		c-1.4,0.4-2.7,0.8-4.3,1.2c0.5,1.4,1.2,2.6,1.8,4c0.5,0,1.1-0.1,1.6-0.1C1698.3,452,1697.9,451.9,1697.6,451.6z"/>
	<path class="st1" d="M1717.2,457.9c0-1,0-1.9-0.1-2.9c0.1-2.2,0-4.4,0.3-6.5c0.1-1.1,1.5-2.9,1.8-2.9c1.5,0.4,3,1.2,4.3,2.3
		c0.7,0.5,0.7,1.8,1.1,2.9c1.1-1.5,1.8-3.4,3.2-4c2.6-1.1,4.4,0.4,4.5,3.4c0,1,0.1,1.8,0.1,2.7c0,2.2,0.1,4.5,0.1,6.7
		c-3.4,0.8-4.9-0.7-4.5-3.8c-1.1,1-2.2,2.6-3.6,2.9c-0.8,0.1-2.2-1.6-3.2-2.6C1720.8,457.8,1720.1,460.3,1717.2,457.9z"/>
	<path class="st8" d="M1733.6,453.3c0.3-6,0.3-6,6.3-5.1c0.5,0.1,1.2,0,1.6,0.3c0.7,0.5,1.2,1.4,1.8,2.1c-0.7,0.5-1.2,1.1-2.1,1.4
		c-0.7,0.3-1.5,0-1.9,0c1.1,1,2.3,2.1,3.6,3.3c-1.5,0.5-2.9,1.1-4.9,1.9c1.5,0.3,2.7,0.4,3.7,0.8c0.7,0.3,1.1,1.2,1.6,1.9
		c-0.7,0.5-1.4,1.5-2.1,1.5c-2.6-0.3-5.1-0.8-7.7-1.2C1733.7,457.8,1733.6,455.5,1733.6,453.3z"/>
	<path class="st5" d="M1733.6,453.3c0.1,2.3,0.1,4.5,0.3,6.9c-0.4,0-0.7-0.1-1.1-0.1c0-2.2-0.1-4.5-0.1-6.7
		C1732.9,453.3,1733.2,453.3,1733.6,453.3z"/>
	<path class="st6" d="M1700.8,521.9c0.5,0,1,0.1,1.5,0.1c0,0.1,0,0.3,0,0.4c-0.5,0-1,0.1-1.5,0.1
		C1700.8,522.4,1700.8,522.2,1700.8,521.9z"/>
	<path class="st1" d="M1700.8,521.9c0,0.3,0,0.4,0,0.7c-0.4-0.1-1-0.3-1.4-0.4C1699.8,522.1,1700.3,522.1,1700.8,521.9z"/>
	<path class="st7" d="M1733.3,540.2c1.4,1.1,3.7,2.2,3.8,3.4c0.4,3.4-2.6,3-4.8,3c-2.1,0.1-4.5-0.1-4.5-2.9
		C1727.8,540.4,1730.7,541.3,1733.3,540.2z M1735.2,543.4c0-0.1,0-0.4,0-0.5c-1.5,0-3,0-4.5,0c0,0.1,0,0.4,0,0.5
		C1732.2,543.4,1733.7,543.4,1735.2,543.4z"/>
	<path class="st7" d="M1719.4,546.8c-1.1-0.3-2.5-0.3-3.2-1c-0.8-0.7-1-2.1-1.4-3c1.8-0.5,3.6-1.6,5.4-1.6c1.4,0,2.7,1.2,4.1,1.9
		c-0.5,1-0.8,2.3-1.6,3C1722,546.7,1720.7,546.5,1719.4,546.8z M1722.2,543.4c0-0.1,0-0.4,0-0.5c-1.5,0-3,0-4.5,0c0,0.1,0,0.4,0,0.5
		C1719.2,543.4,1720.7,543.4,1722.2,543.4z"/>
	<path class="st5" d="M1639.6,566.3c0,1,0.3,1.9-0.1,2.6c-0.4,0.7-1.4,1.4-2.2,1.5c-0.5,0.1-1.6-0.8-1.8-1.4
		c-0.3-1.8-0.4-3.6-0.3-5.4c0.1-0.8,1.2-1.5,1.9-2.2c0.8,0.7,1.8,1.4,2.3,2.2C1640,564.4,1639.6,565.5,1639.6,566.3L1639.6,566.3z"
		/>
	<path class="st9" d="M1735.2,543.4c-1.5,0-3,0-4.5,0c0-0.1,0-0.4,0-0.5c1.5,0,3,0,4.5,0C1735.2,543.1,1735.2,543.2,1735.2,543.4z"
		/>
	<path class="st9" d="M1722.2,543.4c-1.5,0-3,0-4.5,0c0-0.1,0-0.4,0-0.5c1.5,0,3,0,4.5,0C1722.2,543.1,1722.2,543.2,1722.2,543.4z"
		/>
</g>
</svg>
