<?xml version="1.0" encoding="utf-8"?>
<!-- Generator: Adobe Illustrator 25.0.0, SVG Export Plug-In . SVG Version: 6.00 Build 0)  -->
<svg version="1.1" id="Calque_1" xmlns="http://www.w3.org/2000/svg" xmlns:xlink="http://www.w3.org/1999/xlink" x="0px" y="0px"
	 viewBox="0 0 159.1 142" style="enable-background:new 0 0 159.1 142;" xml:space="preserve">
<style type="text/css">
	.st0{fill:#3E4351;}
	.st1{fill:#EBECED;}
	.st2{fill:#EBEBEC;}
	.st3{fill:#EEEFEF;}
	.st4{fill:#E3E3E5;}
	.st5{fill:#E8E9EA;}
	.st6{fill:#4B505D;}
	.st7{fill:#464C58;}
	.st8{fill:#545965;}
</style>
<g>
	<path class="st0" d="M147,77.5c3.4,2.9,6.7,5.7,10,8.5c0.4,0.4,1,0.7,1.3,1.1c0.4,0.7,0.9,1.6,0.7,2.1c-0.2,0.5-1.3,1-2,1
		c-3.6,0.1-7.2,0.1-10.7,0c-2.1-0.1-2.7,0.7-2.6,2.7c0.1,3.2,0.1,6.5,0,9.7c-0.1,4.2-2.3,7.1-6.4,8.1c-1.5,0.4-2.1,1-2,2.5
		c0.1,1,0,2,0,3c0,3.4-1.1,5.2-4.1,6.4c-16.2,6.3-32.5,12.7-48.8,18.9c-1.5,0.6-3.5,0.6-5,0.1c-16.4-6.2-32.7-12.6-49-19
		c-2.7-1.1-4.2-2.9-4.1-5.9c0-0.7-0.1-1.5,0-2.2c0.2-2.1,0-3.5-2.7-4c-3.3-0.6-5.5-4-5.6-7.4c-0.1-3.5-0.2-7,0-10.5
		c0.1-1.9-0.6-2.4-2.4-2.4c-3.7,0.1-7.3,0.1-11,0c-0.8,0-1.7-0.7-2.5-1c0.4-0.8,0.6-1.9,1.3-2.5c3.1-2.8,6.3-5.4,9.5-8.1
		c1-0.9,1.3-1.3,0-2.3c-3.3-2.6-6.4-5.3-9.5-8.1c-0.7-0.6-0.9-1.6-1.3-2.5c0.8-0.4,1.7-1,2.5-1.1c6.2-0.1,12.5-0.1,18.7,0
		c2.3,0.1,3.2-0.5,3.1-3c-0.2-7.7-0.1-15.3-0.1-23c0-6.1,0.4-6.8,6.2-9c2-0.7,2.7-1.6,2.5-3.7c-0.3-4-0.2-8-0.4-12
		c-0.1-2,0.6-3.1,2.5-3.8C43.8,7,52.5,3.5,61.4,0.4c1.8-0.6,4.1-0.4,6.1-0.1c15.2,2.1,30.3,4.2,45.4,6.4c3,0.4,4.1,1.5,4.4,4.5
		c0.5,4.1,0.6,8.3,1.2,12.4c0.1,0.9,1,2,1.8,2.4c3.2,1.5,6.5,2.9,9.9,4.1c3.8,1.3,5.3,3.7,5.2,7.7c-0.2,8.1,0,16.2-0.1,24.2
		c0,2.1,0.6,2.6,2.7,2.6c5.8-0.1,11.7-0.1,17.5,0c1.2,0,2.5,0.7,3.7,1.1c-0.7,1-1.2,2.2-2.2,3.1C153.8,71.8,150.4,74.6,147,77.5z
		 M105,53.8c-0.1,0-0.1,0-0.2,0.1c0,0,0,0.1,0,0.1C104.9,53.9,105,53.8,105,53.8c0.2-0.1,0.5-0.1,0.7-0.2c3.4-2.2,6.8-4.4,10.7-6.9
		c-1.7-0.5-2.5-0.8-3.6-1.1c1.9-1.6,3.6-3.1,5.2-4.6c0.4-0.4,0.7-1.7,0.5-1.8c-0.9-0.6-1.5-2.4-3-0.8c-2.4,2.7-4.9,5.4-7.3,8.2
		c-0.3,0.3-0.3,1.3-0.2,1.3c2.3,1,0.6,1.8-0.1,2.6c-0.8,0.9-1.6,1.8-2.5,2.8C105.3,53.4,105.2,53.6,105,53.8z M82.1,67.8
		c0.2-0.2,0.3-0.4,0.5-0.6c0.6-0.3,1.5-0.5,1.7-0.9c2.4-4.7,4.1-9.7,2.9-15.1c-0.1-0.6-0.2-1.5,0.1-1.8c1.2-1.2,5.5,0.4,5.8,2.1
		c1,5.6,1.9,11.1,2.9,16.7c0.3,1.9-0.3,2.8-2.3,2.8c-2.7-0.1-5.4-0.1-8.1,0c-0.6,0-1.3,0.5-1.9,0.8c0.6,0.3,1.2,0.8,1.8,0.8
		c3.3,0.1,6.7,0,10,0c2.2,0,3.2-1,2.8-3.3c-1.1-6.1-2.1-12.3-3-18.5c-0.3-2.3-1.2-3.4-3.6-3.5c-6.7-0.3-13.5-0.7-20.2-1.1
		c-3.2-0.2-6.5-0.5-9.7-0.4c-0.9,0-2.6,1.1-2.6,1.8c0,2.5,0.5,5.1,0.8,7.7c0.2,0,0.5,0,0.7-0.1c-0.1-1.6-0.2-3.2-0.3-4.9
		c-0.1-2.1,0.8-2.8,2.9-2.4c-0.4,0.9-1,1.7-1,2.4c0.1,1.2,0.2,2.9,1,3.5c0.8,0.6,2.8,0.5,3.6-0.1c1.2-0.9,2.3-2.4,2.7-3.9
		c0.4-1.3,0.6-1.8,2-1.7c3,0.3,6,0.3,9,0.5c3.4,0.2,3.6,0.7,3.4,4.2c-0.4,7-12.8,18.8-20.2,17c-0.4-0.1-1,0.3-1.4,0.4
		c0.2,0.5,0.3,1.2,0.6,1.5c0.4,0.4,1,0.6,1.6,0.6c3.2,0.1,6.5,0.1,9.7,0.2c1.2,0,1.9-0.2,1.3-1.8c-0.6-1.6-0.2-3.1,1.1-3.7
		c0.9,0.9,1.6,2,2.4,2.2c0.7,0.1,1.6-0.9,2.3-1.4c0.1,0,0.2-0.1,0.4-0.1c1,1.2,1.4,2.3,0.2,3.6c-0.3,0.2-0.6,0.4-1,0.7
		c0.5-0.1,1-0.1,1.5-0.2C83.5,70.5,83.9,69.1,82.1,67.8z M79,108.2c5.7,0,11.5,0,17.2,0c12.8,0,25.6-0.1,38.4-0.2
		c4.2,0,5.9-1.9,6-6.2c0-4.2,0-8.5,0-12.7c0-1.1-0.3-1.4-1.4-1.2c-1.8,0.3-3.6,0.5-5.4,0.5c-36.3,0-72.6,0-108.9,0
		c-1.4,0-2.8-0.1-4.2-0.5c-1.4-0.4-1.8-0.1-1.8,1.3c0.1,4.6,0,9.2,0.1,13.7c0.1,2.6,1.8,4.5,4.4,5c1.2,0.2,2.5,0.2,3.7,0.2
		C44.4,108.2,61.7,108.2,79,108.2z M69.8,85.7c0.1-0.2,0.2-0.4,0.3-0.7c-3.4-2.2-6.9-4.3-10.2-6.6c-0.9-0.6-1.7-1.8-1.8-2.9
		c-1.6-11-3.2-22-4.6-33.1c-0.2-1.6,0.3-3.7,1.3-5c2.6-3.6,5.7-6.9,8.4-10.5c0.9-1.1,1.4-2.9,1.4-4.3c-0.3-5.7-1-11.4-1.5-17.2
		c-0.2-1.9-0.9-2.1-2.6-1.4C53.2,6.8,46,9.6,38.8,12.2C36.6,13,35.9,14,36,16.3c0.6,22.4,1.1,44.8,1.5,67.2c0,1.7,0.6,2.2,2.2,2.2
		c4.3-0.1,8.7,0,13,0C58.4,85.7,64.1,85.7,69.8,85.7z M110.2,27.3c4.6,0.2,5-0.1,4.8-3.8c-0.2-3.6-0.7-7.1-0.9-10.7
		c-0.1-2.1-1-2.9-3-3.2C102.1,8.5,93,7.1,84,5.8c-4.8-0.7-9.5-1.4-14.3-2c-3-0.4-4.3,0.5-4.1,2.8c0.4,4.4,0.9,8.8,1.3,13.2
		c0.2,2.2,1.3,2.9,3.4,3.1c3.7,0.3,7.4,0.8,11.2,1.2C91.3,25.2,101.2,26.3,110.2,27.3z M94.2,42.1c0.4-0.1,1.4-0.4,2.1-0.9
		c3.7-2.6,7.3-5.2,10.9-7.9c0.6-0.5,1-1.2,1.5-1.8c-0.7-0.3-1.4-0.7-2.2-0.8c-12.6-1.4-25.1-2.8-37.7-4.1c-0.9-0.1-2.2,0.1-2.7,0.7
		c-2.8,3.1-5.6,6.4-8.2,9.7c-0.9,1.1-1,2.1,1,2.2C70.5,40.2,82,41.1,94.2,42.1z M132.2,114.6c-0.5-1.3-1.2-3.7-1.4-3.6
		c-2.3,0.5-1.2,2.5-1.2,3.9c0,1.6-0.4,2.5-2,3.1c-15.4,5.9-30.8,12-46.2,17.9c-1,0.4-2.3,0.3-3.3,0c-14.5-5.6-28.9-11.3-43.4-16.8
		c-3.3-1.2-5.6-2.5-4.7-6.5c0.1-0.4,0-1.1-0.1-1.2c-0.6-0.2-1.2-0.1-1.8-0.1c-0.1,2.2-0.4,4.3-0.1,6.4c0.1,0.8,1.7,1.7,2.7,2.1
		c15.4,6.1,30.9,12.1,46.4,18c1.6,0.6,3.8,0.6,5.4,0c15.3-5.8,30.5-11.8,45.7-17.7C131,119.1,132.5,117.7,132.2,114.6z M114.8,85.3
		c0-0.3,0.1-0.7,0.1-1c-3.9-2.1-7.7-4.2-11.6-6.3c-0.8-0.4-1.8-0.5-2.7-0.5c-5.5,0-11,0.1-16.5,0.2c-0.9,0-1.7,0.6-2.5,0.8
		c0.6,0.7,1.1,1.4,1.7,2.1c0.4,0.5,1.1,1,1.1,1.5c0,0.5-0.7,1.2-1.2,1.3c-2,0.3-4,0.6-6.1,0.4c-0.9,0-1.7-1-2.6-1.5
		c0.7-0.7,1.4-1.3,2.1-2.1c0.4-0.5,0.9-1.1,0.8-1.5c0-0.4-0.9-0.9-1.3-0.9c-4.3-0.1-8.6,0-12.9,0c2.9,2.6,5.9,4.7,9.1,6.5
		c1.4,0.8,3.2,1.4,4.9,1.4c8.4,0,16.8-0.2,25.2-0.3C106.5,85.2,110.7,85.3,114.8,85.3z M6.2,67.7C6.1,67.9,6,68.1,6,68.3
		c2.1,1.7,4.1,3.5,6.1,5.2c5,4.5,5.5,3.3-0.1,8.1c-2,1.7-4,3.5-6,5.3c2.7,0.5,5.1,0.4,7.5,0.6c2.1,0.2,2.7-0.6,2.6-2.6
		c-0.1-4.5,1.4-6.3,5.9-7.1c0.4-0.1,0.9,0,1.2-0.2c0.5-0.3,1.2-0.9,1.2-1.3c0.1-2.3,0.1-4.7,0-7c0-0.5-0.8-1.3-1.2-1.3
		C17.6,67.7,11.9,67.7,6.2,67.7z M153.1,68.3c-0.1-0.2-0.1-0.4-0.2-0.6c-5.5,0-11.1,0-16.6,0.1c-0.4,0-1.1,0.9-1.1,1.4
		c-0.1,2.2-0.2,4.3,0,6.5c0,0.6,0.8,1.6,1.4,1.7c6.1,1.5,6.7,2.2,7.1,8.3c0,0.6,0.6,1.6,0.9,1.6c2.8,0.1,5.7,0.1,8.5,0.1
		c-2.7-3-5.5-5.5-8.4-7.8c-1.7-1.4-1.8-2.5,0-3.9C147.5,73.2,150.2,70.7,153.1,68.3z M131.8,60.2c0-7.7,0-15.3,0-23
		c0-1-0.3-2.5-1-2.8c-3.9-1.9-7.9-3.5-11.9-5c-0.4-0.2-1.2,0.6-1.8,0.9c0.4,0.4,0.7,0.9,1.1,1c3,1.3,6.1,2.7,9.2,3.8
		c1.6,0.6,2.1,1.3,2.1,3c-0.1,15-0.1,30,0,44.9c0,0.8,0.8,1.6,1.2,2.5c0.3-0.8,1-1.6,1-2.5C131.9,75.6,131.8,67.9,131.8,60.2z
		 M27.8,60.2c0,5.1,0,10.2,0,15.2c0,2.9,0,5.8,0.1,8.7c0,0.5,0.6,0.9,1,1.4c0.4-0.4,0.9-0.8,1.1-1.3c0.2-0.5,0-1.1,0-1.7
		c0-14.1,0-28.2,0-42.2c0-2.2-0.8-4.8,2.6-5.5c0.3-0.1,0.6-0.9,0.6-1.4c0-0.2-0.7-0.6-1.1-0.6c-2.9,0.3-4.4,2-4.4,4.9
		C27.8,45.3,27.8,52.7,27.8,60.2z M59,41.7C59,41.7,59,41.7,59,41.7c-0.5,0-1-0.1-1.5,0c-0.7,0.1-1.4,0.5-2,0.7
		c0.7,0.5,1.3,1.2,2,1.3c1.9,0.3,3.8,0.2,5.7,0.4c10.3,0.7,20.5,1.5,30.8,2.2c0.6,0,1.3-0.4,2-0.7c-0.6-0.5-1.3-1.3-1.9-1.3
		C82.3,43.4,70.7,42.5,59,41.7z M116.2,58c2.3-0.4,4.2-0.7,6.2-1c0.9-0.1,2-0.1,1.4-1.5c-0.4-1-0.4-2.4-2.3-1.8
		c-2.6,0.9-5.3,1.3-7.9,2.3c-0.8,0.3-4.2-0.5-2,2.5c-0.5,0.3-0.9,0.6-1.4,0.8c-1.6,0.4-3.2,0.8-5.5,1.3c4.9,0,9,0,13.4,0
		C117.5,59.5,117,58.9,116.2,58z M115.2,73.8c-0.4-2.5,0.4-2.8,2-1.9c0.8,0.5,1.8,0.9,2.7,1.2c0.7,0.2,1.6,1.4,2.1-0.3
		c0.4-1.2,0.5-2.2-1.1-2.6c-2.4-0.7-4.8-1.5-7.1-2.4c-1.5-0.6-2.6-0.7-2.5,1.3c-1.8-0.5-3.3-1-4.9-1.5c0,0.1-0.1,0.3-0.1,0.4
		C109.1,69.9,111.9,71.7,115.2,73.8z M98.2,119.2c0.3,0.4,0.5,1.2,1,1.6c0.4,0.2,1.2-0.2,1.8-0.3c-1-1.6,0-2.9,0.3-4.4
		c0.1-0.5-0.5-1.6-1-1.8c-1.3-0.4-2.8-0.5-4.1-0.3c-0.3,0-0.5,1.7-0.6,2.6c-0.1,0.7-0.1,1.5,0,2.2c0.2,0.8,0.6,1.5,0.8,2.3
		C97,120.5,97.6,119.9,98.2,119.2z M82.5,117.7C82.5,117.7,82.5,117.7,82.5,117.7c0-0.7,0.1-1.3,0-2c-0.1-0.6-0.3-1.2-0.5-1.8
		c-0.6,0.2-1.2,0.5-1.9,0.7c-0.4,0.1-0.9-0.1-1.2-0.3c-1-0.7-1.9-0.9-2,0.7c-0.1,1.7-0.4,3.4,0,5c0.7,2.9,3.7-1.9,4.6,1.1
		c0.3-0.4,0.9-0.7,1-1.2C82.6,119.2,82.5,118.5,82.5,117.7z M88,119.2c0.9-1.1,3.4-1.7,0.7-2.7c0.1-0.3,0.2-0.9,0.4-1
		c0.6-0.2,1.3,0,2-0.2c0.3-0.1,0.6-0.5,0.9-0.7c-0.3-0.3-0.6-0.8-1-0.8c-3.8-0.9-4.9-0.1-4.9,3.7c0,0.5,0.1,1,0,1.5
		c-0.2,1.6,0.6,2.1,2,2.1c0.7,0,1.5,0.1,2.2,0c0.6-0.1,1.1-0.5,1.6-0.7c-0.5-0.3-0.9-0.7-1.5-0.9C89.8,119.3,89.1,119.3,88,119.2z
		 M58,117.5c0,3.1,1.7,4.6,4.2,3.4c0.7-0.4,1-1.8,1.4-2.7c-0.6-0.3-1.1-0.8-1.7-0.8c-1.6-0.1-1.9,0.5-0.7,1.7
		c-0.2,0.1-0.4,0.2-0.6,0.3c-0.1-1-0.3-2-0.3-3c0-0.1,1-0.2,1.5-0.3c0.6-0.1,1.2-0.1,1.8-0.2c-0.4-0.6-0.8-1.5-1.4-1.8
		C59.6,112.9,58,114.3,58,117.5z M73,120.3c-0.5-2-0.9-3.8-1.5-5.6c-0.1-0.4-0.8-1-1.2-0.9c-0.5,0.1-1.2,0.6-1.3,1
		c-0.6,1.6-1,3.3-1.3,5c-0.1,0.3,0.3,1.1,0.5,1.1c1.4,0.1,2.8,0.1,4.1,0C72.6,121.1,72.8,120.5,73,120.3z M136.8,79.7
		c-1.9,0.6-1.8,0.6-1.8,3.9c0,1.4,0.3,2.2,1.9,2.1c1.9-0.1,4.2-1.9,3.5-3C139.7,81.4,138.1,80.7,136.8,79.7z M24.9,83.6
		C24.2,82,25.5,80,23,80.3c-1.7,0.2-3.5,0.4-3.9,2.4c-0.3,1.4,2.1,3.3,4,2.9C23.8,85.4,24.4,84.2,24.9,83.6z M82.5,127.7
		c-0.9-0.7-1.9-1.4-2.7-2c-0.8,0.6-1.7,1.3-2.6,2c0.3,1,0.7,2.2,0.9,3c1.3,0.1,2.4,0.1,3.3,0.2C81.7,129.8,82.1,128.7,82.5,127.7z
		 M81,77.7c-0.5-1.2-1-2.3-1.4-3.4c-0.3,1.1-0.9,2.3-0.9,3.4c0,1,0.6,2.1,1,3.1C80.1,79.9,80.5,78.9,81,77.7z M66.5,54.7
		c-0.8,0.7-1.2,1.2-1.7,1.6c0.5,0.4,1,1.3,1.5,1.2c0.5,0,1.2-0.7,1.4-1.3C67.7,56,67,55.4,66.5,54.7z"/>
	<path class="st1" d="M81.1,67.9c-0.8,0.5-1.7,1.5-2.3,1.4c-0.8-0.2-1.5-1.3-2.4-2.2c-1.3,0.6-1.7,2.1-1.1,3.7
		c0.6,1.6-0.1,1.8-1.3,1.8c-3.2,0-6.5-0.1-9.7-0.2c-0.5,0-1.2-0.2-1.6-0.6c-0.4-0.4-0.4-1-0.6-1.5c0.5-0.2,1-0.5,1.4-0.4
		c7.4,1.7,19.8-10,20.2-17c0.2-3.4,0-4-3.4-4.2c-3-0.2-6-0.3-9-0.5c-1.4-0.1-1.6,0.3-2,1.7c-0.4,1.5-1.5,3-2.7,3.9
		c-0.8,0.6-2.8,0.7-3.6,0.1c-0.8-0.6-0.9-2.3-1-3.5c0-0.7,0.6-1.5,1-2.4c-2-0.4-3,0.3-2.9,2.4c0.1,1.6,0.2,3.2,0.3,4.9
		c-0.2,0-0.5,0-0.7,0.1c-0.3-2.6-0.8-5.1-0.8-7.7c0-0.6,1.7-1.7,2.6-1.8c3.2-0.1,6.5,0.2,9.7,0.4c6.7,0.4,13.5,0.8,20.2,1.1
		c2.4,0.1,3.3,1.1,3.6,3.5c0.9,6.2,1.9,12.3,3,18.5c0.4,2.3-0.5,3.3-2.8,3.3c-3.3,0-6.7,0-10,0c-0.6,0-1.2-0.5-1.8-0.8
		c0.6-0.3,1.3-0.8,1.9-0.8c2.7-0.1,5.4-0.1,8.1,0c2,0.1,2.7-0.9,2.3-2.8c-1-5.6-1.9-11.1-2.9-16.7c-0.3-1.7-4.6-3.3-5.8-2.1
		c-0.3,0.3-0.2,1.2-0.1,1.8c1.1,5.5-0.5,10.4-2.9,15.1c-0.2,0.5-1.1,0.6-1.7,0.9c-0.3-0.2-0.7-0.4-1-0.6
		C81.4,67,81.2,67.5,81.1,67.9z M78.5,66.3c-0.3,0.1-0.7,0.2-1,0.2c0.3,0.1,0.7,0.2,1,0.3c0.4,0,0.7-0.1,1.1-0.1c0-0.1,0-0.2,0-0.3
		C79.3,66.4,78.9,66.3,78.5,66.3z"/>
	<path class="st2" d="M132.2,114.6c0.2,3.1-1.2,4.5-3.9,5.5c-15.3,5.8-30.5,11.9-45.7,17.7c-1.6,0.6-3.8,0.7-5.4,0
		c-15.5-5.9-31-11.9-46.4-18c-1.1-0.4-2.6-1.3-2.7-2.1c-0.3-2.1,0-4.3,0.1-6.4c0.6,0,1.3,0,1.8,0.1c0.1,0,0.2,0.8,0.1,1.2
		c-0.9,4,1.4,5.3,4.7,6.5c14.5,5.4,28.9,11.2,43.4,16.8c1,0.4,2.3,0.4,3.3,0c15.4-5.9,30.8-12,46.2-17.9c1.6-0.6,2-1.5,2-3.1
		c0-1.4-1.1-3.4,1.2-3.9C131,110.9,131.7,113.3,132.2,114.6z"/>
	<path class="st3" d="M114.8,85.3c-4.1,0-8.2,0-12.4,0c-8.4,0.1-16.8,0.3-25.2,0.3c-1.6,0-3.4-0.6-4.9-1.4c-3.2-1.8-6.2-4-9.1-6.5
		c4.3,0,8.6,0,12.9,0c0.5,0,1.3,0.6,1.3,0.9c0,0.5-0.5,1.1-0.8,1.5c-0.6,0.7-1.4,1.4-2.1,2.1c0.9,0.5,1.7,1.5,2.6,1.5
		c2,0.1,4.1-0.2,6.1-0.4c0.5-0.1,1.2-0.8,1.2-1.3c0-0.5-0.7-1-1.1-1.5c-0.6-0.7-1.1-1.4-1.7-2.1c0.8-0.3,1.7-0.8,2.5-0.8
		c5.5-0.1,11-0.2,16.5-0.2c0.9,0,1.9,0.1,2.7,0.5c3.9,2,7.7,4.2,11.6,6.3C114.9,84.6,114.8,84.9,114.8,85.3z M102.2,79.6
		c-1.9,0.8-4,0.1-4,2.6c0,2,1.7,2.2,3.3,2.1c1.6-0.1,3.8,0.3,3.5-2.2C104.9,81.1,103.2,80.4,102.2,79.6z M92.1,84.4
		c0.8-0.2,1.8-0.2,2.4-0.6c0.6-0.5,0.8-1.4,1.2-2.2c-1-0.5-2-1.4-3-1.4c-1.3,0-2.6,0.8-3.9,1.2c0.3,0.8,0.5,1.7,1,2.2
		C90.4,84.2,91.3,84.2,92.1,84.4z"/>
	<path class="st4" d="M131.8,60.2c0,7.7,0,15.3,0,23c0,0.8-0.6,1.6-1,2.5c-0.4-0.8-1.2-1.6-1.2-2.5c-0.1-15-0.1-30,0-44.9
		c0-1.7-0.5-2.5-2.1-3c-3.1-1.1-6.2-2.5-9.2-3.8c-0.4-0.2-0.7-0.7-1.1-1c0.6-0.3,1.3-1.1,1.8-0.9c4,1.6,8,3.2,11.9,5
		c0.6,0.3,1,1.9,1,2.8C131.9,44.9,131.8,52.6,131.8,60.2z"/>
	<path class="st5" d="M59,41.7c11.7,0.8,23.4,1.7,35,2.6c0.7,0.1,1.3,0.9,1.9,1.3c-0.7,0.2-1.4,0.7-2,0.7
		c-10.3-0.7-20.5-1.4-30.8-2.2c-1.9-0.1-3.8-0.1-5.7-0.4c-0.7-0.1-1.3-0.9-2-1.3c0.7-0.2,1.3-0.6,2-0.7C58,41.6,58.5,41.7,59,41.7
		C59,41.7,59,41.7,59,41.7z"/>
	<path class="st3" d="M105.5,53.2c0.8-0.9,1.7-1.8,2.5-2.8c0.7-0.8,2.4-1.6,0.1-2.6c-0.1,0,0-1,0.2-1.3c2.4-2.7,4.8-5.4,7.3-8.2
		c1.4-1.6,2.1,0.2,3,0.8c0.2,0.1-0.1,1.4-0.5,1.8c-1.6,1.6-3.3,3-5.2,4.6c1.1,0.3,1.9,0.6,3.6,1.1c-3.9,2.5-7.3,4.7-10.7,6.9
		C105.7,53.5,105.6,53.4,105.5,53.2z"/>
	<path class="st1" d="M116.2,58c0.8,0.9,1.3,1.6,2.1,2.5c-4.5,0-8.6,0-13.4,0c2.3-0.5,3.9-0.9,5.5-1.3c0.5-0.1,0.9-0.5,1.4-0.8
		c-2.2-3,1.2-2.2,2-2.5c2.5-1,5.3-1.4,7.9-2.3c1.9-0.6,1.9,0.8,2.3,1.8c0.6,1.5-0.6,1.4-1.4,1.5C120.5,57.3,118.5,57.6,116.2,58z"/>
	<path class="st2" d="M115.2,73.8c-3.3-2.1-6.1-3.9-8.9-5.7c0-0.1,0.1-0.3,0.1-0.4c1.6,0.5,3.1,0.9,4.9,1.5c-0.1-2,1-1.9,2.5-1.3
		c2.3,0.9,4.7,1.7,7.1,2.4c1.6,0.5,1.5,1.4,1.1,2.6c-0.5,1.6-1.4,0.5-2.1,0.3c-0.9-0.3-1.9-0.7-2.7-1.2
		C115.6,70.9,114.8,71.2,115.2,73.8z"/>
	<path class="st4" d="M98.2,119.2c-0.6,0.7-1.1,1.3-1.7,1.9c-0.3-0.8-0.7-1.5-0.8-2.3c-0.1-0.7-0.1-1.5,0-2.2
		c0.1-0.9,0.3-2.5,0.6-2.6c1.3-0.2,2.8,0,4.1,0.3c0.5,0.1,1.1,1.2,1,1.8c-0.3,1.5-1.3,2.8-0.3,4.4c-0.6,0.1-1.4,0.5-1.8,0.3
		C98.7,120.4,98.4,119.6,98.2,119.2z"/>
	<path class="st2" d="M82.5,117.7c0,0.7,0.1,1.5,0,2.2c-0.1,0.4-0.6,0.8-1,1.2c-0.9-3-3.9,1.7-4.6-1.1c-0.4-1.6-0.1-3.3,0-5
		c0.1-1.6,1-1.4,2-0.7c0.3,0.2,0.8,0.4,1.2,0.3c0.6-0.1,1.3-0.4,1.9-0.7c0.2,0.6,0.4,1.2,0.5,1.8C82.6,116.4,82.5,117,82.5,117.7
		C82.5,117.7,82.5,117.7,82.5,117.7z"/>
	<path class="st4" d="M88,119.2c1.2,0.1,1.8,0,2.5,0.2c0.5,0.2,1,0.6,1.5,0.9c-0.5,0.3-1.1,0.6-1.6,0.7c-0.7,0.1-1.5,0.1-2.2,0
		c-1.3,0-2.2-0.5-2-2.1c0.1-0.5,0-1,0-1.5c0-3.8,1.1-4.6,4.9-3.7c0.4,0.1,0.7,0.6,1,0.8c-0.3,0.2-0.6,0.6-0.9,0.7
		c-0.6,0.1-1.3,0-2,0.2c-0.2,0.1-0.3,0.6-0.4,1C91.4,117.5,88.9,118.1,88,119.2z"/>
	<path class="st5" d="M58,117.5c0-3.1,1.7-4.6,4.2-3.5c0.6,0.3,0.9,1.2,1.4,1.8c-0.6,0.1-1.2,0.1-1.8,0.2c-0.5,0.1-1.5,0.2-1.5,0.3
		c0,1,0.2,2,0.3,3c0.2-0.1,0.4-0.2,0.6-0.3c-1.1-1.2-0.8-1.8,0.7-1.7c0.6,0,1.2,0.5,1.7,0.8c-0.5,0.9-0.7,2.4-1.4,2.7
		C59.7,122.1,58,120.6,58,117.5z"/>
	<path class="st4" d="M73,120.3c-0.2,0.2-0.4,0.7-0.7,0.7c-1.4,0.1-2.8,0.1-4.1,0c-0.2,0-0.6-0.8-0.5-1.1c0.4-1.7,0.8-3.4,1.3-5
		c0.2-0.5,0.8-1,1.3-1c0.3-0.1,1,0.5,1.2,0.9C72,116.5,72.4,118.3,73,120.3z"/>
	<path class="st3" d="M136.8,79.7c1.2,1,2.9,1.8,3.6,3c0.6,1.1-1.7,2.9-3.5,3c-1.6,0.1-1.9-0.6-1.9-2.1
		C135,80.3,134.9,80.3,136.8,79.7z"/>
	<path class="st3" d="M24.9,83.6c-0.5,0.6-1.1,1.8-1.8,2c-1.8,0.4-4.3-1.6-4-2.9c0.4-2,2.2-2.2,3.9-2.4C25.5,80,24.2,82,24.9,83.6z"
		/>
	<path class="st5" d="M82.5,127.7c-0.3,1-0.7,2.1-1.1,3.2c-0.8,0-2-0.1-3.3-0.2c-0.2-0.8-0.6-2-0.9-3c0.9-0.7,1.8-1.4,2.6-2
		C80.6,126.3,81.6,127,82.5,127.7z"/>
	<path class="st4" d="M81,77.7c-0.5,1.2-0.9,2.1-1.3,3.1c-0.4-1-1-2-1-3.1c0-1.1,0.6-2.3,0.9-3.4C80,75.4,80.5,76.5,81,77.7z"/>
	<path class="st4" d="M66.5,54.7c0.5,0.7,1.2,1.3,1.1,1.5c-0.2,0.6-0.9,1.3-1.4,1.3c-0.5,0-1-0.8-1.5-1.2
		C65.2,55.8,65.7,55.4,66.5,54.7z"/>
	<path class="st4" d="M81.6,71.4c1.2-1.3,0.9-2.5-0.2-3.6c0.2,0,0.4,0,0.6,0c1.8,1.3,1.4,2.7,0.1,4.1C82,71.8,81.8,71.6,81.6,71.4z"
		/>
	<path class="st5" d="M82.1,67.8c-0.2,0-0.4,0-0.6,0c-0.1,0-0.2,0.1-0.4,0.1c0.2-0.4,0.3-0.9,0.5-1.3c0.3,0.2,0.7,0.4,1,0.6
		C82.4,67.4,82.2,67.6,82.1,67.8z"/>
	<path class="st4" d="M82.1,71.9c-0.5,0.1-1,0.1-1.5,0.2c0.3-0.2,0.6-0.4,1-0.7C81.8,71.6,82,71.8,82.1,71.9z"/>
	<path class="st3" d="M105,53.7c0,0.1-0.1,0.2-0.1,0.3c0,0,0-0.1,0-0.1C104.9,53.8,105,53.8,105,53.7L105,53.7z"/>
	<path class="st3" d="M105,53.8c0.1-0.2,0.3-0.4,0.4-0.6c0.1,0.1,0.2,0.3,0.3,0.4C105.5,53.7,105.3,53.7,105,53.8
		C105,53.7,105,53.8,105,53.8z"/>
	<path class="st6" d="M90.4,98.3c0-1.2-0.1-2.5,0.1-3.7c0.1-0.6,0.8-1.1,1.3-1.6c0.5,0.5,1.1,1.1,1.6,1.6c0.1,0.1,0,0.3,0,0.5
		c0.1,0.9-0.4,2.1,1.3,2.1c1.9,0,1.1-1.4,1.3-2.3c0.2-0.7,0.6-1.3,0.9-1.9c0.6,0.5,1.8,1,1.8,1.6c0.2,2.6,0.2,5.2,0,7.7
		c0,0.5-0.9,1-1.4,1.5c-0.5-0.5-1.1-0.9-1.4-1.5c-0.2-0.4,0.1-1-0.1-1.5c-0.2-0.5-0.8-1.2-1.1-1.1c-0.5,0.1-1.2,0.6-1.4,1.2
		c-0.2,0.6,0.1,1.4-0.2,1.9c-0.2,0.4-0.9,0.9-1.4,0.9c-0.5,0-1.3-0.5-1.3-0.9C90.4,101.3,90.5,99.8,90.4,98.3
		C90.4,98.3,90.4,98.3,90.4,98.3z"/>
	<path class="st6" d="M49.6,98.3c0-0.2,0-0.5,0-0.7c0-4.7,1.2-5.7,5.9-4.5c1.6,0.4,2.8,1.3,2.7,3.3c-0.1,1.4-0.1,2.8,0,4.2
		c0.1,2-1.2,2.7-2.8,3.2c-0.2,0-0.3,0-0.5,0C48.5,103.7,49.7,104.6,49.6,98.3z M52.4,98.3C52.4,98.3,52.4,98.3,52.4,98.3
		c0,0.4-0.1,0.9,0,1.2c0.3,0.8,0.7,2,1.2,2.1c1.5,0.3,1.9-0.8,1.9-2.2c-0.1-1.1,0.2-2.2-0.1-3.2c-0.2-0.5-1.1-1-1.8-1.1
		c-0.3-0.1-0.9,0.7-1.1,1.2C52.3,96.9,52.4,97.6,52.4,98.3z"/>
	<path class="st6" d="M73,97.2c1.8,0.6,3.2,1.8,2.5,3.9c-0.3,1.1-1.5,2.3-2.5,2.6c-1.9,0.5-4,0.5-5.4-1.4c-0.3-0.4-0.5-1.4-0.3-1.6
		c0.5-0.3,1.2-0.5,1.8-0.4c0.6,0.1,1.1,0.7,1.6,0.9c0.5,0.1,1.1,0,1.6-0.1c0.1,0,0.3-0.6,0.2-0.6c-0.4-0.3-0.9-0.7-1.4-0.8
		c-3.1-0.6-4.2-1.5-4.1-3.6c0.1-2.1,1.7-2.7,3.3-3c2-0.4,4.3-0.2,5,2.1c0.7,2.1-1.3,1.5-2.4,1.5c-0.8-0.4-1.6-0.8-2.4-1.1
		c0,0-0.3,0.6-0.5,1c0.8,0.3,1.6,0.6,2.3,0.8C72.7,97.3,72.9,97.2,73,97.2z"/>
	<path class="st7" d="M113.5,98.2c0-4.4,1-5.5,4.8-5.2c2.5,0.2,3.5,1.2,3.6,3.8c0,1,0,2,0,3c0,3.1-1,4.1-4.2,4.1
		c-3.2,0-4.2-0.9-4.2-4.1C113.5,99.2,113.5,98.7,113.5,98.2z M119.2,98.4C119.2,98.4,119.2,98.4,119.2,98.4c0-0.4,0.2-0.9,0-1.2
		c-0.4-0.8-0.8-1.9-1.4-2.1c-1.3-0.3-1.9,0.6-1.8,2c0.1,1.1-0.2,2.2,0.1,3.2c0.2,0.6,1,1.2,1.6,1.3c0.4,0.1,1.1-0.7,1.4-1.3
		C119.4,99.8,119.2,99.1,119.2,98.4z"/>
	<path class="st6" d="M36.6,98.5c0,4.4-1.1,5.6-4.9,5.4c-2.3-0.1-3.5-1.4-3.6-3.8c0-0.8,0-1.7,0-2.5c0-3.8,2.3-5.5,5.9-4.5
		C36.1,93.6,36.6,94.6,36.6,98.5z M34,98.6C34,98.6,34,98.6,34,98.6c0-0.7,0.3-1.4,0-2c-0.4-0.6-1.1-1.1-1.7-1.6
		c-0.5,0.5-1.3,1-1.4,1.6c-0.2,1.3-0.1,2.6,0.2,3.9c0.1,0.4,0.9,1.1,1.3,1c0.6-0.1,1.3-0.6,1.6-1.1C34.2,100,34,99.3,34,98.6z"/>
	<path class="st7" d="M102,98.2c0-4.6,1.8-6.1,6-5c1.6,0.5,2.6,1.4,2.4,3.2c-0.1,1.1,0,2.2,0,3.2c0,3.1-1.1,4.1-4.2,4.1
		c-3.2,0-4.2-0.9-4.2-4.1C102,99.2,102,98.7,102,98.2z M104.5,98.3c0,0.5-0.2,1.1,0,1.5c0.4,0.7,1,1.3,1.6,2c0.5-0.7,1.3-1.3,1.5-2
		c0.3-1,0.2-2.2,0-3.2c-0.1-0.6-1-1.4-1.5-1.4c-0.6,0-1.2,0.8-1.5,1.4C104.3,97,104.5,97.7,104.5,98.3z"/>
	<path class="st8" d="M78.7,97.7c-0.1-1.4-0.4-3.7,2-4.3c1.7-0.4,3.6,0.1,5.4,0.5c0.5,0.1,0.6,1.4,1,2.2c-0.9,0-1.8,0.1-2.6,0
		c-0.7-0.1-1.3-0.4-2-0.7c-0.2,0.7-0.5,1.3-0.6,2c-0.1,0.7,0,1.5,0,2.2c0,2,0.9,1.9,2.4,1.3c0.9-0.3,2-0.2,3-0.2
		c-0.6,0.9-1,2.2-1.8,2.6C81.6,105.5,78.7,103.2,78.7,97.7z"/>
	<path class="st8" d="M39.7,98.3c0-1.1-0.2-2.2,0.1-3.2c0.2-0.8,0.8-1.9,1.4-2c1.7-0.4,1.5,1,1.5,2.1c0,1.4,0.1,2.8,0,4.2
		c-0.1,1.4,0.3,2.1,1.9,2.1c0.7,0,1.4,0.9,2,1.3c-0.7,0.3-1.4,1-2.1,1C39,103.7,39.7,104.7,39.7,98.3z"/>
	<path class="st7" d="M125,98.2c0-1.2-0.1-2.5,0.1-3.7c0.1-0.6,0.9-1.4,1.3-1.4c0.6,0.1,1.5,0.8,1.5,1.3c0.2,1.7,0.2,3.5,0.1,5.2
		c-0.1,1.4,0.4,1.9,1.8,1.9c0.7,0,1.4,0.7,2,1.1c-0.6,0.4-1.3,1.1-1.9,1.2C124,103.7,125.1,104.5,125,98.2z"/>
	<path class="st4" d="M73,97.2c-0.2,0-0.3,0.1-0.5,0c-0.8-0.3-1.6-0.5-2.3-0.8c0.2-0.3,0.5-1,0.5-1c0.8,0.3,1.6,0.7,2.4,1.1
		C73.1,96.8,73.1,97,73,97.2z"/>
	<path class="st8" d="M39.4,17.7c-0.7-1.2-1.4-1.7-1.3-2.2c0.1-0.6,0.7-1.1,1.1-1.7c0.4,0.5,1.1,1,1.3,1.6
		C40.6,15.9,40,16.5,39.4,17.7z"/>
	<path class="st8" d="M60.5,8.8c-0.8,0.7-1.4,1.1-1.9,1.5c-0.4-0.5-1.1-1-1.1-1.6c0-0.5,0.7-1.3,1.2-1.4C59.2,7.4,59.7,8.1,60.5,8.8
		z"/>
	<path class="st7" d="M76.2,15.1c-0.2-1-1-2.4,0.9-2.3c1.4,0,3.7-0.8,3.5,2.1c0,0.7,0,1.3,0.3,2.1c0.6-1.7,1.2-3.5,2-5.2
		C83.2,11,84,10,84.7,10c1.2-0.1,2.6,0.1,3,1.9c0.4,1.8,1.1,3.4,1.8,5.1c0.1,0.3,0.6,0.5,0.9,0.7c0,0.7,0,1.4,0.1,2.1
		c-1.8,0.1-3.8,0.7-4.4-1.9c0-0.1-1.4,0.1-2.1,0.3c-0.6,0.2-1,1-1.5,1c-2.5-0.2-5.1-0.3-7.5-0.9c-2.1-0.5-3.7-1.8-4-4.3
		c-0.2-1.8,0.2-3.3,1.9-4.2c2.1-1.2,4.3-1,6.5,0c0.3,0.2,0.7,1.1,0.5,1.4c-0.2,0.4-0.9,0.7-1.4,0.9c-0.3,0.1-0.7-0.2-1-0.2
		c-1,0.3-2,0.6-3.1,0.9c0.4,1,0.9,1.9,1.3,2.9c0.4,0,0.8-0.1,1.2-0.1C76.7,15.4,76.4,15.3,76.2,15.1z"/>
	<path class="st0" d="M90.5,19.7c0-0.7,0-1.4-0.1-2.1c0.1-1.6,0-3.2,0.2-4.7c0.1-0.8,1.1-2.1,1.3-2.1c1.1,0.3,2.2,0.9,3.1,1.7
		c0.5,0.4,0.5,1.3,0.8,2.1c0.8-1.1,1.3-2.5,2.3-2.9c1.9-0.8,3.2,0.3,3.3,2.5c0,0.7,0.1,1.3,0.1,2c0,1.6,0.1,3.3,0.1,4.9
		c-2.5,0.6-3.6-0.5-3.3-2.8c-0.8,0.7-1.6,1.9-2.6,2.1c-0.6,0.1-1.6-1.2-2.3-1.9C93.1,19.6,92.6,21.4,90.5,19.7z"/>
	<path class="st7" d="M102.4,16.3c0.2-4.4,0.2-4.4,4.6-3.7c0.4,0.1,0.9,0,1.2,0.2c0.5,0.4,0.9,1,1.3,1.5c-0.5,0.4-0.9,0.8-1.5,1
		c-0.5,0.2-1.1,0-1.4,0c0.8,0.7,1.7,1.5,2.6,2.4c-1.1,0.4-2.1,0.8-3.6,1.4c1.1,0.2,2,0.3,2.7,0.6c0.5,0.2,0.8,0.9,1.2,1.4
		c-0.5,0.4-1,1.1-1.5,1.1c-1.9-0.2-3.7-0.6-5.6-0.9C102.5,19.6,102.4,17.9,102.4,16.3z"/>
	<path class="st4" d="M102.4,16.3c0.1,1.7,0.1,3.3,0.2,5c-0.3,0-0.5-0.1-0.8-0.1c0-1.6-0.1-3.3-0.1-4.9
		C101.9,16.3,102.1,16.3,102.4,16.3z"/>
	<path class="st5" d="M78.5,66.3c0.4,0,0.7,0.1,1.1,0.1c0,0.1,0,0.2,0,0.3c-0.4,0-0.7,0.1-1.1,0.1C78.5,66.6,78.5,66.5,78.5,66.3z"
		/>
	<path class="st0" d="M78.5,66.3c0,0.2,0,0.3,0,0.5c-0.3-0.1-0.7-0.2-1-0.3C77.8,66.4,78.2,66.4,78.5,66.3z"/>
	<path class="st6" d="M102.2,79.6c1,0.8,2.7,1.6,2.8,2.5c0.3,2.5-1.9,2.2-3.5,2.2c-1.5,0.1-3.3-0.1-3.3-2.1
		C98.2,79.7,100.3,80.4,102.2,79.6z M103.6,81.9c0-0.1,0-0.3,0-0.4c-1.1,0-2.2,0-3.3,0c0,0.1,0,0.3,0,0.4
		C101.4,81.9,102.5,81.9,103.6,81.9z"/>
	<path class="st6" d="M92.1,84.4c-0.8-0.2-1.8-0.2-2.3-0.7c-0.6-0.5-0.7-1.5-1-2.2c1.3-0.4,2.6-1.2,3.9-1.2c1,0,2,0.9,3,1.4
		c-0.4,0.7-0.6,1.7-1.2,2.2C94,84.3,93,84.2,92.1,84.4z M94.1,81.9c0-0.1,0-0.3,0-0.4c-1.1,0-2.2,0-3.3,0c0,0.1,0,0.3,0,0.4
		C91.9,81.9,93,81.9,94.1,81.9z"/>
	<path class="st4" d="M34,98.6c0,0.7,0.2,1.4-0.1,1.9c-0.3,0.5-1,1-1.6,1.1c-0.4,0.1-1.2-0.6-1.3-1c-0.2-1.3-0.3-2.6-0.2-3.9
		c0.1-0.6,0.9-1.1,1.4-1.6c0.6,0.5,1.3,1,1.7,1.6C34.3,97.2,34,98,34,98.6C34,98.6,34,98.6,34,98.6z"/>
	<path class="st8" d="M103.6,81.9c-1.1,0-2.2,0-3.3,0c0-0.1,0-0.3,0-0.4c1.1,0,2.2,0,3.3,0C103.6,81.7,103.6,81.8,103.6,81.9z"/>
	<path class="st8" d="M94.1,81.9c-1.1,0-2.2,0-3.3,0c0-0.1,0-0.3,0-0.4c1.1,0,2.2,0,3.3,0C94.1,81.7,94.1,81.8,94.1,81.9z"/>
</g>
</svg>
