<?xml version="1.0" encoding="utf-8"?>
<!-- Generator: Adobe Illustrator 25.0.0, SVG Export Plug-In . SVG Version: 6.00 Build 0)  -->
<svg version="1.1" id="Calque_1" xmlns="http://www.w3.org/2000/svg" xmlns:xlink="http://www.w3.org/1999/xlink" x="0px" y="0px"
	 viewBox="0 0 388 201.8" style="enable-background:new 0 0 388 201.8;" xml:space="preserve">
<style type="text/css">
	.st0{fill:#30E2B7;stroke:#000000;stroke-width:9;stroke-miterlimit:10;}
	.st1{fill:#F91C9A;stroke:#000000;stroke-width:9;stroke-miterlimit:10;}
	.st2{fill:#752EE5;stroke:#000000;stroke-width:9;stroke-miterlimit:10;}
	.st3{fill:#697069;}
	.st4{fill:#CD1818;stroke:#000000;stroke-width:13;stroke-miterlimit:10;}
	.st5{fill:#CD1818;}
</style>
<path class="st0" d="M-667.5-25.6"/>
<path class="st1" d="M-3820.5,339.4c66.3-13.3,484.2-98.7,584-187c15.2-13.4,20.9-25.1,21-36c0.6-58.5-158.9-104.9-243-126"/>
<path class="st1" d="M-3632.5-14.6c24.5,22.4,36.8,41.3,32,55c-24.9,70.8-511.5,7.6-514-55c-4-101.9,1271.5-265.5,1359-29
	c3,8.1,8.3,54.1,19,146c15,128.8,23,227,25,252c15.5,192.8,30.8,383.5,26,480c-15.3,305.9-286.8,749.9-714,815
	c-383,58.4-679.7-220.1-724-263"/>
<path class="st2" d="M-1053.5,1283.4"/>
<path class="st3" d="M305-44.1"/>
<g>
	<path class="st4" d="M377.8,99.3c-62.1,31.8-124.3,63.5-186.4,95.3c-2,1-4.2,1-6.1,0c-58.4-30-116.7-60-175.1-90
		c-4.9-2.5-4.8-9.7,0.2-12C70.7,64,131,35.6,191.4,7.1c1.8-0.8,3.8-0.8,5.6-0.1c60.2,26.7,120.3,53.4,180.5,80.1
		C382.7,89.5,382.9,96.8,377.8,99.3z"/>
	<path d="M365,96.7c-58.3,29.8-116.5,59.6-174.7,89.3c-0.8,0.4-1.8,0.4-2.6,0C132.9,157.9,78,129.7,23.2,101.5
		c-2.1-1.1-2.1-4.1,0.1-5.1C79.9,69.6,136.4,43,193,16.3c0.8-0.3,1.6-0.4,2.4,0c56.5,25.1,113,50.1,169.5,75.3
		C367.1,92.6,367.2,95.7,365,96.7z"/>
	<g>
		<g>
			<path class="st5" d="M70.7,110.1c-1.5,0.4-3,0.3-4.4-0.1c-1.4-0.4-2.7-1-3.8-1.8c-1.1-0.8-2-1.8-2.9-2.9c-1.8-2.3-2.8-5-3.1-8.1
				c-0.1-1.4-0.7-2.2-1.5-2.6c0.8-0.4,1.3-1.3,1.5-2.7c0.1-1.4,0.5-2.6,1.1-3.9c0.6-1.2,1.3-2.4,2.2-3.5c1.8-2.1,4.2-3.8,7-4.5
				c2-0.5,3.5-0.3,4.9,0.6c1.2,0.9,2,2.3,2.3,4.2c0.1,1,0.3,1.7,0.6,2c0.1,0.1,0.2,0.2,0.4,0.3c-0.6,1.3-1.2,1.9-1.8,1.8
				c-0.1,0-0.3-0.1-0.4-0.1c-0.2,0.7-0.5,1.2-0.8,1.6c-0.3,0.5-0.7,0.7-1.1,0.8C70.4,91,70.1,91,70,90.9c0.3-0.5,0.4-1.2,0.4-1.9
				c0-0.1,0-0.2-0.1-0.4c-0.1,0-0.1,0.1-0.1,0.1c-0.1,0-0.1,0-0.2,0c-0.1,0-0.3,0-0.5-0.1c-0.2-0.1-0.4-0.2-0.5-0.4
				c-0.4-0.3-0.6-0.8-0.6-1.2c0-0.1,0-0.2,0.1-0.3c0.6,0.2,1.2-0.1,1.7-0.8c0.4-0.5,0.5-1,0.5-1.5c0-0.5-0.1-0.9-0.3-1.2
				c-0.2-0.3-0.5-0.5-0.8-0.7c-0.7-0.4-1.7-0.5-2.9-0.2c-2.6,0.7-3.9,2.8-3.9,6.4c0,1,0,2,0,2.9c0,1.3,0.5,2.3,1.6,2.8
				c-1,0.7-1.6,1.6-1.6,3.1c0,1.6,0,3.1,0,4.7c0,1.5,0.3,2.6,0.7,3.5c0.5,0.8,1.2,1.4,2.2,1.6c1.2,0.3,2-0.3,2.3-1.6
				c0.1-0.5,0.2-1,0.2-1.6c0-1.5,0-3,0-4.5c-0.2-0.3-0.5-0.4-0.8-0.5c-0.3,0-0.6,0.1-0.8,0.3c-0.1-0.1-0.1-0.4-0.1-0.8
				c0-0.4,0.1-0.8,0.4-1.1c0.3-0.3,0.7-0.5,1.2-0.5c0.5,0,1,0.2,1.3,0.7c0.5-0.4,1-0.5,1.5-0.5c0.5,0,1,0.3,1.4,0.7
				c0.4-0.4,0.8-0.6,1.2-0.6c0.4,0,0.7,0.1,0.8,0.2s0.4,0.3,0.5,0.5c0.3,0.4,0.5,0.9,0.5,1.5c0,0.3-0.1,0.6-0.1,0.8
				c-0.2-0.3-0.5-0.4-0.8-0.5c-0.3,0-0.7,0.5-1,1.4c0,2.3,0,4.6,0,6.9c0.2,0.9,0.6,1.4,1.2,1.6c0.3,0.1,0.5,0,0.7-0.2
				c0.1,0.3,0.1,0.5,0.1,0.8c0,0.6-0.2,1-0.7,1.3c-0.5,0.3-1,0.3-1.9,0.1C72,111.4,71.3,110.9,70.7,110.1z M59.7,103.3
				c0.1-0.1,0.2-0.1,0.2-0.3c0-0.3-0.1-0.7-0.3-1.2s-0.4-1.4-0.6-2.7c-0.2-1.2-0.3-2.7-0.3-4.3c0-2.6,0.3-4.9,0.8-6.8
				c0.1-0.3,0.1-0.5,0.1-0.7c0-0.1-0.1-0.2-0.2-0.3c-0.5,0.7-0.8,1.4-1,2c-0.3,1.2-0.7,2.7-0.8,4.6c0,0.3-0.3,0.5-0.8,0.8
				c0.5,0.3,0.8,0.5,0.8,0.8c0.3,3.3,0.8,5.5,1.3,6.8C59.2,102.5,59.4,103,59.7,103.3z M69.7,106.3c0.6-0.4,0.8-1.2,0.8-2.4
				c0-0.4,0-0.8,0-1.2c0-1.2-0.3-2-0.8-2.3C69.7,102.4,69.7,104.3,69.7,106.3z"/>
			<path class="st5" d="M87.2,112.2c-0.9,1.9-2.2,2.5-4,2.1c-2.1-0.5-3.8-2-4.9-4.2c-0.5-1-0.8-2-1-3.1c-0.1-0.7-0.3-1.2-0.5-1.5
				c-0.3-0.4-0.5-0.7-0.9-1c0.7-0.4,1.2-1.2,1.5-2.6c0.3-1.4,0.8-2.4,1.6-3.1s1.7-1,2.7-1s1.7,0,2.1-0.1c0.5-0.1,0.9-0.1,1.2-0.3
				c0.7-0.3,1.2-0.7,1.6-1.4c0-1.2,0-2.5,0-3.8c0-1.7-0.2-2.9-0.6-3.6c-0.4-0.7-1-1-1.8-1c-0.8,0.1-1.4,0.4-1.8,0.9
				c-0.4,0.5-0.6,1.2-0.6,2c0,1.2,0.4,1.8,1.2,1.8c-0.1,1.2-0.6,1.9-1.2,1.9c-0.2,0-0.4-0.1-0.6-0.1v0.1c0,0.4,0.1,0.7,0.3,0.8
				c-0.3,0.6-0.7,0.9-1.2,0.8c-0.6,0-1-0.5-1.4-1.4c-0.1,0.1-0.3,0.1-0.5,0.1c-0.2,0-0.4-0.1-0.7-0.3c-0.3-0.2-0.4-0.5-0.5-0.8
				c0.5-0.5,0.8-1.2,0.9-2.1c0.1-1.2,0.7-2.4,1.8-3.7c1.3-1.6,3-2.6,5-2.8c3.4-0.4,5.4,1.2,6.2,4.9c0.3,1.2,0.4,2.7,0.4,4.4
				c0,0.7,0,1.4,0,2.1c0,0.8,0.1,1.6,0.4,2.1c0.3,0.6,0.7,1,1.2,1.4c-0.6,0.5-1,0.9-1.2,1.3c-0.3,0.6-0.4,1.3-0.4,2.1
				c0,2.7,0,5.3,0,7.9c0.3,1.4,0.7,2.1,1.2,2.2c0.3,0.1,0.6-0.1,0.8-0.3c0.1,0.4,0.2,0.8,0.2,1.3c0,0.5-0.1,1-0.4,1.4
				c-0.3,0.4-0.7,0.6-1.2,0.5c-0.6-0.1-1.1-0.5-1.6-1.2c-0.4,0.5-0.8,0.7-1.1,0.6c-0.3-0.1-0.6-0.2-0.8-0.3
				c-0.3-0.2-0.5-0.4-0.7-0.7C87.6,114,87.4,113.1,87.2,112.2z M80.6,110.5c0.1-0.1,0.1-0.2,0.1-0.4c0-0.3-0.1-0.6-0.2-1
				c-0.5-1.5-0.7-2.7-0.7-3.6c0-0.9,0-1.6,0.1-2c0.1-0.4,0.1-0.7,0.2-1c0.1-0.3,0.1-0.5,0.3-0.7c0.1-0.2,0.2-0.4,0.3-0.6
				c0.1-0.3,0.2-0.6,0.2-0.7s-0.1-0.3-0.1-0.3c-0.4,0.3-0.7,0.6-0.8,1c-0.3,0.7-0.6,1.6-0.7,2.7c-0.1,0.3-0.4,0.7-1,1
				c0.7,0.5,1,1,1,1.3C79.3,107.9,79.9,109.4,80.6,110.5z M82.8,105.5c0,0.7,0.1,1.4,0.1,2c0.1,0.7,0.2,1.2,0.4,1.8
				c0.4,1.1,0.9,1.7,1.6,1.8c0.5,0.1,1-0.2,1.3-0.8s0.5-1.6,0.5-2.7c0-2.7,0-5.5,0-8.2c-0.7,0.6-1.4,1-2.4,1.1
				C83.3,100.6,82.8,102.3,82.8,105.5z M88.1,108c0.6-0.3,0.8-2.1,0.9-5.6c0-0.7,0-1.6,0-2.5c0-0.9,0-1.8,0-2.4s0-1.3,0-1.9
				c-0.1-2.1-0.1-3.5-0.3-3.9c-0.2-0.4-0.4-0.7-0.5-0.8C88.1,96.7,88.1,102.3,88.1,108z"/>
			<path class="st5" d="M98.7,116.6c-0.5,0.5-1,0.7-1.6,0.6c-0.6-0.1-1-0.5-1.2-1c-0.3-0.6-0.4-1-0.4-1.5c0-0.6,0.1-1,0.1-1.3
				c0.2,0.3,0.5,0.6,0.8,0.6c0.7,0.1,1-0.4,1.2-1.6c0-2.9,0-5.9,0-8.8c0-0.8-0.1-1.4-0.3-1.8c-0.3-0.6-0.8-1.2-1.5-2
				c0.7-0.6,1.1-1,1.3-1.4c0.3-0.6,0.5-1.4,0.5-2.3c0-1.4,0-2.7,0-4.1c0-1.6-0.3-2.5-0.8-2.5c-0.2,0-0.4-0.1-0.7,0
				c-0.3,0-0.5,0.2-0.7,0.5c-0.1-0.3-0.2-0.7-0.2-1.1c0-0.4,0.1-0.8,0.1-1.3c0.1-0.5,0.3-0.9,0.5-1.4c0.5-1,1.1-1.6,1.8-1.6
				c0.7-0.1,1.2,0.1,1.7,0.5c0.5-1.2,1.1-1.9,1.8-2c1-0.1,1.5,0.9,1.5,3c0,0.8,0,1.6,0,2.4c0.8-2.7,2-4.5,3.5-5.5
				c0.5-0.3,1-0.5,1.5-0.6c1.2-0.1,2.1,0.4,2.9,1.5c0.8,1.1,1.3,2.8,1.6,4.9c0.7-3.3,2-5.5,3.6-6.7c0.5-0.4,1.2-0.6,1.8-0.7
				c0.7-0.1,1.3,0.2,2,0.7c0.6,0.5,1.1,1.4,1.6,2.4c0.8,2.2,1.3,5.3,1.3,9.4c0,0.7,0,1.5-0.1,2.2c0,1,0.1,1.8,0.3,2.3
				c0.3,0.7,0.8,1.4,1.5,2.1c-0.8,0.8-1.2,1.4-1.4,1.9c-0.3,0.7-0.4,1.5-0.4,2.5c0,3.5,0,7,0,10.4c0.2,1.4,0.6,2.1,1.2,2.2
				c0.3,0,0.5-0.1,0.7-0.5c0.1,0.2,0.1,0.4,0.2,0.5c0.1,0.2,0.1,0.5,0.1,1.1s-0.1,1.2-0.4,1.7c-0.3,0.6-0.7,0.8-1.2,0.8
				c-0.6-0.1-1.1-0.5-1.6-1.3c-0.5,0.7-0.9,0.9-1.5,0.8c-0.5-0.1-1-0.5-1.4-1.2c-0.4,0.6-0.8,0.8-1.3,0.8c-0.5-0.1-0.8-0.4-1.2-1
				c-0.3-0.6-0.5-1.4-0.5-2.4c0-0.5,0.1-0.8,0.2-1.1c0.2,0.4,0.5,0.7,0.7,0.7c0.5,0.1,0.7-0.5,0.9-1.5c0-6.4,0-13,0-19.4
				c0-5.1-0.8-7.6-2.5-7.6c-0.5,0-1,0.7-1.4,1.9c-0.5,1.2-0.8,2.6-0.9,4.3c0,6.7,0,13.4-0.1,20.1c0.2,1,0.5,1.6,0.9,1.7
				c0.2,0,0.5-0.1,0.7-0.5c0.1,0.3,0.2,0.8,0.2,1.6c0,0.7-0.1,1.4-0.5,1.8c-0.3,0.5-0.7,0.7-1.2,0.6c-0.5-0.1-0.9-0.5-1.3-1.2
				c-0.5,0.6-0.9,0.8-1.4,0.7c-0.5-0.1-1-0.5-1.4-1.2c-0.4,0.5-0.8,0.8-1.3,0.7c-0.5-0.1-0.8-0.4-1.2-1c-0.3-0.5-0.5-1.3-0.5-2.2
				c0-0.5,0.1-0.8,0.2-1c0.2,0.4,0.5,0.6,0.7,0.7c0.5,0.1,0.7-0.4,0.9-1.4c0-6.1,0-12.1,0-18.2c0-3.8-0.5-6.1-1.4-6.7
				c-0.3-0.3-0.6-0.3-0.9-0.3c-0.7,0-1.2,0.7-1.7,1.8c-0.5,1.1-0.7,2.4-0.8,4c0,6.3,0,12.4,0,18.7c0.2,1,0.5,1.5,0.9,1.6
				c0.2,0.1,0.5-0.1,0.7-0.5c0.2,0.3,0.3,0.8,0.3,1.5s-0.1,1.2-0.5,1.7s-0.7,0.6-1.2,0.5c-0.5-0.1-0.9-0.5-1.3-1.1
				c-0.4,0.5-0.8,0.7-1.4,0.6C99.7,117.7,99.1,117.3,98.7,116.6z M99.1,109.5c0.5-0.5,0.7-1.7,0.8-3.5c0.1-1.4,0.1-2.6,0.1-3.7
				c0-1.2,0-2.4,0-3.6c0-2.8-0.1-4.6-0.1-5.5c-0.1-1.4-0.4-2.3-0.7-2.7c0,0.6,0,1.2,0,1.8c0,3.2-0.1,5.1-0.1,5.7
				c-0.1,0.6-0.2,1-0.3,1.2c-0.1,0.3-0.4,0.5-0.7,0.7c0.6,0.4,0.9,0.9,1,1.5c0.1,0.9,0.2,3,0.2,6.2
				C99.1,108.3,99.1,108.8,99.1,109.5z M108.5,90.2c0.3,1.5,0.5,4.4,0.5,8.8c0,3.9,0,7.8,0,11.7c0.5-0.3,0.8-1.6,0.8-4
				c0.1-2.3,0.1-4.4,0.1-6.1s0-3.3-0.1-4.5c-0.1-1.2-0.1-2.2-0.3-3C109.4,91.7,109,90.7,108.5,90.2z M118.3,89.9
				c0.3,1.6,0.5,4.7,0.5,9.3c0,4.2,0,8.3,0,12.5c0.5-0.4,0.8-1.8,0.8-4.2c0.1-2.5,0.1-4.6,0.1-6.5s0-3.5-0.1-4.8
				c-0.1-1.3-0.1-2.3-0.3-3.2C119.2,91.5,118.8,90.4,118.3,89.9z"/>
			<path class="st5" d="M139,112.1c0.2-1,0.7-1.5,1.2-1.4c0.4,0,0.7,0.5,0.9,1.2c0.2,0.7,0.3,1.4,0.3,2.3c0,0.9-0.1,1.8-0.3,2.7
				c-0.2,0.9-0.5,1.7-0.8,2.5c-0.3,0.7-0.7,1.4-1.1,1.9c-0.4,0.5-0.8,1-1.4,1.3c-1,0.7-2,1-3.1,0.8c-1-0.1-2.1-0.7-3-1.6
				c-0.9-0.9-1.7-2.2-2.4-3.8c-1.3-3.1-2.1-7.1-2.3-12.2c-0.1-1.1-0.2-2-0.3-2.4c-0.3-0.8-0.8-1.7-1.5-2.5c0.8-0.8,1.4-2.3,1.6-4.2
				c0.1-0.5,0.1-1.1,0.1-1.6c0.3-4,1.1-7.5,2.7-10.4c1.4-2.9,3.1-4.4,4.9-4.5c1.9-0.1,3.5,1.4,4.9,4.6c1.4,3.3,2.1,7.4,2.1,12.3
				c0,0.2,0,0.3,0,0.5c0,0.2,0,0.3,0,0.5c0,0.3,0.1,0.5,0.3,0.5c0.2,0.6,0.3,1.2,0.3,1.8c0,1.4-0.3,2.3-1,2.5
				c-0.1,0.1-0.4,0.1-0.7,0.3c-2.8,1-5.6,2-8.4,2.9c0,1.1,0,2.3,0,3.4c0,2.7,0.3,4.9,1,6.6c0.7,1.6,1.5,2.5,2.5,2.5
				c1,0.1,1.9-0.3,2.5-1.4c0.6-1,0.9-2.3,0.9-3.9C139.1,113,139.1,112.6,139,112.1z M129.7,112.7c0.1-0.3,0.2-0.5,0.2-0.8
				c0-0.5-0.1-1.2-0.1-2c-0.4-3.6-0.6-6.2-0.6-7.6c0-1.4,0-2.5,0.1-3.3c0.1-0.8,0.1-1.6,0.2-2.4c0.1-1.6,0.3-3,0.4-4.2
				c0.1-0.8,0.1-1.3,0.1-1.6c0-0.6-0.1-1-0.2-1.2c-0.4,1.2-0.7,2.7-1,4.7c-0.2,2-0.4,3.6-0.5,5.1c-0.1,0.7-0.3,1.2-0.8,1.8
				c0.5,0.6,0.8,1.2,0.8,1.8c0.4,3.9,0.7,6.4,0.9,7.5C129.4,111.4,129.5,112.2,129.7,112.7z M136.4,100.4c0-3.3,0-6.7,0-10
				c0-1.6-0.1-2.7-0.4-3.5c-0.5-1.2-0.9-1.9-1.4-1.8c-0.5,0-0.8,0.2-1.1,0.5c-0.3,0.3-0.6,0.8-0.8,1.5c-0.5,1.4-0.7,3.7-0.7,6.7
				c0,2.7,0,5.4,0,8.1C133.5,101.4,135,100.9,136.4,100.4z M138.6,99.5c0-0.4,0-0.7,0-1.1c0-4.5-0.1-7.2-0.5-8.1
				c-0.1-0.4-0.3-0.7-0.5-0.9c0,3.5,0,7,0,10.5C138,99.7,138.3,99.6,138.6,99.5z"/>
			<path class="st5" d="M147.1,123c-0.7,1.6-1.3,2.3-2,2.2c-0.3-0.1-0.6-0.4-0.7-1c0.3-0.5,0.3-1.1,0.3-1.7c0-0.6-0.1-1-0.1-1.3
				c-0.1-0.3-0.1-0.6-0.2-0.8c0.1,0.4,0.1,0.8,0.3,1.1c-0.3-0.3-0.4-0.8-0.5-1.4c-0.1-0.7-0.2-1.4-0.2-2.3s0.2-2,0.7-3.1
				c-0.2-0.7-0.3-1.5-0.3-2.3c0-0.8,0.1-1.5,0.2-2.1c0.1-0.5,0.3-1,0.5-1.5c0.4-0.9,0.8-1.4,1.2-1.4c0.3,0,0.5,0.3,0.7,0.8
				c-0.3,0.7-0.4,1.8-0.4,3.4s0.1,2.9,0.3,4c0.2,1.1,0.5,2.1,0.8,2.9c0.8,1.7,1.8,2.6,2.9,2.7c1.2,0.1,2.1-1,2.6-3.3
				c0.1-0.7,0.2-1.4,0.2-2.1c0-0.7-0.1-1.4-0.2-2c-0.1-0.6-0.3-1.1-0.5-1.7c-0.3-0.8-0.9-1.9-1.6-3c-0.7-1.2-1.5-1.9-2.4-2
				c-0.6,0-1,0.1-1.2,0.3c0.1-0.7,0.2-1.5,0.2-2.2c0-0.7-0.2-1.6-0.6-2.5c-0.4-0.9-0.8-1.8-1-2.7c-0.3-0.9-0.6-1.8-0.8-2.7
				c-0.4-1.7-0.6-3.5-0.6-5.3s0.1-3.5,0.5-4.9c0.3-1.4,0.8-2.7,1.3-3.8c1.2-2.2,2.7-3.5,4.6-3.5c0.9-0.1,1.5,0.1,1.8,0.2
				c0.3,0.2,0.6,0.4,0.8,0.5c0.3,0.3,0.6,0.3,1,0.3c0.4,0,0.7-0.3,0.8-0.7c0.1-0.5,0.3-0.8,0.3-1.2c0-0.4,0-0.7-0.1-0.8
				c0.1-0.1,0.1-0.1,0.3-0.1c0.1,0,0.3,0.1,0.4,0.3c0.1,0.2,0.3,0.4,0.4,0.7c0.3,0.7,0.4,1.4,0.3,2.2c0,0.8-0.1,1.4-0.2,1.8
				c0.3,0.7,0.4,1.6,0.4,2.8c0,1.2-0.2,2.3-0.6,3.1c0.1,0.5,0.1,1,0.1,1.7s-0.1,1.3-0.4,1.9s-0.5,0.9-0.8,0.9
				c-0.5,0-0.7-0.1-0.8-0.4c0.1-0.8,0.2-1.7,0.2-2.7s-0.1-1.9-0.3-2.7s-0.5-1.6-0.8-2.1c-0.6-1-1.2-1.5-2.1-1.4c-1,0-1.7,0.8-2,2.5
				c-0.1,0.5-0.2,1-0.2,1.6s0,1.1,0.1,1.6c0.1,0.5,0.2,1,0.3,1.5c0.3,1,0.7,1.9,1.2,2.8c0.7,1.1,1.2,1.7,1.4,1.7
				c0.6,0,1.1-0.3,1.5-1c-0.1,1.2-0.2,2.1-0.2,2.5c0,0.7,0.3,1.6,0.7,2.5c1.3,2.3,2.1,4.4,2.6,6.3c0.5,1.8,0.7,3.9,0.7,6.1
				c0,2.3-0.2,4.2-0.6,5.7c-0.4,1.6-0.9,2.9-1.6,4c-1.4,2.3-3.1,3.3-5,3.1C149.5,125,148.2,124.3,147.1,123z M146.6,88.9
				c-0.3,0.3-0.5,1.3-0.5,2.9c0,1.6,0.2,3.1,0.6,4.5c0.4,1.4,1,3.1,2,4.9c0.2,0.4,0.3,0.8,0.3,1.2c0,0.6,0,1-0.1,1.4
				c0.1-0.1,0.3-0.1,0.7-0.2c0.7-0.1,1.6,0.7,2.7,2.6c1.7,2.7,2.5,5.6,2.5,8.5c0,1.1-0.1,2-0.2,2.5c0.3-0.1,0.7-0.9,0.8-2.3
				c0.1-0.4,0.1-0.8,0.1-1.2c0-2.1-0.5-4.2-1.3-6.3c-0.8-2.1-2.1-4.2-3.8-6.2C147.8,97.6,146.5,93.5,146.6,88.9z"/>
			<path class="st5" d="M169.3,115c-0.4-2.3-0.6-4.3-0.7-5.9s-0.1-2.7-0.2-3.2c-0.1-0.5-0.1-0.9-0.3-1.3c-0.3-0.8-0.7-1.8-1.4-2.6
				c0.8-1,1.4-2.6,1.6-4.9c0.1-0.7,0.1-1.2,0.2-1.9c0.3-4.7,1.1-8.6,2.6-11.8c1.4-3.2,3.2-4.8,5.1-4.8c2-0.1,3.8,1.6,5.2,4.8
				c1.4,3.1,2.3,7.1,2.5,11.8c0.1,1.7,0.2,2.9,0.4,3.6c0.3,1.4,0.8,2.5,1.4,3.3c-0.7,0.8-1.1,1.6-1.3,2.3c-0.3,0.9-0.5,2-0.5,3.3
				c-0.3,6.3-1.1,11-2.5,14.2c-1.3,3.2-3.1,4.8-5.3,4.8c-2.3-0.1-4.2-2-5.5-5.6C170.2,119.3,169.7,117.4,169.3,115z M171.3,115
				c0.1-0.3,0.2-0.6,0.2-1c0-0.6-0.1-1.3-0.1-2.2c-0.4-4.1-0.6-7-0.6-8.6c0-1.6,0-2.9,0.1-3.8c0.1-0.9,0.1-1.8,0.1-2.7
				c0.1-1.8,0.3-3.3,0.4-4.7c0.1-0.9,0.1-1.5,0.1-1.8c0-0.7-0.1-1.1-0.2-1.4c-0.4,1.3-0.7,3.1-1,5.3c-0.2,2.2-0.4,4.1-0.5,5.8
				c-0.1,0.7-0.3,1.4-0.9,2c0.5,0.7,0.8,1.3,0.9,2c0.4,4.4,0.7,7.2,0.9,8.5C171,113.6,171.2,114.5,171.3,115z M176.3,84.2
				c-1.7,0-2.5,3.3-2.5,9.9c0,5.8,0,11.7,0,17.4c0,6.3,0.8,9.5,2.5,9.5c1.7,0.1,2.5-3.1,2.5-9.4c0-5.9,0-11.7,0-17.6
				C178.8,87.5,178,84.2,176.3,84.2z M180.3,115.2c0.5-0.5,0.8-2.2,0.8-5.2c0.1-2.9,0.1-5.1,0.1-6.6c0-1.4,0-2.7,0-3.6c0-1,0-2,0-3
				c-0.1-3.8-0.1-6.1-0.3-6.8s-0.4-1-0.5-1.2C180.3,97.6,180.3,106.4,180.3,115.2z"/>
			<path class="st5" d="M190.7,125.4c-0.5,0.8-1,1.3-1.6,1.2c-0.6,0-1-0.3-1.3-1c-0.3-0.7-0.5-1.4-0.5-2c0-0.8,0.1-1.6,0.2-2.1
				c0.2,0.5,0.5,0.7,0.8,0.7c0.6,0,1-0.9,1.2-2.7c0-4.1,0-8.2,0-12.2c0-1.2-0.1-2-0.3-2.5c-0.3-0.8-0.8-1.7-1.6-2.7
				c0.7-0.8,1.2-1.6,1.4-2.1c0.3-0.8,0.5-2,0.5-3.3c0-7.5,0-15,0-22.5c0-3-0.5-4.6-1.4-4.6c-0.3,0-0.6,0.3-0.8,0.7
				c-0.1-0.5-0.2-1-0.2-1.6s0.1-1,0.1-1.6c0.1-0.5,0.3-1,0.5-1.4c0.5-0.9,1-1.4,1.8-1.4s1.3,0.1,1.7,0.3c0.5-1.8,1.2-2.7,1.8-2.7
				c1,0,1.5,1.4,1.5,4.3c0,10.1,0,20.2,0,30.3c0,1.3,0.1,2.2,0.3,2.7c0.3,0.8,0.8,1.7,1.5,2.5c-0.7,1-1.2,1.8-1.4,2.2
				c-0.3,0.8-0.4,1.8-0.4,3c0,4.1,0,8.2,0,12.2c0.3,1.8,0.7,2.7,1.2,2.7c0.3,0,0.6-0.3,0.8-0.7c0.1,0.5,0.2,1.1,0.2,1.9
				c0,0.8-0.1,1.5-0.5,2.1c-0.3,0.7-0.7,1-1.3,1s-1.1-0.4-1.6-1.2c-0.4,0.8-0.9,1.3-1.4,1.3C191.7,126.7,191.2,126.3,190.7,125.4z
				 M191.2,115.3c0.5-0.8,0.7-2.5,0.8-5.1c0-1.2,0.1-2.4,0.1-3.8c0-1.4,0-2.4,0-3c0-0.6,0-1,0-1.3c0-1.2,0-2.4,0-3.6
				c0-1,0-2.1,0-3.3c0-1.3,0-2.6,0-3.9c0-7-0.1-10.9-0.1-11.7c-0.1-1.7-0.4-2.8-0.7-3.4c0,4.5,0,8.9,0,13.4c0,5.5,0,8.5-0.1,9.2
				s-0.1,1.1-0.1,1.4c-0.1,0.8-0.5,1.5-1,2c0.6,0.6,0.9,1.2,1,2c0.1,1.3,0.2,4.2,0.2,8.6C191.2,113.6,191.2,114.4,191.2,115.3z"/>
			<path class="st5" d="M212.8,126.2c-1,0.1-1.8-1.4-2.3-4.2c-0.7,2.1-1.6,3.6-2.9,4.4c-0.3,0.2-0.7,0.3-1,0.3
				c-2.1,0.1-3.7-1.6-4.9-5.1c-1-3.3-1.6-7.8-1.8-13.8c0-1.2-0.1-2.1-0.3-2.7c-0.3-1-0.8-2-1.5-2.9c1.2-1.4,1.8-3.6,1.8-6.6
				c0.1-3,0.3-5.5,0.6-7.6c0.3-2.1,0.8-3.8,1.4-5.1c1.1-2.5,2.7-3.8,4.6-3.8c1.1,0,2,0.8,2.8,2.3c0.3,0.5,0.5,1.1,0.7,1.8
				c0-2.8,0-5.7,0-8.5c0-3-0.5-4.5-1.4-4.6c-0.3,0-0.6,0.2-0.8,0.7c-0.1-0.5-0.2-1-0.2-1.6c0-0.5,0.1-1,0.1-1.6
				c0.1-0.5,0.3-1,0.5-1.4c0.5-0.9,1-1.3,1.8-1.3s1.3,0.2,1.7,0.4c0.5-1.8,1.2-2.7,1.8-2.6c1,0.1,1.6,1.5,1.6,4.3
				c0,10,0,19.9,0,29.8c0,2,0.6,3.7,1.8,5.1c-1.2,1.4-1.8,3.2-1.8,5.1c0,3.9,0,7.8,0,11.7c0.3,2,0.7,2.9,1.2,2.9
				c0.3,0,0.6-0.3,0.8-0.7c0.1,0.5,0.2,1.1,0.2,1.8c0,0.7-0.1,1.4-0.5,2.1c-0.3,0.7-0.7,1-1.3,1.1c-0.6,0-1.1-0.4-1.6-1.2
				C213.7,125.8,213.2,126.2,212.8,126.2z M202.5,115.2c0.1-0.3,0.2-0.7,0.2-1c0-0.6-0.1-1.3-0.1-2.2c-0.4-4.2-0.6-7-0.6-8.6
				c0-1.6,0-2.9,0.1-3.8c0.1-0.9,0.1-1.8,0.2-2.7c0.1-1.9,0.3-3.5,0.4-4.8c0.1-0.9,0.1-1.5,0.1-1.8c0-0.7-0.1-1.1-0.2-1.4
				c-0.4,1.3-0.7,3.1-1,5.3c-0.2,2.3-0.4,4.2-0.5,5.9c-0.1,0.7-0.3,1.4-0.9,2c0.5,0.7,0.8,1.3,0.9,2c0.4,4.5,0.7,7.3,0.9,8.5
				C202.2,113.9,202.4,114.7,202.5,115.2z M207.4,84.8c-1.6,0-2.4,3.1-2.4,9.3c0,5.8,0,11.6,0,17.3c0,4.8,0.6,7.8,1.8,8.9
				c0.3,0.3,0.7,0.5,1,0.5c0.3,0,0.7-0.2,0.9-0.6c0.3-0.4,0.5-0.8,0.7-1.4c0.5-1.3,0.7-2.9,0.7-4.6c0-6.7,0-13.5,0-20.2
				c0-4.8-0.6-7.7-1.7-8.8C208.1,84.9,207.7,84.8,207.4,84.8z M211.5,115.1c0.5-0.5,0.8-2.1,0.8-4.7c0-0.6,0-1.4,0-2.2
				c0-0.8,0-1.8,0-2.9c0-1,0-2.1,0-3.3c0-1,0-2.1,0-3.1c0-1,0-1.9,0-2.7c0-0.8,0-1.4,0-1.8c0-0.2,0-0.4,0-0.6c0-0.1,0-0.5,0-1.1
				s0-1.5,0-2.5s0-2,0-3.2c0-1.1,0-2.2,0-3.3c0-2.4-0.1-4-0.1-4.6c-0.1-1.3-0.3-2.2-0.7-2.7C211.5,89.2,211.5,102.1,211.5,115.1z"/>
			<path class="st5" d="M229.7,123.5c-0.7,1.7-1.3,2.6-2,2.6c-0.3,0-0.6-0.3-0.7-0.9c0.3-0.6,0.3-1.2,0.3-1.8c0-0.6-0.1-1-0.1-1.3
				s-0.1-0.6-0.2-0.8c0.1,0.4,0.1,0.8,0.3,1.1c-0.3-0.3-0.4-0.7-0.5-1.4c-0.1-0.7-0.2-1.4-0.2-2.4s0.2-2.1,0.7-3.3
				c-0.2-0.7-0.3-1.5-0.3-2.3c0-0.8,0.1-1.6,0.2-2.1c0.1-0.6,0.3-1.1,0.5-1.6c0.4-1,0.8-1.5,1.2-1.5c0.3,0,0.5,0.3,0.7,0.8
				c-0.3,0.7-0.4,1.9-0.4,3.5c0,1.6,0.1,2.9,0.3,4c0.2,1.1,0.5,2,0.8,2.8c0.8,1.6,1.8,2.4,2.9,2.3c1.2-0.1,2.1-1.3,2.6-3.6
				c0.1-0.7,0.2-1.4,0.2-2.1c0-0.7-0.1-1.4-0.2-1.9c-0.1-0.5-0.3-1.1-0.5-1.6c-0.3-0.8-0.8-1.8-1.6-2.9c-0.7-1.2-1.5-1.8-2.4-1.8
				c-0.6,0-1,0.1-1.2,0.4c0.1-0.8,0.2-1.5,0.2-2.3s-0.2-1.6-0.6-2.5c-0.4-0.9-0.8-1.8-1-2.7c-0.3-0.9-0.6-1.8-0.8-2.7
				c-0.4-1.8-0.6-3.6-0.6-5.5c0-2,0.1-3.6,0.5-5.1c0.3-1.5,0.8-2.7,1.3-3.8c1.2-2.2,2.7-3.3,4.6-3.2c0.9,0.1,1.5,0.2,1.8,0.4
				c0.3,0.2,0.6,0.4,0.8,0.6c0.3,0.3,0.6,0.4,1,0.4c0.4,0,0.7-0.2,0.8-0.6c0.1-0.4,0.3-0.8,0.3-1.2c0-0.3,0-0.7-0.1-0.8
				c0.1-0.1,0.1-0.1,0.3-0.1c0.1,0,0.3,0.1,0.4,0.3c0.1,0.2,0.3,0.4,0.4,0.7c0.3,0.7,0.3,1.4,0.3,2.1c0,0.8-0.1,1.3-0.2,1.7
				c0.3,0.7,0.4,1.6,0.4,2.7s-0.2,2.1-0.6,3c0.1,0.5,0.1,1,0.1,1.6s-0.1,1.2-0.4,1.8c-0.3,0.6-0.5,0.9-0.8,0.9
				c-0.5,0-0.7-0.1-0.8-0.4c0.1-0.8,0.2-1.6,0.2-2.6c0-0.9-0.1-1.8-0.3-2.7c-0.2-0.8-0.5-1.6-0.8-2.1c-0.6-1-1.2-1.6-2.1-1.6
				c-1,0-1.7,0.8-2,2.3c-0.1,0.5-0.2,1-0.2,1.6c0,0.6,0,1.1,0.1,1.6c0.1,0.5,0.2,1,0.3,1.5c0.3,1,0.7,1.9,1.2,2.8
				c0.7,1.1,1.2,1.7,1.4,1.7c0.6,0,1.1-0.3,1.5-1c-0.1,1.2-0.2,2-0.2,2.5c0,0.7,0.3,1.6,0.7,2.5c1.3,2.2,2.1,4.2,2.6,5.9
				c0.5,1.8,0.7,3.7,0.7,5.9s-0.2,4-0.6,5.6c-0.4,1.6-0.9,2.9-1.6,4.1c-1.4,2.4-3.1,3.7-5,3.9C232,125.2,230.8,124.7,229.7,123.5z
				 M229.2,88.7c-0.3,0.3-0.5,1.3-0.5,2.9c0,1.6,0.2,3.1,0.6,4.6c0.4,1.4,1,3.1,2,4.9c0.2,0.4,0.3,0.8,0.3,1.2c0,0.6,0,1-0.1,1.4
				c0.1-0.1,0.3-0.1,0.7-0.3c0.7-0.2,1.6,0.7,2.7,2.5c1.7,2.6,2.5,5.3,2.5,8.2c0,1.1-0.1,1.9-0.2,2.5c0.3-0.2,0.7-1,0.8-2.3
				c0.1-0.4,0.1-0.8,0.1-1.2c0-2-0.5-4-1.3-6.1c-0.8-2-2.1-4-3.7-5.9C230.4,97.7,229.1,93.5,229.2,88.7z"/>
			<path class="st5" d="M254.9,111.4c0.2-1,0.6-1.5,1.2-1.6c0.4,0,0.7,0.3,0.9,1c0.2,0.6,0.3,1.3,0.3,2.1s-0.1,1.7-0.3,2.6
				c-0.2,0.9-0.5,1.7-0.7,2.5c-0.3,0.7-0.7,1.4-1,2c-0.4,0.6-0.8,1.1-1.3,1.6c-0.9,0.9-1.9,1.4-2.9,1.5c-1,0.1-2-0.2-2.9-0.9
				c-0.9-0.7-1.6-1.8-2.3-3.3c-1.3-3-2.1-7.1-2.3-12.4c-0.1-1.2-0.2-2-0.3-2.5c-0.3-0.9-0.8-1.8-1.5-2.5c1-1.2,1.6-3.3,1.8-6.3
				c0.3-4.6,1.1-8.3,2.5-10.9c1.4-2.5,3.1-3.7,5-3.6c1.7,0.1,3.1,1.4,4.3,3.8c1.1,2.3,1.6,4.9,1.6,7.9c0,1.7,0.3,2.7,0.8,3.2
				c-0.3,1.1-0.7,1.7-1.2,1.7c-0.2,0-0.4-0.1-0.5-0.1c-0.3,1.2-0.8,2-1.5,2.4c-0.2,0.1-0.4,0.2-0.6,0.2s-0.4-0.1-0.7-0.3
				c-0.3-0.2-0.5-0.4-0.5-0.7c0.3-0.3,0.5-1,0.5-2.1c-0.1,0-0.1,0.1-0.2,0.1c-0.1,0-0.1,0-0.1,0c-0.7,0-1.1-0.9-1.2-2.7
				c0.7,0,1.2-0.7,1.6-2c0.1-0.5,0.2-1,0.2-1.7c0-1.5-0.2-2.7-0.6-3.5c-0.4-0.8-1-1.3-1.7-1.4c-1.7-0.1-2.5,2.5-2.5,7.7
				c0,5.8,0,11.5,0,17.3c0,4,0.7,6.5,2,7.5c0.4,0.3,0.8,0.4,1.3,0.4c0.5-0.1,0.9-0.3,1.3-0.6c0.4-0.3,0.7-0.7,1-1.2
				c0.5-1,0.8-2.3,0.8-3.8C254.9,112.2,254.9,111.7,254.9,111.4z M246.2,113.3c0.1-0.3,0.2-0.6,0.2-0.9c0-0.5-0.1-1.2-0.1-2
				c-0.4-3.7-0.6-6.4-0.6-7.8c0-1.5,0-2.6,0.1-3.5s0.1-1.7,0.2-2.5c0.1-1.6,0.3-3.1,0.4-4.3c0.1-0.8,0.1-1.4,0.1-1.6
				c0-0.6-0.1-1-0.2-1.2c-0.4,1.2-0.7,2.8-1,4.8c-0.2,2-0.4,3.8-0.5,5.3c-0.1,0.7-0.3,1.2-0.8,1.9c0.5,0.6,0.8,1.2,0.8,1.8
				c0.4,4,0.7,6.6,0.9,7.7C245.8,112,246,112.8,246.2,113.3z"/>
			<path class="st5" d="M261.9,120.4c-0.5,0.8-1,1.2-1.6,1.3c-0.6,0.1-1-0.1-1.3-0.7c-0.3-0.5-0.4-1.1-0.4-1.6
				c0-0.7,0.1-1.4,0.2-1.8c0.2,0.4,0.5,0.5,0.8,0.5c0.6-0.1,1-0.8,1.2-2.4c0-3.5,0-6.9,0-10.4c0-1.1-0.1-1.9-0.3-2.3
				c-0.2-0.5-0.7-1.2-1.5-2.1c0.7-0.7,1.1-1.3,1.3-1.8c0.3-0.7,0.5-1.6,0.5-2.7c0-6.3,0-12.6,0-19c0-2.5-0.5-3.9-1.4-4
				c-0.3-0.1-0.6,0.1-0.8,0.5c-0.1-0.5-0.2-0.9-0.2-1.4c0-0.5,0.1-0.9,0.1-1.3c0.1-0.4,0.3-0.8,0.5-1.1c0.5-0.7,1-1,1.8-0.9
				c0.7,0.1,1.2,0.3,1.6,0.5c0.5-1.4,1.2-2.1,1.8-2c1,0.2,1.5,1.4,1.5,3.8c0,5.3,0,10.7,0,16.1c1-3.9,2.5-5.7,4.7-5.5
				c2.5,0.2,4,2.7,4.8,7.2c0.2,1.4,0.3,3.1,0.3,4.9c0,0.7,0,1.4,0,2c0,1,0.1,1.6,0.3,2.1c0.3,0.7,0.8,1.2,1.5,1.9
				c-0.7,0.8-1.2,1.4-1.4,1.8c-0.3,0.7-0.4,1.4-0.4,2.3c0,3.2,0,6.4,0,9.6c0.2,1.2,0.6,1.8,1.2,1.7c0.3-0.1,0.6-0.3,0.8-0.7
				c0.1,0.3,0.2,0.7,0.1,1.3c0,0.6-0.1,1.2-0.4,1.8c-0.3,0.6-0.7,1-1.2,1c-0.6,0.1-1.1-0.1-1.6-0.7c-0.5,0.7-0.9,1.2-1.5,1.2
				c-0.6,0.1-1-0.1-1.4-0.7c-0.4,0.7-0.8,1.1-1.3,1.2c-0.5,0.1-0.8-0.1-1.2-0.6c-0.3-0.5-0.5-1.2-0.5-2.2c0-0.5,0.1-0.8,0.2-1.2
				c0.2,0.3,0.5,0.5,0.7,0.5c0.5-0.1,0.7-0.7,0.9-1.7c0-6.3,0-12.6,0-18.8c0-4.1-0.5-6.5-1.4-7.2c-0.3-0.2-0.6-0.3-1-0.3
				c-1-0.1-1.8,1.1-2.1,3.5c-0.1,0.7-0.2,1.6-0.3,2.4c0,7,0,14.1,0,21.1c0.2,1,0.5,1.6,0.9,1.5c0.2,0,0.5-0.3,0.7-0.7
				c0.1,0.3,0.2,0.8,0.2,1.5c0,0.7-0.1,1.4-0.5,2c-0.3,0.6-0.7,0.9-1.2,1c-0.5,0.1-0.9-0.2-1.3-0.8c-0.4,0.7-0.9,1.1-1.4,1.2
				C262.9,121.3,262.4,121.1,261.9,120.4z M262.3,111.9c0.5-0.7,0.7-2.1,0.8-4.3c0-1,0.1-2,0.1-3.2c0-1.2,0-2,0-2.5
				c0-0.5,0-0.8,0-1.1c0-1,0-2,0-3c0-0.8,0-1.8,0-2.8c0-1.1,0-2.1,0-3.3c0-5.9-0.1-9.1-0.1-9.8c-0.1-1.4-0.4-2.3-0.7-2.9
				c0,3.7,0,7.5,0,11.2c0,4.6,0,7.2-0.1,7.7c-0.1,0.5-0.1,0.9-0.1,1.2c-0.1,0.7-0.5,1.2-1,1.8c0.6,0.5,0.9,1,1,1.6
				c0.1,1,0.2,3.5,0.2,7.2C262.3,110.5,262.3,111.2,262.3,111.9z M272.1,110.9c0.5-0.5,0.8-1.8,0.8-4.2c0.1-2.3,0.1-4.5,0.1-6.4
				c0-2,0-3.5-0.1-4.8c-0.1-1.2-0.1-2.2-0.3-2.9c-0.1-0.7-0.3-1.2-0.5-1.6c-0.2-0.4-0.5-0.7-0.8-1c0.4,1.9,0.6,3.6,0.7,5.1
				c0.1,1.6,0.1,3.1,0.1,4.5C272.1,103.4,272.1,107.2,272.1,110.9z"/>
			<path class="st5" d="M281.4,109.9c-0.4-1.7-0.6-3.1-0.7-4.4c-0.1-1.2-0.1-2-0.2-2.3c-0.1-0.3-0.1-0.7-0.3-1
				c-0.3-0.7-0.7-1.2-1.4-1.9c0.8-0.8,1.4-2.1,1.6-3.8c0.1-0.5,0.1-0.9,0.1-1.4c0.3-3.5,1.1-6.4,2.5-8.6c1.4-2.2,3.1-3.1,5-2.9
				c2,0.2,3.7,1.5,5.1,3.8c1.4,2.2,2.2,4.8,2.5,7.8c0.1,1,0.2,1.8,0.4,2.3c0.3,0.9,0.8,1.6,1.4,2c-0.7,0.6-1.1,1.1-1.3,1.6
				c-0.3,0.6-0.5,1.3-0.5,2.1c-0.3,4-1.1,7.2-2.4,9.6c-1.3,2.3-3,3.8-5.1,4.3c-2.3,0.5-4.1-0.5-5.5-2.9
				C282.3,112.9,281.8,111.6,281.4,109.9z M283.4,109.6c0.1-0.2,0.2-0.5,0.2-0.7c0-0.4-0.1-1-0.1-1.6c-0.4-3-0.6-5.1-0.6-6.3
				c0-1.2,0-2.1,0.1-2.8c0.1-0.7,0.1-1.3,0.1-2c0.1-1.3,0.3-2.5,0.4-3.5c0.1-0.7,0.1-1.1,0.1-1.3c0-0.5-0.1-0.8-0.2-1
				c-0.4,0.9-0.7,2.2-0.9,3.8c-0.2,1.6-0.4,3.1-0.5,4.3c-0.1,0.5-0.3,1-0.8,1.6c0.5,0.5,0.8,0.9,0.8,1.4c0.4,3.3,0.7,5.3,0.9,6.2
				C283.1,108.6,283.3,109.2,283.4,109.6z M288.3,87.4c-1.7-0.1-2.5,2.1-2.5,6.8c0,4.2,0,8.3,0,12.4c0,4.5,0.8,6.6,2.5,6.3
				c1.7-0.3,2.5-2.6,2.5-6.9c0-4,0-7.9,0-11.9C290.8,89.8,290,87.6,288.3,87.4z M292.3,108.5c0.5-0.4,0.8-1.6,0.8-3.6
				c0.1-2,0.1-3.5,0.1-4.4c0-1,0-1.8,0-2.4s0-1.3,0-2c-0.1-2.5-0.1-4-0.3-4.5c-0.2-0.5-0.4-0.7-0.5-0.8
				C292.3,96.7,292.3,102.6,292.3,108.5z"/>
			<path class="st5" d="M301.6,107.1c-0.3-1.4-0.6-2.5-0.7-3.5s-0.1-1.6-0.2-2c-0.1-0.3-0.1-0.5-0.3-0.8c-0.3-0.5-0.7-1-1.4-1.6
				c0.8-0.7,1.4-1.7,1.6-3.1c0.1-0.4,0.1-0.8,0.1-1.2c0.3-2.9,1.1-5.2,2.5-7c1.4-1.8,3.1-2.4,5-2.1c2,0.3,3.7,1.4,5.1,3.1
				c1.4,1.8,2.2,3.7,2.5,6c0.1,0.8,0.2,1.4,0.4,1.8c0.3,0.7,0.8,1.2,1.4,1.4c-0.7,0.5-1.1,0.8-1.3,1.2c-0.3,0.5-0.5,1-0.5,1.6
				c-0.3,3.1-1.1,5.5-2.4,7.4c-1.3,2-3,3.3-5.1,3.8c-2.3,0.6-4.1,0-5.4-1.9C302.4,109.6,302,108.5,301.6,107.1z M303.6,106.8
				c0.1-0.2,0.2-0.4,0.2-0.6c0-0.3-0.1-0.8-0.1-1.3c-0.4-2.4-0.6-4.1-0.6-5c0-1,0-1.7,0.1-2.2c0.1-0.5,0.1-1.1,0.1-1.6
				c0.1-1,0.3-2,0.4-2.8c0.1-0.5,0.1-0.8,0.1-1c0-0.4-0.1-0.7-0.2-0.8c-0.4,0.8-0.7,1.8-0.9,3.1c-0.2,1.3-0.4,2.5-0.5,3.5
				c-0.1,0.5-0.3,0.8-0.8,1.3c0.5,0.4,0.8,0.7,0.8,1.1c0.4,2.7,0.7,4.3,0.9,4.9C303.3,106,303.4,106.5,303.6,106.8z M308.5,89
				c-1.6-0.1-2.5,1.6-2.5,5.4c0,3.3,0,6.6,0,10c0,3.6,0.8,5.3,2.5,4.9c1.7-0.4,2.5-2.2,2.5-5.5c0-3.1,0-6.2,0-9.2
				C310.9,90.9,310.1,89.1,308.5,89z M312.3,105.4c0.5-0.3,0.8-1.2,0.8-2.8c0.1-1.5,0.1-2.7,0.1-3.4s0-1.4,0-1.8c0-0.5,0-1,0-1.5
				c-0.1-2-0.1-3.1-0.3-3.5s-0.4-0.6-0.5-0.7C312.3,96.3,312.3,100.8,312.3,105.4z"/>
			<path class="st5" d="M322.5,107.9c-0.5,0.5-1,0.8-1.5,1c-0.6,0.1-1,0.1-1.2-0.1s-0.4-0.5-0.4-0.8c0-0.4,0.1-0.7,0.2-1
				c0.2,0.1,0.5,0.2,0.8,0.1c0.6-0.1,1-0.7,1.2-1.4c0-1.8,0-3.6,0-5.3c0-0.5-0.1-0.8-0.3-1.1c-0.3-0.3-0.8-0.7-1.5-1
				c0.7-0.5,1.1-0.8,1.3-1c0.3-0.4,0.5-0.8,0.5-1.4c0-3.3,0-6.5,0-9.8c0-1.3-0.5-2.1-1.4-2.3c-0.3-0.1-0.6,0-0.8,0.1
				c-0.1-0.3-0.2-0.5-0.2-0.8s0.1-0.5,0.1-0.7c0.1-0.2,0.3-0.4,0.5-0.5c0.5-0.3,1-0.3,1.7-0.1c0.7,0.2,1.2,0.4,1.6,0.6
				c0.5-0.7,1.1-0.8,1.8-0.7c1,0.3,1.4,1,1.4,2.1c0,4,0,7.9,0,11.8c0,0.5,0.1,0.8,0.3,1c0.3,0.3,0.8,0.7,1.4,0.9
				c-0.7,0.4-1.2,0.7-1.4,1c-0.3,0.3-0.4,0.7-0.4,1.2c0,1.6,0,3.2,0,4.8c0.3,0.7,0.7,0.9,1.2,0.7c0.3-0.1,0.6-0.3,0.8-0.5
				c0.1,0.1,0.2,0.4,0.2,0.7s-0.1,0.6-0.4,0.9s-0.7,0.6-1.2,0.8c-0.5,0.1-1,0.1-1.6-0.1c-0.4,0.5-0.8,0.8-1.4,0.9
				C323.4,108.1,323,108.1,322.5,107.9z M322.9,103.5c0.5-0.4,0.7-1.2,0.8-2.2c0-0.5,0.1-1,0.1-1.6s0-1,0-1.2c0-0.3,0-0.5,0-0.6
				c0-0.5,0-1,0-1.5c0-0.4,0-0.8,0-1.4s0-1.1,0-1.6c0-2.9-0.1-4.6-0.1-4.9c-0.1-0.7-0.4-1.2-0.7-1.5c0,1.9,0,3.8,0,5.7
				c0,2.3,0,3.6-0.1,3.9s-0.1,0.5-0.1,0.6c-0.1,0.3-0.4,0.7-1,0.9c0.6,0.2,0.9,0.5,1,0.8c0.1,0.5,0.2,1.8,0.2,3.6
				C322.9,102.7,322.9,103.1,322.9,103.5z"/>
		</g>
	</g>
</g>
</svg>
